<?xml version="1.0" standalone="no"?>
<!DOCTYPE svg PUBLIC "-//W3C//DTD SVG 1.1//EN" "http://www.w3.org/Graphics/SVG/1.1/DTD/svg11.dtd" >
<svg xmlns="http://www.w3.org/2000/svg" xmlns:xlink="http://www.w3.org/1999/xlink" version="1.1">
<metadata>
Created by FontForge 20170731 at Tue Aug 25 17:59:07 2015
 By Aleksey,,,
Copyright (c) 2015 by Fontsmith Ltd. All rights reserved. This font may not be altered in any way without prior permission of Fontsmith Ltd.
</metadata>
<defs>
<font id="TelefonicaWeb-Hand" horiz-adv-x="600" >
  <font-face 
    font-family="Telefonica Web Hand"
    font-weight="400"
    font-style="italic"
    font-stretch="normal"
    units-per-em="1000"
    panose-1="0 0 5 0 0 0 0 0 0 0"
    ascent="750"
    descent="-250"
    x-height="505"
    cap-height="690"
    bbox="-485 -253 1048 1154"
    underline-thickness="65"
    underline-position="-228"
    slope="-8"
    unicode-range="U+000D-FB02"
  />
<missing-glyph horiz-adv-x="662" 
d="M108 660h470v-660h-470v660zM502 612h-320l161 -240zM315 331l-159 239v-480zM532 570l-160 -239l160 -241v480zM502 49l-159 239l-161 -239h320z" />
    <glyph glyph-name="fi" unicode="fi" horiz-adv-x="606" 
d="M469 659.5q-10 -10.5 -22 -10.5q-33 36 -79 36q-32 0 -53.5 -17.5t-37 -56t-29.5 -106.5q36 3 65 3q47 0 70 -10.5t23 -32.5q0 -9 -5 -24q-26 5 -66 5q-48 0 -100 -7q-2 -14 -8 -52l-40 -260q-8 -56 -21 -90t-41 -35q-41 -2 -41 41q0 5 2 19l51 300l12 65q-37 -5 -77 -14
q-28 -7 -40 -7q-25 0 -25 29l1 10q3 23 47.5 34.5t108.5 17.5q33 132 84 192t137 60q37 0 65.5 -16t28.5 -48q0 -15 -10 -25.5zM525.5 601q-6.5 11 -6.5 30q0 57 15.5 81.5t47.5 24.5q18 0 28 -10.5t9 -26.5q0 -20 -9.5 -46t-26.5 -45t-39 -19q-12 0 -18.5 11zM393 59
q0 34 38 196.5t52 197.5q7 18 20 28.5t29 10.5t22 -8t6 -23q0 -21 -6.5 -49t-19.5 -70q-14 -51 -22 -82.5t-11 -63.5q-7 -60 -9 -96l-4 -39q-2 -22 -17.5 -34t-41.5 -12q-36 0 -36 44z" />
    <glyph glyph-name="fl" unicode="fl" horiz-adv-x="650" 
d="M469 659.5q-10 -10.5 -22 -10.5q-33 36 -79 36q-32 0 -53.5 -17.5t-37 -56t-29.5 -106.5q36 3 65 3q47 0 70 -10.5t23 -32.5q0 -9 -5 -24q-26 5 -66 5q-48 0 -100 -7q-2 -14 -8 -52l-40 -260q-8 -56 -21 -90t-41 -35q-41 -2 -41 41q0 5 2 19l51 300l12 65q-37 -5 -77 -14
q-28 -7 -40 -7q-25 0 -25 29l1 10q3 23 47.5 34.5t108.5 17.5q33 132 84 192t137 60q37 0 65.5 -16t28.5 -48q0 -15 -10 -25.5zM440.5 38.5q-22.5 31.5 -22.5 85.5q0 90 27 215t65 231q22 60 42.5 105.5t43.5 59.5q10 6 17.5 8t19.5 2q24 0 24 -22q0 -13 -11 -40t-32 -72
q-20 -42 -23 -50q-35 -88 -62.5 -205t-27.5 -195q0 -25 7.5 -44.5t28.5 -19.5q10 0 23 5q3 1 10.5 3t13.5 2q13 0 13 -18q0 -30 -26.5 -56t-64.5 -26q-43 0 -65.5 31.5z" />
    <glyph glyph-name="f_f.liga" unicode="ff" horiz-adv-x="695" 
d="M796 659.5q-10 -10.5 -22 -10.5q-33 36 -79 36t-72.5 -39t-47.5 -137q76 -1 114 -3.5t56 -11.5t18 -28q0 -10 -5 -25q-30 5 -104 5q-61 0 -91 -1l-9 -58l-40 -260q-8 -56 -21 -90t-41 -35q-41 -2 -41 41q0 5 2 19l51 300l15 80l-46 -2q-109 -3 -201 -13l-6 -40l-40 -260
q-8 -56 -21 -90t-41 -35q-41 -2 -41 41q0 5 2 19l51 300l10 55q-36 -5 -73 -14q-30 -7 -42 -7q-25 0 -25 29l1 10q6 39 154 53q33 137 84 199t139 62q33 0 57 -14t24 -42q0 -15 -8.5 -25.5t-20.5 -10.5q-17 16 -30 22t-39 6q-33 0 -55 -18t-37.5 -59t-29.5 -113
q161 12 249 14q33 125 83.5 182.5t134.5 57.5q37 0 65.5 -16t28.5 -48q0 -15 -10 -25.5z" />
    <glyph glyph-name="r_s.liga" unicode="rs" horiz-adv-x="777" 
d="M681 486q38 -15 61 -42t23 -63q0 -22 -14 -35t-33 -13q-7 0 -10 1q-5 48 -37 74.5t-76 26.5q-39 0 -63 -15t-24 -41q0 -31 21 -52t63 -48q47 -29 71.5 -55t24.5 -68q0 -72 -55.5 -105t-125.5 -33q-92 0 -135 32t-43 82q0 21 9.5 38.5t20.5 22.5q17 -54 54 -80.5t87 -26.5
q47 0 76.5 15t29.5 45q0 29 -21 48t-64 42q-35 20 -56 35t-36 38t-15 55q0 65 52.5 101t134.5 36q42 0 80 -15zM366 416q-14 -15 -30 -15q-22 8 -40 8q-51 0 -91 -55q-36 -46 -60.5 -128.5t-43.5 -208.5l-11 -1q-29 0 -44 20t-15 53q0 52 28 175t59 228q12 3 21 3
q36 0 36 -49q0 -29 -11 -76q33 58 77.5 93t85.5 35q27 0 40 -13t13 -33q0 -21 -14 -36z" />
    <glyph glyph-name="r_t.liga" unicode="rt" horiz-adv-x="753" 
d="M532 443q-56 -216 -56 -303q0 -33 10 -53t48 -20q62 0 142 77q13 -2 21.5 -9.5t8.5 -17.5q0 -5 -7 -16q-34 -52 -92 -80t-111 -28q-106 0 -106 128q0 37 17 127t42 196q-81 -4 -146.5 -27t-97.5 -63q-36 -46 -60.5 -128.5t-43.5 -208.5l-11 -1q-29 0 -44 20t-15 53
q0 52 28 175t59 228q12 3 21 3q36 0 36 -49q0 -32 -12 -79q56 97 172 126q35 9 129 11q39 158 61 209q5 3 14 3q29 0 39 -17t10 -35q0 -10 -6 -31.5t-7 -27.5q-7 -23 -8 -28l-19 -72q71 0 113 -2.5t65 -8.5q36 -12 36 -39q-3 -21 -8 -28q-67 12 -222 16z" />
    <glyph glyph-name="t_t.liga" unicode="tt" horiz-adv-x="826" 
d="M713 460q-38 0 -108 -2q-57 -215 -57 -308q0 -37 11.5 -60t56.5 -23q62 0 142 77q13 -2 21.5 -9.5t8.5 -17.5q0 -5 -7 -16q-34 -52 -92 -80t-111 -28q-116 0 -116 138q0 38 17 129t42 195l-36 -1q-138 -3 -267 -14q-56 -214 -56 -300q0 -33 10 -53t48 -20q25 0 50 12
t62 45q13 -2 21.5 -9.5t8.5 -17.5q0 -5 -7 -16q-31 -46 -78.5 -67t-94.5 -21q-106 0 -106 128q0 35 16 120t40 189q-22 -3 -41.5 -7.5t-27.5 -5.5q-28 -7 -40 -7q-25 0 -25 29l1 10q6 38 150 52q40 157 63 212q4 3 14 3q29 0 39 -17t10 -35q0 -10 -6 -31.5t-7 -27.5
q-7 -23 -8 -28l-18 -69q175 12 302 15q37 142 59 190q5 3 14 3q29 0 39 -17t10 -35q0 -10 -6 -31.5t-7 -27.5q-7 -23 -8 -28l-16 -54q82 -1 123 -3.5t60 -11.5t19 -28q0 -10 -5 -25q-31 5 -107 5z" />
    <glyph glyph-name=".notdef" horiz-adv-x="662" 
d="M108 660h470v-660h-470v660zM502 612h-320l161 -240zM315 331l-159 239v-480zM532 570l-160 -239l160 -241v480zM502 49l-159 239l-161 -239h320z" />
    <glyph glyph-name=".null" horiz-adv-x="0" 
 />
    <glyph glyph-name="nonmarkingreturn" unicode="&#xd;" horiz-adv-x="280" 
 />
    <glyph glyph-name="space" unicode=" " horiz-adv-x="280" 
 />
    <glyph glyph-name="exclam" unicode="!" horiz-adv-x="247" 
d="M89.5 230.5q-11.5 18.5 -11.5 60.5q0 85 31.5 195.5t79.5 212.5q27 4 45 -13t18 -44q0 -14 -6 -30.5t-20 -47.5q-33 -76 -45 -111q-21 -59 -33 -114t-17 -124q-30 -3 -41.5 15.5zM37.5 0q-15.5 20 -15.5 42t19 38t41 16t38 -15t16 -37q0 -26 -16 -45t-38 -19
q-29 0 -44.5 20z" />
    <glyph glyph-name="quotedbl" unicode="&#x22;" horiz-adv-x="251" 
d="M201 484q-15 0 -29 7q32 127 33 218q8 6 22.5 10.5t22.5 4.5q22 1 22 -35q0 -35 -18 -94t-40 -109q-8 -2 -13 -2zM73.5 480q-13.5 4 -19.5 5q16 52 24 103t15 120q8 5 22 8.5t22 3.5q23 0 23 -39t-20.5 -101t-43.5 -102q-9 -2 -22.5 2z" />
    <glyph glyph-name="numbersign" unicode="#" horiz-adv-x="549" 
d="M571 474l-7 -30q-6 -2 -12 -2q-12 0 -20 2q-41 5 -73 6q-7 -23 -16 -58l-20 -83q89 0 89 -25q0 -19 -17 -27q-4 -1 -28 -3l-56 -5q-13 -70 -21.5 -133t-10.5 -99q-10 -3 -18 -3q-24 0 -33 21t-9 54q1 61 19 152q-35 -4 -72 -12q-41 -9 -74 -21l-26 -112q-11 -47 -32 -79
t-40 -32q-17 0 -17 23q0 4 3 28q2 18 28 138q-35 -14 -56 -14q-34 0 -34 33q34 32 108 60q6 28 8 38l17 75q4 16 5 24l9 36q-37 -12 -90 -36l-22 26q9 26 43.5 47t84.5 36q44 192 55 227q8 4 20 4q14 0 29.5 -5.5t17.5 -11.5q0 -14 -41 -198q28 4 60 4q59 0 85 -1
q34 103 69 183q9 6 24 6q13 0 24 -4t16 -12q-18 -52 -22 -62q-17 -49 -39 -116q61 -9 92 -39zM350 305l2 10q17 78 35 137l-79 -2q-42 -2 -62 -5l-18 -78l-20 -86q38 10 61 14q54 8 81 10z" />
    <glyph glyph-name="dollar" unicode="$" horiz-adv-x="500" 
d="M489.5 611.5q41.5 -35.5 41.5 -72.5q0 -8 -6 -12.5t-15 -4.5q-11 0 -31.5 16t-27.5 21q-42 29 -84 39q-13 -50 -23 -90.5t-18 -69.5q-4 -18 -16 -66q67 -33 98 -70t31 -87q0 -70 -57 -116.5t-154 -65.5q-23 -95 -35 -130q-17 -45 -28 -45q-15 1 -15 31q0 36 11 109l4 26
q-38 -2 -60 -2q-36 0 -57 12.5t-21 34.5q0 36 52 36l22 -1l40 -1l37 1q15 84 46 223q-71 35 -103.5 73.5t-32.5 97.5q0 82 59 127t163 45h1q16 72 34 102t44 30q12 0 27 -6l-33 -134q65 -15 106.5 -50.5zM254 446q35 133 42 161h-14q-60 0 -89.5 -25t-29.5 -71
q0 -30 18 -56.5t62 -50.5zM292 295l-44 -184q61 10 93 33.5t32 57.5q0 54 -81 93z" />
    <glyph glyph-name="percent" unicode="%" horiz-adv-x="689" 
d="M409.5 371.5q-127.5 -151.5 -308.5 -401.5q-21 1 -31 15t-10 37q0 24 98 143.5t224.5 255t195.5 196.5q-44 -23 -79.5 -36.5t-67.5 -13.5q-24 0 -62 31v-7q0 -48 -35 -97t-83.5 -81t-85.5 -32q-46 0 -72.5 28.5t-26.5 76.5q0 51 28.5 101.5t76 82.5t101.5 32h1
q28 0 47.5 -10.5t44.5 -31.5q25 -20 42.5 -30t42.5 -10q22 0 45.5 8.5t62.5 26.5q37 16 55.5 23t34.5 7q14 0 23.5 -7t9.5 -20q-144 -135 -271.5 -286.5zM233 460q29 21 48.5 53t19.5 62q0 32 -9.5 45t-32.5 13q-33 0 -62.5 -22.5t-47.5 -55.5t-18 -62q0 -25 12 -39.5
t33 -14.5q28 0 57 21zM636.5 303q27.5 -32 27.5 -79q0 -52 -31 -103.5t-81 -84t-102 -32.5q-42 0 -65.5 27.5t-23.5 77.5q0 51 28.5 104t76 87.5t101.5 34.5q42 0 69.5 -32zM528 84.5q29 22.5 48.5 56.5t19.5 67q0 26 -10 42t-32 16q-33 0 -62.5 -24t-47.5 -59.5t-18 -66.5
q0 -25 12 -39.5t33 -14.5q28 0 57 22.5z" />
    <glyph glyph-name="ampersand" unicode="&#x26;" horiz-adv-x="636" 
d="M594 9.5q6 -7.5 6 -15.5q0 -14 -12 -25t-31 -12q-53 0 -149 87q-79 -57 -186 -57q-82 0 -138 39t-56 121q0 67 42 115t120 84q-20 63 -20 132q1 130 66.5 172t140.5 42q74 0 107.5 -38.5t33.5 -89.5q0 -76 -65.5 -129.5t-177.5 -100.5q25 -58 67 -107q45 -57 80 -92
q57 70 84 203q9 4 20 4q29 0 29 -39q0 -48 -28 -109q-25 -56 -62 -99q48 -40 106 -70q17 -8 23 -15.5zM278.5 597.5q-32.5 -35.5 -32.5 -109.5q0 -61 15 -112q84 36 136.5 77.5t52.5 95.5q0 29 -20.5 56.5t-63.5 27.5q-55 0 -87.5 -35.5zM148.5 79q34.5 -27 85.5 -27
q76 0 131 33q-52 55 -91 105q-45 58 -68 113q-51 -28 -71.5 -63t-20.5 -82q0 -52 34.5 -79z" />
    <glyph glyph-name="quotesingle" unicode="'" horiz-adv-x="149" 
d="M90 479q-22 0 -37 4q40 127 49 227q8 5 22.5 8.5t23.5 3.5q21 0 21 -35q0 -36 -20 -97.5t-44 -109.5q-4 -1 -15 -1z" />
    <glyph glyph-name="parenleft" unicode="(" horiz-adv-x="354" 
d="M161 -95q-65 54 -102 139t-37 183q0 100 40 196.5t112.5 174.5t166.5 125q47 -10 47 -55q0 -13 -18.5 -27.5t-47.5 -31.5l-20 -12q-99 -68 -147 -162t-48 -222q0 -123 51.5 -205.5t150.5 -134.5q11 -4 11 -14q0 -6 -4 -10.5t-11 -3.5q-79 6 -144 60z" />
    <glyph glyph-name="parenright" unicode=")" horiz-adv-x="335" 
d="M-27 -146q-10 0 -15.5 5.5t-5.5 11.5q0 7 9 10q155 64 228 173t73 276q0 248 -201 350q2 17 15.5 27.5t34.5 10.5q72 0 124.5 -53t79.5 -134.5t27 -166.5q0 -130 -39 -238t-121 -180t-206 -92h-3z" />
    <glyph glyph-name="asterisk" unicode="*" horiz-adv-x="356" 
d="M307 612q20 2 31 2q25 0 39.5 -6t14.5 -22q0 -9 -1.5 -14.5t-5.5 -13.5q-15 5 -43 5q-27 0 -62 -7q36 -46 49 -81q2 -4 2 -11q0 -14 -16 -14q-18 0 -40.5 22t-51.5 56q-16 -26 -34.5 -58.5t-32.5 -58.5q-14 0 -27.5 12.5t-13.5 28.5q0 13 13 33.5t26.5 37.5t17.5 23
q-6 1 -22 1q-42 0 -67 8t-25 37q0 9 2 14t7 14q22 -7 51 -10.5t55 -2.5q-19 19 -34 50.5t-15 52.5q0 8 3 14q3 5 7 4q23 -7 40.5 -26t41.5 -54q3 -4 6.5 -9.5t7.5 -11.5q21 38 47.5 64.5t57.5 26.5q22 0 37 -15q-21 -15 -41 -36t-50 -56z" />
    <glyph glyph-name="plus" unicode="+" 
d="M242 163q3 18 11 54q7 32 11 53q3 21 3 22q0 14 -15 14q-11 0 -24.5 -1t-20.5 -2q-30 -4 -50 -4q-45 0 -45 32l1 9q4 22 19 30t45 8l42 -1q20 -2 34 -2q24 1 35 8.5t15.5 25t10.5 61.5l8 52q2 12 12 20t26 8q22 0 22 -22q0 -8 -3 -21t-4 -18q-2 -7 -7 -28l-8 -52
q-1 -5 -1 -13q0 -12 4.5 -15.5t14.5 -5.5q34 -2 51 -2l53 1q9 1 26 1q18 0 28 -5.5t7 -19.5q-3 -12 -16.5 -24t-31.5 -13q-20 -1 -50 1q-24 2 -45 2q-41 0 -55.5 -9.5t-18.5 -32.5q-10 -50 -13 -108q-1 -37 -14 -56t-36 -19q-10 0 -25 5q-1 27 4 67z" />
    <glyph glyph-name="comma" unicode="," horiz-adv-x="205" 
d="M0 -143q-17 0 -29 8.5t-11 22.5q92 23 92 91q0 38 -30 76q-4 4 -4 8q0 3 2 9q5 16 20 29t36 13q27 0 42.5 -21.5t15.5 -55.5q0 -45 -17 -83t-45 -63t-59 -32q-8 -2 -13 -2z" />
    <glyph glyph-name="hyphen" unicode="-" horiz-adv-x="349" 
d="M51.5 219q-21.5 5 -21.5 23q0 44 78 44q20 0 60 -4l29 -2q9 -1 29 -1q36 0 84 7q12 -4 12 -20q0 -23 -36 -35q-24 -8 -80.5 -12.5t-99.5 -4.5q-33 0 -54.5 5z" />
    <glyph glyph-name="period" unicode="." horiz-adv-x="205" 
d="M25.5 14q-16.5 15 -16.5 38q0 27 15.5 45t46.5 18q24 0 38.5 -14.5t14.5 -38.5q0 -22 -12 -42.5t-42 -20.5q-28 0 -44.5 15z" />
    <glyph glyph-name="slash" unicode="/" horiz-adv-x="394" 
d="M44 -170q-10 -4 -22 -4q-13 0 -21.5 5.5t-6.5 15.5q21 110 99 300.5t172 358t160 222.5q6 2 15 2q20 0 42.5 -7t26.5 -16q-142 -157 -260.5 -392.5t-192.5 -472.5q-2 -8 -12 -12z" />
    <glyph glyph-name="zero" unicode="0" horiz-adv-x="533" 
d="M77 59q-36 60 -36 143q0 122 41.5 235.5t113.5 183.5t159 70q88 0 126.5 -54t38.5 -143q0 -135 -41.5 -248.5t-113 -180t-157.5 -66.5q-95 0 -131 60zM319.5 132.5q51.5 59.5 85 154t33.5 192.5q0 71 -18.5 112.5t-66.5 41.5q-56 0 -108.5 -57.5t-85 -150.5t-32.5 -194
q0 -64 19 -111t71 -47q51 0 102.5 59.5z" />
    <glyph glyph-name="one" unicode="1" horiz-adv-x="448" 
d="M405.5 628.5q2.5 -9.5 -0.5 -16.5q-55 -142 -94.5 -282t-59.5 -243q73 0 132 -6q3 -12 3 -23q0 -14 -5 -23t-13 -11q-41 -10 -278 -10q-23 0 -41.5 16t-18.5 36q0 10 11 13t45 5l83 3q24 108 59.5 238.5t65.5 223.5q-30 -18 -87.5 -40t-71.5 -22q-10 0 -17.5 8t-7.5 19
q0 14 12 21q12 9 73 44t117 63.5t68 28.5q6 0 9 -4t7 -14q7 -15 9.5 -24.5z" />
    <glyph glyph-name="two" unicode="2" horiz-adv-x="545" 
d="M452 95.5q17 -12.5 17 -31.5q0 -16 -10 -29q-77 7 -161 7q-113 0 -228 -12q-35 -3 -35 30q0 10 1 15q9 45 39.5 86t69.5 74t102 81q62 45 98 75.5t60 66.5t24 74q0 87 -91 87q-45 0 -95 -22.5t-78 -65.5q-15 4 -22 11.5t-7 20.5q0 38 32.5 67t82 44.5t96.5 15.5
q84 0 126 -35.5t42 -104.5q0 -58 -29 -105.5t-71 -83t-111 -83.5q-76 -53 -117 -91t-55 -83q86 11 170 11q54 0 95 -4q38 -3 55 -15.5z" />
    <glyph glyph-name="three" unicode="3" horiz-adv-x="514" 
d="M448 455.5q-41 -41.5 -118 -73.5q61 -12 90 -55.5t29 -103.5q0 -61 -31.5 -109t-89 -75.5t-132.5 -27.5q-66 0 -116.5 23.5t-50.5 63.5q1 17 15.5 31t40.5 14q26 -32 58 -48.5t80 -16.5q36 0 70 15.5t55.5 44.5t21.5 68q0 60 -31.5 91t-87.5 31q-23 0 -43 -4
q-13 -3 -23 -3q-11 0 -16 5.5t-6 19.5v7q0 19 16 22q81 17 154.5 57.5t73.5 106.5q0 32 -22 49t-63 17q-36 0 -60 -8t-48 -22q-26 -14 -40 -14q-24 0 -24 24q0 26 29 46.5t73.5 32t86.5 11.5q73 0 111.5 -28.5t38.5 -81.5q0 -68 -41 -109.5z" />
    <glyph glyph-name="four" unicode="4" horiz-adv-x="546" 
d="M501 196.5q-33 -16.5 -88 -25.5q-14 -63 -25.5 -100.5t-25.5 -66.5q-11 -24 -47 -24q-14 0 -23 4.5t-7 10.5q23 61 50 167q-20 -1 -60 -1q-111 3 -178 19.5t-67 64.5q0 26 60.5 110.5t137 176t110.5 123.5l22 21q18 18 26 24.5t16 6.5q12 0 17.5 -7t10.5 -22q3 -7 3 -14
q0 -13 -11 -29.5t-37 -42.5q-85 -83 -176.5 -184.5t-91.5 -137.5q0 -23 44.5 -32.5t131.5 -11.5q23 0 57 3q29 133 45 242q9 4 20 4q22 0 31.5 -12t9.5 -35q0 -41 -29 -189q39 7 88 22q8 -3 13.5 -11.5t5.5 -15.5q0 -21 -33 -37.5z" />
    <glyph glyph-name="five" unicode="5" horiz-adv-x="522" 
d="M221 584q-30 -84 -47 -161q22 4 54 4q62 0 113 -20.5t81.5 -61t30.5 -99.5q0 -67 -32 -118.5t-88.5 -79.5t-128.5 -28q-65 0 -113.5 26.5t-48.5 70.5q0 19 12.5 29t27.5 9q23 -35 56 -54t85 -19q67 0 103 36.5t36 101.5q0 59 -37 93q-43 39 -139 39q-11 0 -31 -2l-22 -1
q-16 0 -23.5 7t-6.5 27q2 35 29 127.5t45 117.5q22 33 92.5 47.5t149.5 14.5q71 0 113.5 -13t42.5 -49q0 -15 -7 -30q-72 9 -140 9q-122 0 -207 -23z" />
    <glyph glyph-name="six" unicode="6" horiz-adv-x="560" 
d="M291 589.5q-61 -46.5 -99.5 -121t-49.5 -157.5q53 59 115.5 93.5t119.5 34.5q70 0 99.5 -39t29.5 -92q0 -78 -38 -150.5t-100 -117t-130 -44.5q-57 0 -99 30t-64 81.5t-22 115.5q0 124 50 234t137.5 176.5t193.5 66.5q45 0 69 -17t24 -39q0 -12 -10 -24q-38 18 -88 16
q-77 0 -138 -46.5zM244.5 322q-59.5 -38 -105.5 -100q4 -66 31.5 -113.5t85.5 -47.5q33 0 72.5 32.5t66.5 82.5t27 100q0 84 -63 84q-55 0 -114.5 -38z" />
    <glyph glyph-name="seven" unicode="7" horiz-adv-x="452" 
d="M436.5 640.5q44.5 -13.5 44.5 -47.5q0 -30 -124 -278q-62 -123 -119 -217t-84 -101l-11 -1q-37 0 -37 32q0 17 7.5 32t30.5 46q32 40 74 109q10 14 18 27t15 24q45 70 88.5 153.5t67.5 144.5q-66 7 -121 7q-79 0 -180 -20q-4 -1 -12 -1q-16 0 -25.5 10.5t-9.5 28.5
q0 14 6 30q34 16 95 25.5t123 9.5q109 0 153.5 -13.5z" />
    <glyph glyph-name="eight" unicode="8" horiz-adv-x="541" 
d="M466 676.5q48 -17.5 74.5 -45.5t25.5 -59q0 -16 -7 -24.5t-19 -13.5q-20 31 -49 51q-18 -53 -55.5 -101t-103.5 -111l3 -2q72 -54 104 -99.5t32 -95.5q0 -87 -61 -133t-175 -46q-84 0 -139 32.5t-55 107.5q0 70 49.5 121.5t133.5 102.5q-60 47 -81.5 93t-19.5 94
q3 88 77 117t160 29q58 0 106 -17.5zM380.5 502.5q47.5 63.5 65.5 108.5q-46 18 -100 18q-58 0 -102.5 -23.5t-44.5 -67.5q0 -40 20 -68.5t71 -66.5q43 36 90.5 99.5zM368 251q-37 39 -93 75q-67 -46 -107.5 -88t-40.5 -90q0 -40 34.5 -63t95.5 -23q78 0 113 27.5t35 79.5
q0 43 -37 82z" />
    <glyph glyph-name="nine" unicode="9" horiz-adv-x="509" 
d="M469.5 654q38.5 -36 38.5 -107q0 -70 -33 -182t-71 -192q-46 -79 -99 -120.5t-134 -41.5q-57 0 -98.5 24.5t-41.5 71.5q0 16 10 31t31 22q22 -44 49.5 -63.5t67.5 -19.5q78 0 128.5 80.5t84.5 210.5q-31 -40 -78 -63.5t-98 -23.5q-56 0 -92 41.5t-36 105.5
q0 76 36.5 135.5t96 93t125.5 33.5q75 0 113.5 -36zM343.5 384.5q42.5 29.5 66 76t23.5 96.5q0 37 -20 57t-58 20q-54 0 -95 -26t-63 -68.5t-22 -89.5q0 -43 18 -69t54 -26q54 0 96.5 29.5z" />
    <glyph glyph-name="colon" unicode=":" horiz-adv-x="206" 
d="M78.5 313q-16.5 15 -16.5 38q0 27 15.5 45t46.5 18q24 0 38.5 -14.5t14.5 -38.5q0 -22 -12 -42.5t-42 -20.5q-28 0 -44.5 15zM25.5 14q-16.5 15 -16.5 38q0 27 15.5 45t46.5 18q24 0 38.5 -14.5t14.5 -38.5q0 -22 -12 -42.5t-42 -20.5q-28 0 -44.5 15z" />
    <glyph glyph-name="semicolon" unicode=";" horiz-adv-x="220" 
d="M83.5 313q-16.5 15 -16.5 38q0 27 15.5 45t46.5 18q24 0 38.5 -14.5t14.5 -38.5q0 -22 -12 -42.5t-42 -20.5q-28 0 -44.5 15zM15 -143q-17 0 -29 8.5t-11 22.5q92 23 92 91q0 38 -30 76q-4 4 -4 8q0 3 2 9q5 16 20 29t36 13q27 0 42.5 -21.5t15.5 -55.5q0 -45 -17 -83
t-45 -63t-59 -32q-8 -2 -13 -2z" />
    <glyph glyph-name="less" unicode="&#x3c;" 
d="M556 518q-1 -14 -23.5 -27t-81.5 -41q-93 -47 -274 -101q59 -13 124 -45.5t110 -61.5q38 -21 61.5 -40.5t23.5 -44.5q0 -16 -9 -25t-26 -18q-103 111 -360 199q-1 6 -1 18q0 30 13 47.5t42.5 32t96.5 37.5q141 43 290 103q16 -12 14 -33z" />
    <glyph glyph-name="equal" unicode="=" 
d="M120 392q-28 0 -28 30q0 26 11 33.5t21.5 8.5t13.5 1q35 4 80 4q28 0 72 -2q21 -1 52 -1q52 -4 73 -4q23 0 73 4q36 1 45.5 -6.5t9.5 -23.5q0 -18 -12 -27t-33 -9q-6 0 -22 2q-43 7 -113 7h-32q-110 0 -195 -15q-12 -2 -16 -2zM100 182q-28 0 -28 30q0 26 11 33.5
t21.5 8.5t13.5 1q31 4 71 4q25 0 63 -2q37 -2 50 -1q52 -4 73 -4q23 0 73 4q36 1 45.5 -6.5t9.5 -23.5q0 -18 -12 -27t-33 -9q-6 0 -22 2q-43 7 -113 7h-31q-99 0 -176 -15q-12 -2 -16 -2z" />
    <glyph glyph-name="greater" unicode="&#x3e;" 
d="M546 334q0 -30 -14 -47.5t-48 -32t-110 -37.5q-124 -38 -280 -103q-14 10 -14 29t24 36t81 36l56 22q51 20 109 41t118 38q-60 13 -130 46.5t-113 60.5q-38 21 -61.5 40.5t-23.5 44.5q0 17 8 26t27 17q148 -123 370 -199q1 -6 1 -18z" />
    <glyph glyph-name="question" unicode="?" horiz-adv-x="355" 
d="M70 215q-14 17 -14 44q0 34 18 61t43 45.5t70 46.5q43 26 67.5 44t41.5 43t17 57q0 36 -24 55.5t-59 19.5q-24 0 -41 -4.5t-39 -13.5q-12 -5 -24 -8.5t-23 -3.5q-18 0 -28.5 7.5t-10.5 20.5q0 35 49 52.5t104 17.5q80 0 125.5 -34.5t45.5 -96.5q0 -56 -23.5 -94.5
t-55.5 -61.5t-83 -50q-49 -26 -72 -45t-23 -47q0 -16 4.5 -27t14.5 -26q-19 -19 -44 -19q-22 0 -36 17zM51.5 -0.5q-16.5 16.5 -16.5 33.5q0 28 18.5 42t47.5 14q22 0 40 -14.5t18 -37.5q0 -22 -19.5 -38t-42.5 -16q-29 0 -45.5 16.5z" />
    <glyph glyph-name="at" unicode="@" horiz-adv-x="797" 
d="M496 192.5q-23 28.5 -23 79.5q0 14 1 22q-25 -53 -62 -84.5t-83 -31.5q-41 0 -64 26t-23 66q0 60 30.5 121t80 100t104.5 39q21 0 35.5 -8.5t14.5 -24.5q0 -9 -4 -18q-16 2 -19 2q-41 0 -79 -29.5t-61 -73.5t-23 -82q0 -42 32 -42q41 0 81 53.5t71 121.5q4 8 13.5 30.5
t19 37t18.5 14.5q22 0 38.5 -12t9.5 -24q-35 -58 -48.5 -100.5t-13.5 -93.5q0 -21 12 -38.5t33 -17.5q29 0 58.5 22.5t49.5 71.5t20 124q0 46 -20.5 89t-70.5 72.5t-133 29.5q-99 0 -180.5 -49t-128.5 -128.5t-47 -164.5q0 -81 30.5 -140t85 -89.5t123.5 -30.5q139 0 269 86
q8 -13 8 -25q0 -28 -37 -57.5t-104.5 -49t-152.5 -19.5q-152 0 -231 79t-79 211q0 126 64.5 226.5t170 156.5t224.5 56q107 0 172.5 -35.5t92.5 -88.5t27 -110q0 -86 -37.5 -154.5t-94 -106t-110.5 -37.5q-37 0 -60 28.5z" />
    <glyph glyph-name="A" unicode="A" horiz-adv-x="592" 
d="M537 293.5q8 -9.5 8 -23.5q0 -10 -9.5 -12.5t-28.5 -2.5q-36 0 -54 -1q1 -53 5 -97t14 -108q-9 -19 -31 -34t-39 -15q-10 0 -16 10t-9 35q-4 36 -7.5 94t-2.5 108q-126 -15 -236 -65q-51 -106 -89 -212q-36 -1 -45 11.5t-9 35.5q0 47 100 223.5t212.5 331.5t147.5 155
q17 0 27 -9q-14 -102 -18 -195.5t-4 -213.5q26 0 50 -3q26 -3 34 -12.5zM171 262q94 32 198 43q7 189 15 285q-108 -129 -213 -328z" />
    <glyph glyph-name="B" unicode="B" horiz-adv-x="644" 
d="M535.5 383.5q28.5 -19.5 42 -49.5t13.5 -61q0 -123 -150 -215q-52 -32 -117.5 -50t-110.5 -18q-40 0 -40 36q0 23 10.5 30.5t33.5 6.5q67 -3 132 19.5t106.5 66.5t41.5 102q0 41 -22 63.5t-65 22.5q-44 0 -103 -10.5t-119 -38.5q-43 -151 -67 -281q-18 -8 -30 -7
q-49 2 -44 59q2 21 24 105.5t51.5 177t56.5 147.5q33 68 76 68q10 0 22 -5q-38 -101 -69 -199q265 83 265 214q0 32 -24.5 50.5t-75.5 18.5q-62 0 -133 -28t-120 -79q-12 0 -21 7t-9 24q0 38 50 72.5t123.5 55.5t139.5 21q64 0 110.5 -28t46.5 -92q0 -121 -123 -188
q20 2 27 2q43 0 71.5 -19.5z" />
    <glyph glyph-name="C" unicode="C" horiz-adv-x="572" 
d="M517 151.5q5 -5.5 5 -13.5q0 -30 -46 -62t-114 -54t-128 -22q-92 0 -146.5 57t-54.5 151q0 111 64 221.5t164.5 181t203.5 70.5q44 0 69.5 -14t25.5 -55q0 -24 -20.5 -71.5t-46 -85t-41.5 -37.5q-15 0 -24.5 13.5t-9.5 31.5q0 21 13 46t43 71l23 37q-20 6 -37 6
q-83 0 -159 -60.5t-122.5 -151.5t-46.5 -173q0 -85 39.5 -121t102.5 -36q57 0 101 16.5t92 42.5q29 17 37 17t13 -5.5z" />
    <glyph glyph-name="D" unicode="D" horiz-adv-x="689" 
d="M559.5 609q90.5 -76 90.5 -220q0 -130 -68.5 -218.5t-194 -132.5t-296.5 -44q-42 0 -59 11t-17 39q0 10 15 14.5t52 3.5l21 -1q43 308 137 551q-37 -3 -62 -8.5t-54 -13.5q-21 -7 -27 -7q-18 0 -18 11q0 26 35 47t87.5 32.5t100.5 11.5q167 0 257.5 -76zM461 153
q105 77 105 215q0 117 -71.5 179t-191.5 67q-41 -130 -66.5 -256t-50.5 -295q170 13 275 90z" />
    <glyph glyph-name="E" unicode="E" horiz-adv-x="533" 
d="M530 623q0 -16 -7 -29.5t-19 -21.5q-15 17 -45.5 26t-69.5 9q-73 0 -115.5 -23t-65 -65t-41.5 -114l-15 -57q20 2 60 4q75 5 123.5 11.5t95.5 22.5q9 -7 12.5 -14.5t2.5 -19.5q-1 -34 -48 -44t-137 -12q-89 -2 -125 -11l-16 -60q-16 -62 -16 -94q0 -37 19.5 -52.5
t64.5 -15.5q39 0 84.5 7t110.5 20q55 11 62 11q20 0 19 -29q-1 -27 -55 -46t-123.5 -28.5t-112.5 -9.5q-102 0 -140 46q-18 24 -18 76q0 93 61 287q29 92 65.5 156t100.5 97q36 20 86 29.5t75 9.5q127 0 127 -66z" />
    <glyph glyph-name="F" unicode="F" horiz-adv-x="557" 
d="M422 658q-46 0 -87 -7q-33 -118 -66 -276q30 5 41 7q9 1 57 8.5t86 7.5q71 0 71 -47q0 -10 -5 -27l-2 -1q-6 2 -18 4q-23 4 -53 4q-42 0 -87 -7t-104 -19q-18 -98 -52 -294q-7 -5 -24 -9.5t-30 -4.5q-23 0 -23 28q0 17 7 55t17 83q15 70 26 128q-16 -2 -23 -2l-13 1
q-36 5 -36 44q0 10 1 15q44 5 84 12q5 26 11 51t11 51q22 89 36 167q-34 -10 -89 -32q-13 -5 -22 -5q-18 0 -29.5 12.5t-11.5 28.5q0 4 2 12q70 38 163.5 58t192.5 20q75 0 128 -17.5t53 -57.5q0 -14 -7 -29q-54 25 -119 33q-50 5 -86 5z" />
    <glyph glyph-name="G" unicode="G" horiz-adv-x="708" 
d="M670 292q-11 0 -33 4.5t-29 5.5l-58 -271q-1 -4 -5 -23t-12 -35q-6 -12 -22.5 -24t-27.5 -12q-16 0 -16 25q0 34 31 167q-47 -66 -107.5 -97.5t-126.5 -31.5q-115 0 -166 63t-51 170q0 105 62 212t166 177t222 70q60 0 100.5 -20t40.5 -53q0 -13 -8 -20t-20 -7
q-18 0 -45 12q-23 9 -43 14t-45 5q-97 0 -171.5 -52t-115.5 -134.5t-41 -168.5q0 -85 31.5 -144t104.5 -59q55 0 107.5 36.5t91 94t53.5 115.5q-6 1 -19 1q-43 0 -81 -4q-20 -2 -31 -2q-27 0 -27 18q0 23 36 34.5t93 11.5q70 0 129 -12.5t60 -43.5q2 -22 -27 -22z" />
    <glyph glyph-name="H" unicode="H" horiz-adv-x="638" 
d="M611 418.5q9 -12.5 8 -28.5q-1 -8 -5.5 -9.5t-26.5 -0.5q-6 1 -22 1q-17 0 -27 -1q-43 -163 -55 -360q-4 -2 -15.5 -3.5t-19.5 -1.5q-25 0 -35 13.5t-10 40.5q0 61 13 140.5t37 164.5q-70 -8 -144.5 -21.5t-126.5 -29.5q-42 -159 -68 -349q-7 -1 -19 -1q-30 0 -42.5 15
t-12.5 52q0 18 1 29q4 58 32.5 178t70.5 240.5t88 187.5q12 2 16 2q19 0 30 -9.5t11 -26.5t-10 -38q-46 -106 -80 -221q50 16 124 28.5t146 18.5q29 95 66 179t75 136q23 1 39.5 -10t18.5 -24q-76 -149 -115 -277q20 0 28 -1q21 -1 30 -13.5z" />
    <glyph glyph-name="I" unicode="I" horiz-adv-x="530" 
d="M559 671q0 -29 -21.5 -46.5t-57.5 -17.5q-17 0 -36 1.5t-28 1.5l-34 3q-41 -76 -73 -230.5t-37 -288.5l24 1q34 2 48 2q22 0 39 -3q27 -5 43.5 -20.5t16.5 -38.5q0 -13 -8 -31q-24 11 -50 15.5t-66 4.5q-31 0 -68 -4t-70 -9q-31 -5 -63 -8.5t-59 -3.5q-30 0 -48.5 13
t-18.5 34q0 17 13 34q38 -5 63 -5q41 0 95 9l24 3q8 122 43 275.5t79 251.5q-92 0 -130 -7q-4 -1 -12 -1q-28 0 -28 32q0 25 12.5 38.5t33.5 13.5q28 0 81 -5q76 -6 114 -6l63 -1q78 0 115 7q1 -5 1 -14z" />
    <glyph glyph-name="J" unicode="J" horiz-adv-x="532" 
d="M477.5 681q40.5 -7 40.5 -30q0 -13 -5.5 -40.5t-10.5 -50.5t-8 -35l-30 -132q-7 -35 -10 -47q-22 -110 -46.5 -185t-77 -130.5t-138.5 -55.5q-83 0 -129.5 46t-46.5 116q0 26 14 38t33 12q15 0 23.5 -12.5t20.5 -41.5q16 -42 35.5 -66t61.5 -24q47 0 80 33t57 105.5
t45 196.5l41 239q-79 1 -172 -12q-51 -7 -78 -7q-16 0 -29 8t-13 29t24 31.5t68 14.5q75 7 131 7q79 0 119.5 -7z" />
    <glyph glyph-name="K" unicode="K" horiz-adv-x="618" 
d="M633 673.5q10 -11.5 10 -24.5q0 -19 -8 -34.5t-30 -40.5q-40 -47 -112.5 -104t-161.5 -105q36 -92 66 -154.5t71.5 -112t88.5 -53.5q1 -4 1 -12q0 -24 -18.5 -38.5t-46.5 -14.5q-69 0 -131 110t-106 237l-41 -18l-1 -8q-20 -94 -64 -227l-9 -27q-10 -32 -28.5 -46.5
t-42.5 -14.5q-14 0 -22 9t-8 25q0 36 25 100q48 122 74 204t41 187q6 53 8 97q0 18 1 26q1 31 15.5 44.5t46.5 13.5q36 0 36 -40q0 -24 -17 -90q-24 -92 -44 -196q73 30 136.5 76.5t109 95t69.5 87.5q16 26 31.5 43t35.5 17q15 0 25 -11.5z" />
    <glyph glyph-name="L" unicode="L" horiz-adv-x="500" 
d="M387 70.5q44 -5.5 55 -15.5q0 -28 -13 -47.5t-43 -19.5q-12 0 -27.5 1t-23.5 2q-38 4 -67 4q-50 0 -116 -8q-40 -5 -60 -5q-51 0 -51 52q0 51 145 631q6 26 17 40.5t25 14.5q16 0 33 -22t17 -41q0 -20 -9 -52.5t-30 -98.5q-30 -90 -43 -138l-12 -42q-23 -81 -36.5 -139.5
t-22.5 -123.5q101 13 170 13q48 0 92 -5.5z" />
    <glyph glyph-name="M" unicode="M" horiz-adv-x="877" 
d="M810.5 516q-4.5 -34 -11.5 -72q-14 -76 -23 -140q-11 -80 -16.5 -156t-5.5 -125q0 -19 -5 -30.5t-22 -11.5q-24 0 -46 13t-22 51q0 35 9.5 90.5t30.5 169.5q16 80 22 116l6 38q9 59 9 73t-3.5 20.5t-12.5 6.5q-23 0 -63.5 -64t-106.5 -188q-72 -133 -113 -198t-66 -65
q-46 0 -46 106q0 52 6 170q1 20 3 59.5t3 69.5v33q0 139 -36 140q-29 1 -60.5 -64.5t-56.5 -156.5t-33 -156t-8 -122l1 -67q0 -28 -16 -37.5t-43 -9.5q-24 0 -37 14.5t-13 39.5q0 5 2 19q7 67 51.5 227t105 288t119.5 128q54 0 76.5 -71t22.5 -206q0 -90 -13 -289l38 68
q112 200 162 282t85 118t71 36q60 0 60 -89q0 -24 -4.5 -58z" />
    <glyph glyph-name="N" unicode="N" horiz-adv-x="675" 
d="M648 671q0 -66 -16.5 -166t-39.5 -195t-42 -146q-58 -158 -141 -158q-22 0 -32 9q-27 201 -51 309t-75 236q-37 -159 -66 -260.5t-63 -201.5q-38 -113 -88 -113q-35 0 -35 35q0 11 9.5 34t22.5 49q21 39 38 81q60 140 92 293q16 76 26 116t27 73t39 33q31 0 68.5 -93
t71 -236t52.5 -283q30 53 49.5 118.5t39.5 165.5q11 53 16.5 98.5t14.5 139.5l7 75q11 11 26.5 18.5t26.5 7.5q23 0 23 -39z" />
    <glyph glyph-name="O" unicode="O" horiz-adv-x="601" 
d="M83 69.5q-39 68.5 -39 158.5q0 125 48 239t133.5 184.5t193.5 70.5q78 0 123.5 -62t45.5 -159q0 -105 -50.5 -222.5t-137.5 -197.5t-191 -80q-87 0 -126 68.5zM356.5 135.5q68.5 64.5 113 163.5t44.5 194q0 64 -26 104.5t-79 40.5q-83 0 -145.5 -65.5t-95.5 -162.5
t-33 -186q0 -78 21 -115.5t64 -37.5q68 0 136.5 64.5z" />
    <glyph glyph-name="P" unicode="P" horiz-adv-x="568" 
d="M503.5 665q80.5 -56 80.5 -180q0 -85 -41 -152.5t-108.5 -105t-142.5 -37.5q-29 0 -59 4t-48 11q-20 -88 -46 -218q-3 -16 -8 -23t-21 -7q-17 0 -32 10.5t-15 28.5q0 39 33.5 178.5t90.5 361.5l28 108q-36 -8 -66 -29q-26 -20 -39 -20q-8 0 -12.5 5.5t-4.5 14.5
q0 32 35 56t85.5 37t94.5 13q115 0 195.5 -56zM390.5 277q47.5 24 78 70t30.5 109q0 93 -54 145t-138 54q-62 -190 -108 -388q41 -14 93 -14q51 0 98.5 24z" />
    <glyph glyph-name="Q" unicode="Q" horiz-adv-x="664" 
d="M627 -84q0 -28 -26 -45t-58 -17q-57 0 -95.5 30t-62.5 98q-7 19 -19 61q-80 -47 -168 -47q-60 0 -98 34t-54 82.5t-16 95.5q0 125 56.5 239t149.5 183.5t195 69.5q184 0 184 -221q0 -102 -50 -209t-133 -180q18 -54 27 -77q19 -45 45.5 -66t63.5 -21q31 0 56 11
q3 -9 3 -21zM349 105q-11 47 -19 87.5t-9 54.5q0 9 6.5 14.5t17.5 5.5q19 0 35 -29t32 -81q58 60 93.5 143.5t35.5 170.5q0 142 -104 142q-93 0 -163 -62.5t-106.5 -153.5t-36.5 -173q0 -158 98 -158q61 0 120 39z" />
    <glyph glyph-name="R" unicode="R" horiz-adv-x="631" 
d="M518.5 336.5q-72.5 -55.5 -189.5 -79.5q36 -92 96 -159.5t126 -67.5q10 0 16 1q1 -5 1 -13q0 -27 -18.5 -44t-47.5 -17q-50 0 -108.5 54t-102 133.5t-50.5 148.5q124 14 199 60t75 126q0 70 -58 112t-145 44q-53 -141 -88.5 -268.5t-82.5 -350.5q-3 -18 -17 -27t-28 -9
q-17 0 -22 11t-5 33q0 66 26.5 181.5t65.5 233t71 186.5q-56 -13 -103 -44q-29 -20 -39 -20q-8 0 -12.5 6t-4.5 16q0 36 40 64.5t97.5 44t106.5 15.5q122 0 198 -54t76 -154q0 -107 -72.5 -162.5z" />
    <glyph glyph-name="S" unicode="S" horiz-adv-x="487" 
d="M50.5 15.5q-43.5 20.5 -50.5 71.5q-2 8 1 20t9 20q68 -47 142 -47q81 0 136 31.5t55 89.5q0 35 -16.5 59.5t-39.5 40.5t-66 39q-46 24 -74 43.5t-47.5 51t-19.5 77.5q0 57 32.5 99.5t86.5 65.5t119 23q81 0 136 -31.5t55 -85.5q0 -33 -36 -33q-9 0 -16.5 5t-18.5 15
q-26 23 -56 36.5t-84 13.5q-59 0 -99.5 -26.5t-40.5 -70.5q0 -33 25 -56t79 -55q50 -30 80.5 -53.5t52.5 -60t22 -86.5q0 -62 -34.5 -111.5t-96.5 -77.5t-142 -28q-50 0 -93.5 20.5z" />
    <glyph glyph-name="T" unicode="T" horiz-adv-x="504" 
d="M460 693q57 -1 103.5 -13.5t46.5 -34.5q0 -15 -8.5 -21t-28.5 -6q-13 0 -49 4q-63 7 -128 8l-30 -114q-4 -15 -28 -108.5t-42 -182.5q-25 -121 -30 -209q-1 -12 -13.5 -16.5t-40.5 -4.5q-38 0 -38 40q0 31 7.5 66.5t23.5 93.5l17 64l25 94q23 80 38 142.5t26 132.5
q-51 -4 -89.5 -13.5t-86.5 -24.5q-28 -11 -39 -11q-19 0 -26.5 9t-7.5 25q0 43 47 55q104 26 257 26h32q5 0 62 -1z" />
    <glyph glyph-name="U" unicode="U" horiz-adv-x="620" 
d="M114 39.5q-45 54.5 -45 158.5q0 62 18 154t47 182t60 146q11 5 24 5q38 0 38 -51q1 -17 -4.5 -37t-19.5 -61l-17 -51q-19 -52 -36 -131t-17 -139q0 -71 25 -110t73 -39q80 0 131.5 73t81 184.5t57.5 279.5q2 10 7.5 47.5t20 49t42.5 12.5q17 0 25 -8
q-34 -232 -76.5 -384.5t-116 -243.5t-188.5 -91q-85 0 -130 54.5z" />
    <glyph glyph-name="V" unicode="V" horiz-adv-x="547" 
d="M606 670q0 -50 -63.5 -183.5t-154 -272.5t-167.5 -210q-4 -1 -12 -1q-36 0 -54.5 49t-18.5 142q0 27 1 42q2 68 2 114q0 214 -23 330q4 14 17 23t28 9q40 0 51 -34q10 -32 12 -88q1 -24 1 -72q0 -59 -4 -161q-4 -88 -4 -125q0 -85 13 -131q200 240 268 514
q12 47 28.5 65.5t51.5 18.5q30 0 28 -29z" />
    <glyph glyph-name="W" unicode="W" horiz-adv-x="851" 
d="M857 683q0 -55 -16 -142t-37 -166q-35 -130 -96.5 -246.5t-153.5 -116.5q-68 0 -95.5 62.5t-27.5 147.5q0 18 2 44q-27 -68 -74.5 -130.5t-101.5 -101t-99 -38.5q-116 0 -116 162q0 69 24.5 168.5t66 201.5t88.5 177q11 15 20.5 24.5t21.5 9.5t24 -19t12 -35
q0 -12 -9 -32t-34 -68q-45 -83 -65 -136q-24 -66 -42.5 -136t-18.5 -121q0 -55 9 -86.5t44 -31.5q50 0 115.5 88.5t140.5 269.5l15 38q21 52 35.5 74t38.5 22q9 0 12.5 -4.5t3.5 -14.5q0 -14 -10 -57l-13 -65q-13 -70 -13 -141q0 -76 15 -127.5t44 -51.5q40 0 83 60t73 164
q15 52 23 99.5t19 134.5l10 78q3 24 7.5 35.5t17.5 25.5q7 6 20.5 11t20.5 5q16 0 16 -35z" />
    <glyph glyph-name="X" unicode="X" horiz-adv-x="643" 
d="M570 553q-77 -55 -131.5 -106t-54.5 -75q0 -15 16.5 -48t51.5 -96q42 -76 63.5 -120.5t22.5 -67.5q0 -18 -13.5 -29.5t-28.5 -11.5q-27 0 -54 47t-65 136q-24 59 -40 89t-27 30q-15 0 -54.5 -42t-86.5 -107t-82 -128q-16 -28 -26 -35.5t-25 -7.5t-26 10t-11 26
q0 29 18.5 62t38 56t56.5 64q9 10 41 42q56 57 88 93.5t32 52.5q0 26 -12.5 57.5t-37.5 81.5q-24 49 -35 76.5t-11 49.5t12 35t32 13q7 0 21 -4l106 -259q83 102 176.5 180t145.5 78q21 0 30.5 -7.5t9.5 -24.5q0 -13 -2 -21q-61 -34 -138 -89z" />
    <glyph glyph-name="Y" unicode="Y" horiz-adv-x="585" 
d="M592 703.5q12 -12.5 8 -30.5l-62 -277q-30 -134 -62.5 -219.5t-95.5 -141t-168 -55.5q-40 0 -78.5 12.5t-63 33t-24.5 42.5q0 23 12.5 34t32.5 11q11 0 21 -6t24 -18q24 -20 47 -31t60 -11q65 0 112 64.5t76.5 157.5t55.5 216q-65 -135 -125.5 -184.5t-121.5 -49.5
t-97 50.5t-36 139.5q0 61 15.5 123.5t39.5 110.5q16 33 36.5 47t38.5 14q26 0 37 -17q-39 -56 -58 -129t-19 -136q0 -136 63 -136q46 0 94 54.5t87.5 129t62.5 138.5l17 48q5 14 15.5 21t23.5 7q20 0 32 -12.5z" />
    <glyph glyph-name="Z" unicode="Z" horiz-adv-x="607" 
d="M127 90q87 -7 125 -7l38 1q70 3 107.5 9t70.5 15q28 7 43 7q17 0 24.5 -9t7.5 -22q0 -43 -88 -63t-191 -20q-100 0 -169 15.5t-69 53.5q0 52 178 222.5t342 307.5q-44 12 -84 16t-98 4q-70 0 -125 -18t-85 -57q-19 3 -29.5 14.5t-10.5 25.5q0 51 76 78t175 27
q253 0 253 -82q0 -30 -38 -70t-126 -116q-89 -78 -108 -96q-157 -144 -219 -236z" />
    <glyph glyph-name="bracketleft" unicode="[" horiz-adv-x="384" 
d="M13.5 -139q-10.5 14 -10.5 37q0 12 1 18l124 749q6 43 81 43q12 0 48 -3q41 -3 61 -3q13 0 61 4q5 1 12.5 2t15.5 1q18 0 19 -17q0 -28 -27 -42t-61 -14q-13 0 -41 4q-26 4 -37 4q-24 0 -39.5 -12.5t-23.5 -45.5q-40 -185 -75 -378t-35 -265q0 -26 41 -26q45 0 134 29
q15 5 21 5q13 0 16 -14q2 -12 2 -16q0 -23 -20 -34t-74 -25q-29 -8 -66.5 -13.5t-68.5 -5.5q-11 0 -29 2q-19 2 -29.5 16z" />
    <glyph glyph-name="backslash" unicode="\" horiz-adv-x="380" 
d="M363 -214q-6 -5 -19 -5q-15 0 -30.5 6.5t-19.5 15.5q-89 203 -147 417.5t-87 451.5q3 8 23 12.5t41 4.5q20 0 27 -4q8 -185 70.5 -431.5t143.5 -451.5q4 -11 -2 -16z" />
    <glyph glyph-name="bracketright" unicode="]" horiz-adv-x="380" 
d="M16 -136.5q-43 13.5 -43 43.5q0 16 6 22.5t25 6.5q22 0 63 -7q9 -1 27 -4.5t31 -3.5q25 0 42.5 14.5t25.5 50.5q39 169 75.5 370t36.5 273q0 15 -13.5 20.5t-43.5 5.5q-60 0 -118 -19q-4 -1 -11.5 -4t-12.5 -3q-10 0 -13 12q-2 12 -2 16q0 16 10.5 24.5t33 15t50.5 13.5
q80 19 136 19q12 0 28 -2q20 -2 30.5 -15.5t10.5 -36.5q0 -5 -2 -19l-116 -694q-10 -60 -46.5 -86t-83.5 -26q-83 0 -126 13.5z" />
    <glyph glyph-name="asciicircum" unicode="^" horiz-adv-x="443" 
d="M410.5 351q-8.5 -21 -25.5 -21q-40 0 -48 74q-16 143 -44 205q-47 -56 -82 -104t-66 -101q-35 -56 -61 -56q-18 0 -21.5 10.5t-2.5 25.5q1 21 14.5 42.5t35.5 49.5q34 43 72 97l14 20l20 29q38 58 72 101q14 18 24 18q9 0 23 -25q12 -25 20.5 -52t24.5 -87l9 -35
q18 -69 27 -148q3 -22 -5.5 -43z" />
    <glyph glyph-name="underscore" unicode="_" horiz-adv-x="651" 
d="M-0.5 -112.5q-27.5 13.5 -27.5 48.5q0 21 9 34q48 -12 94.5 -15t123.5 -3q202 0 370 19q23 -14 23 -40q0 -20 -25 -32.5t-79 -12.5q-20 0 -31 1q-48 4 -102 4q-66 0 -155 -7q-94 -6 -133 -8q-40 -2 -67.5 11.5z" />
    <glyph glyph-name="grave" unicode="`" 
d="M95.5 605.5q-42.5 20.5 -73.5 50.5t-31 59q0 20 18.5 33t44.5 11q22 -52 58 -88.5t95 -61.5q0 -9 -11 -16.5t-29 -7.5q-29 0 -71.5 20.5z" />
    <glyph glyph-name="a" unicode="a" horiz-adv-x="552" 
d="M433.5 270q-24.5 -86 -24.5 -135q-2 -44 21 -44q9 0 23 7t19 7q12 0 12 -22q0 -18 -13.5 -36t-35.5 -29.5t-47 -11.5q-29 0 -45 22t-16 67q0 20 7 64q-41 -71 -100.5 -114t-128.5 -43q-48 0 -77 30.5t-29 77.5q0 92 52 183t129.5 149t147.5 58q59 0 53 -54q-17 3 -29 3
q-11 0 -31 -4q-59 -12 -111.5 -61.5t-84 -114.5t-31.5 -120q0 -78 48 -78q71 0 135 90.5t107 202.5q22 56 39.5 89.5t37.5 33.5q15 0 25 -10.5t10 -25.5q0 -11 -4 -19q-34 -76 -58.5 -162z" />
    <glyph glyph-name="b" unicode="b" horiz-adv-x="501" 
d="M447 483q31 -27 31 -89q0 -109 -51.5 -199t-127.5 -141.5t-143 -51.5q-54 0 -83 20.5t-39 56.5t-10 94q0 66 26 176t60 211q17 53 40.5 107t46.5 68q8 6 14.5 8t17.5 2q24 0 24 -22q0 -13 -11.5 -48t-24.5 -71l-19 -53l-9 -27q-34 -93 -50 -153q45 60 112.5 99.5
t128.5 39.5q36 0 67 -27zM264 104q53 43 90.5 115t37.5 155q0 35 -9.5 53t-35.5 18q-45 0 -102 -44.5t-97 -112.5t-40 -136q0 -45 12 -68t50 -23q41 0 94 43z" />
    <glyph glyph-name="c" unicode="c" horiz-adv-x="438" 
d="M34.5 38.5q-37.5 42.5 -37.5 114.5q0 97 53.5 176t131.5 124t147 45q48 0 70 -17.5t22 -46.5q0 -38 -39 -54q-23 38 -79 38q-51 0 -103.5 -31t-87.5 -87t-35 -128q0 -53 24.5 -81t68.5 -28q51 0 106 30.5t89 90.5q21 -1 21 -29q0 -46 -33.5 -82.5t-87 -56.5t-110.5 -20
q-83 0 -120.5 42.5z" />
    <glyph glyph-name="d" unicode="d" horiz-adv-x="556" 
d="M566.5 681q-9.5 -31 -20.5 -61l-16 -48q-32 -101 -58 -210.5t-26 -178.5q0 -100 43 -129q-2 -15 -18 -28t-35 -13q-37 0 -58 44.5t-21 97.5q-50 -86 -108.5 -118t-120.5 -32q-60 0 -92.5 34.5t-32.5 98.5q0 88 54 174t139 141t171 55q31 0 56 -13q16 68 21 85
q16 57 32 99.5t39 57.5q10 6 17.5 8t19.5 2q24 0 24 -22q0 -13 -9.5 -44zM410 431q-22 13 -52 13q-70 0 -130.5 -43.5t-96.5 -108.5t-36 -127q0 -46 17.5 -67.5t53.5 -21.5q34 0 77 25.5t84 87.5t65 162z" />
    <glyph glyph-name="e" unicode="e" horiz-adv-x="484" 
d="M417.5 167q4.5 -8 2.5 -20q-6 -33 -40.5 -67.5t-90.5 -57t-122 -22.5q-37 0 -74.5 15t-64 52t-26.5 99q0 93 48 171t124.5 123t156.5 45q52 0 82.5 -27t30.5 -69q0 -60 -45 -109t-118.5 -77.5t-153.5 -28.5q-19 0 -29 1v-18q0 -49 32.5 -78.5t75.5 -29.5q57 0 104 25.5
t94 82.5q9 -2 13.5 -10zM222 420q-43 -26 -74.5 -72.5t-43.5 -106.5q69 -3 127.5 21.5t92.5 62.5t34 73q0 48 -47 48q-46 0 -89 -26z" />
    <glyph glyph-name="f" unicode="f" horiz-adv-x="368" 
d="M469 659.5q-10 -10.5 -22 -10.5q-33 36 -79 36q-32 0 -53.5 -17.5t-37 -56t-29.5 -106.5q36 3 65 3q47 0 70 -10.5t23 -32.5q0 -9 -5 -24q-26 5 -66 5q-48 0 -100 -7q-2 -14 -8 -52l-40 -260q-8 -56 -21 -90t-41 -35q-41 -2 -41 41q0 5 2 19l51 300l12 65q-37 -5 -77 -14
q-28 -7 -40 -7q-25 0 -25 29l1 10q3 23 47.5 34.5t108.5 17.5q33 132 84 192t137 60q37 0 65.5 -16t28.5 -48q0 -15 -10 -25.5z" />
    <glyph glyph-name="g" unicode="g" horiz-adv-x="516" 
d="M451 504q9 0 13 -0.5t0 0.5q7 -2 10.5 -7.5t3.5 -16.5q0 -3 -2 -21q-13 -98 -36.5 -216t-48.5 -217q-31 -125 -99.5 -189t-165.5 -64q-60 0 -105.5 21.5t-48.5 55.5q0 13 6.5 22.5t20.5 9.5q10 0 19 -3.5t23 -10.5q24 -12 46 -18.5t56 -6.5q66 0 108 55.5t63.5 129.5
t49.5 204q-33 -87 -92 -138t-133 -51q-61 0 -98 38t-37 103q0 82 41.5 162.5t109.5 131.5t143 51q59 0 62 -43q-6 1 -18 1q-58 0 -117.5 -43.5t-98.5 -110.5t-39 -132q0 -41 21.5 -64.5t61.5 -23.5q48 0 89.5 43.5t70.5 105t44 118.5q2 7 19 48q19 42 19 52q0 5 -4 5
q-3 0 19 15q14 4 24 4z" />
    <glyph glyph-name="h" unicode="h" horiz-adv-x="551" 
d="M489 54q0 -22 -18.5 -37t-44.5 -15q-84 0 -84 125q0 42 5.5 79.5t15.5 92.5q12 57 12 80q0 14 -7 14q-22 0 -73 -49t-92 -112q-52 -81 -80 -132t-46 -101q-25 2 -36 17.5t-11 54.5q0 106 30.5 256t96.5 323q21 55 41.5 79.5t51.5 24.5q12 0 12 -16t-7 -37
q-92 -244 -134 -499q40 70 101.5 143t121.5 121t95 48q32 0 32 -43q0 -33 -24 -163q-25 -127 -25 -164q0 -63 36 -63q5 0 12 2t10 5q9 -13 9 -34z" />
    <glyph glyph-name="i" unicode="i" horiz-adv-x="238" 
d="M157.5 601q-6.5 11 -6.5 30q0 57 15.5 81.5t47.5 24.5q18 0 28 -10.5t9 -26.5q0 -20 -9.5 -46t-26.5 -45t-39 -19q-12 0 -18.5 11zM25 59q0 34 38 196.5t52 197.5q7 18 20 28.5t29 10.5t22 -8t6 -23q0 -21 -6.5 -49t-19.5 -70q-14 -51 -22 -82.5t-11 -63.5q-7 -60 -9 -96
l-4 -39q-2 -22 -17.5 -34t-41.5 -12q-36 0 -36 44z" />
    <glyph glyph-name="j" unicode="j" horiz-adv-x="253" 
d="M142 613q-7 12 -8 33q0 38 17.5 72t46.5 34q19 1 30 -8t11 -25q0 -19 -13.5 -47t-32.5 -49t-32 -21q-12 -1 -19 11zM-172.5 -207.5q-32.5 18.5 -33.5 51.5q0 19 8 30t22 12q8 0 14.5 -3.5t10.5 -6.5t6 -4q15 -12 28.5 -18t35.5 -6q52 0 82.5 66.5t57.5 181.5
q17 68 30.5 171t13.5 162q0 31 12 47t32 16q49 0 49 -58q0 -46 -31 -203l-4 -21q-22 -116 -46.5 -203t-77.5 -160t-136 -73q-41 0 -73.5 18.5z" />
    <glyph glyph-name="k" unicode="k" horiz-adv-x="498" 
d="M494 501.5q6 -7.5 6 -21.5q-1 -54 -35 -73q-114 -62 -198 -128q32 -102 64 -153t76 -51q24 0 38 13q16 -14 16 -35q0 -25 -21.5 -39t-52.5 -14q-63 0 -111 68t-68 156q-54 -57 -100 -136q-4 -7 -15 -30t-25.5 -37t-33.5 -14q-37 0 -37 34q0 11 5 31q60 216 97 362l6 23
q19 77 28 124t14 111q2 22 7.5 34t22.5 12q26 0 38 -17.5t12 -42.5q0 -9 -1 -13q-11 -92 -43.5 -222t-80.5 -266q59 74 140.5 151.5t149 129t85.5 51.5q11 0 17 -7.5z" />
    <glyph glyph-name="l" unicode="l" horiz-adv-x="272" 
d="M62.5 38.5q-22.5 31.5 -22.5 85.5q0 90 27 215t65 231q22 60 42.5 105.5t43.5 59.5q10 6 17.5 8t19.5 2q24 0 24 -22q0 -13 -11 -40t-32 -72q-20 -42 -23 -50q-35 -88 -62.5 -205t-27.5 -195q0 -25 7.5 -44.5t28.5 -19.5q10 0 23 5q3 1 10.5 3t13.5 2q13 0 13 -18
q0 -30 -26.5 -56t-64.5 -26q-43 0 -65.5 31.5z" />
    <glyph glyph-name="m" unicode="m" horiz-adv-x="863" 
d="M780.5 97.5q11.5 -18.5 32.5 -26.5q0 -32 -19 -46t-40 -14q-38 0 -54 34t-16 84q0 28 4 86q3 38 3 60q0 28 -5.5 44t-20.5 16q-22 0 -54.5 -38.5t-87.5 -115.5q-53 -75 -84 -112t-52 -37q-39 0 -39 49q0 21 5.5 48.5t15.5 71.5q13 56 20 96t8 77q0 10 -3.5 21.5
t-14.5 11.5q-23 0 -80.5 -69t-117 -165.5t-89.5 -171.5q-33 -1 -46.5 18t-13.5 61q0 26 5 69q13 99 42.5 195t58.5 152q48 1 48 -43q0 -20 -11 -58q-19 -58 -52 -211q39 73 100.5 153t121 133.5t93.5 53.5q23 0 34 -37t11 -78q0 -48 -10 -112t-29 -132q79 118 148.5 194.5
t107.5 76.5q29 0 44.5 -26t19.5 -58q6 -46 6 -113l-1 -89q0 -34 11.5 -52.5z" />
    <glyph glyph-name="n" unicode="n" horiz-adv-x="561" 
d="M490 64q0 -19 -13 -37.5t-32 -28.5q-16 -7 -26 -7q-37 0 -54 31t-17 91q0 33 7 94q6 53 14 91.5t9 44.5q7 33 7 41q0 5 -1 7t-5 2q-22 0 -72.5 -48.5t-96.5 -112.5q-49 -69 -73.5 -117.5t-52.5 -119.5q-29 -2 -41.5 20t-12.5 71q0 47 11 130q8 52 27.5 118t51 116
t70.5 50q6 0 13 -2.5t9 -6.5q-38 -88 -57 -153t-32 -142q41 66 105 141t125 125.5t96 50.5q20 0 26.5 -14t6.5 -39q0 -19 -16 -95q-19 -98 -25 -141q-9 -61 -9 -97q0 -50 20 -50q4 0 10 1t14 1q14 0 14 -15z" />
    <glyph glyph-name="o" unicode="o" horiz-adv-x="487" 
d="M42.5 48.5q-36.5 40.5 -36.5 109.5q0 86 40.5 168t109 133t147.5 51q70 0 110.5 -43.5t40.5 -119.5q0 -80 -43 -159t-115 -129.5t-153 -50.5q-64 0 -100.5 40.5zM270 114.5q52 42.5 84 105t32 116.5q0 43 -21.5 71t-63.5 28q-62 0 -109 -45.5t-72.5 -110t-25.5 -117.5
q0 -90 67 -90q57 0 109 42.5z" />
    <glyph glyph-name="p" unicode="p" horiz-adv-x="542" 
d="M492 464.5q27 -33.5 27 -75.5q0 -99 -53.5 -173.5t-127 -114.5t-128.5 -40q-29 0 -41 7.5t-12 24.5q0 18 9 23t31 5q65 0 118.5 40t84 98.5t30.5 109.5q0 59 -55 59q-34 0 -77.5 -21.5t-86 -59t-70.5 -83.5l-54 -247q-15 -68 -25 -120q-12 -61 -18.5 -85t-13.5 -35
q-8 -9 -22 -13t-27 -4q-23 0 -23 35q0 22 14 78q51 201 83 391q4 27 14 83q11 57 21 123q1 15 10 23.5t22 9.5q18 0 28.5 -18.5t10.5 -48.5q0 -27 -6 -89q56 77 126 114t125 37q59 0 86 -33.5z" />
    <glyph glyph-name="q" unicode="q" horiz-adv-x="495" 
d="M456 -139q0 -15 -30.5 -43t-71 -49.5t-70.5 -21.5q-20 0 -31 13.5t-11 38.5q0 21 8 75.5t24 118.5q24 98 44 199q-36 -77 -90.5 -119t-120.5 -42q-47 0 -73.5 37.5t-26.5 101.5q0 74 41 142.5t101.5 115.5t116.5 59q27 5 43 5q53 0 53 -36q0 -7 -1 -11q-24 2 -44 -1.5
t-45 -13.5q-57 -25 -97.5 -66.5t-61 -91t-20.5 -97.5q0 -31 12 -48.5t32 -17.5q65 0 116 75t92 181l16.5 44t29 57.5t30.5 21.5q30 0 30 -38q0 -11 -1 -17q-7 -39 -38 -159q-19 -73 -44.5 -204.5t-38.5 -225.5q41 18 64 26.5t44 8.5q19 0 19 -18z" />
    <glyph glyph-name="r" unicode="r" horiz-adv-x="346" 
d="M377 485q13 -13 13 -33q0 -21 -14 -36t-30 -15q-24 8 -43 8q-55 0 -98 -55q-36 -46 -60.5 -128.5t-43.5 -208.5l-11 -1q-29 0 -44 20t-15 53q0 52 28 175t59 228q12 3 21 3q36 0 36 -49q0 -32 -12 -79q34 60 82 95.5t92 35.5q27 0 40 -13z" />
    <glyph glyph-name="s" unicode="s" horiz-adv-x="431" 
d="M51 39.5q-41 25.5 -41 62.5q0 15 5.5 26.5t14.5 14.5q66 -57 134 -57q45 0 75.5 17.5t30.5 52.5q0 26 -24 42t-72 34q-44 17 -71 31.5t-46 39t-19 61.5q0 65 52.5 101t134.5 36q50 0 94.5 -15t72 -42t27.5 -62q0 -22 -14 -35.5t-33 -13.5q-7 0 -10 1q-6 48 -46.5 74.5
t-96.5 26.5q-37 0 -62 -19.5t-25 -46.5q0 -29 24.5 -48.5t74.5 -42.5q39 -18 63 -32.5t41 -36.5t17 -53q0 -48 -29.5 -80t-73.5 -47t-88 -15q-69 0 -110 25.5z" />
    <glyph glyph-name="t" unicode="t" horiz-adv-x="456" 
d="M349 441q-55 0 -115 -5q-54 -212 -54 -296q0 -33 10 -53t48 -20q62 0 142 77q13 -2 21.5 -9.5t8.5 -17.5q0 -5 -7 -16q-34 -52 -92 -80t-111 -28q-106 0 -106 128q0 68 54 304q-17 -3 -51 -11q-8 -2 -35.5 -8t-40.5 -6q-15 0 -20 10t-4 28q1 31 47.5 44.5t122.5 19.5
q38 153 62 211q4 3 14 3q29 0 39 -17t10 -35q0 -10 -6 -31.5t-7 -27.5q-7 -23 -8 -28l-19 -71q20 1 56 1q86 0 122 -11t36 -39q0 -9 -5 -24q-41 8 -112 8z" />
    <glyph glyph-name="u" unicode="u" horiz-adv-x="548" 
d="M484 415q-19 -55 -31 -107.5t-15 -130.5q-1 -41 6 -71t26 -59q-7 -13 -21 -23t-28 -10q-34 0 -52.5 30t-18.5 89q0 52 17 134q-125 -256 -254 -256q-39 0 -60 29.5t-21 86.5t19 132t45.5 143.5t47.5 104.5q55 -3 55 -46q0 -17 -24 -77q-26 -68 -40.5 -119t-14.5 -101
q0 -32 8 -51.5t24 -19.5q55 0 116 100.5t123 237.5l16 34q8 17 21 30.5t28 12.5q9 0 19 -9.5t16.5 -22t5.5 -18.5q-2 -12 -13 -43z" />
    <glyph glyph-name="v" unicode="v" horiz-adv-x="436" 
d="M437 466q0 -33 -65.5 -144.5t-140 -207t-104.5 -95.5q-14 0 -21 9.5t-8 33.5q-4 212 -72 439q15 19 41 19q41 0 69 -102t38 -288q96 115 172 315q1 3 5.5 17.5t17 22.5t34.5 8q34 0 34 -27z" />
    <glyph glyph-name="w" unicode="w" horiz-adv-x="682" 
d="M650 497q10 -7 10 -31q0 -36 -11 -96.5t-33 -120.5q-35 -98 -94.5 -167.5t-115.5 -69.5q-19 0 -37 17t-29.5 50t-11.5 78q0 29 3 60q-39 -90 -100.5 -158t-118.5 -68q-35 0 -59 34t-24 111q0 68 24 157.5t62.5 153t80.5 63.5q14 0 22.5 -5t8.5 -15q0 -7 -5 -16.5
t-11.5 -18.5t-11.5 -18q-40 -62 -63 -135.5t-23 -146.5q0 -45 8 -64t23 -19q36 0 90 83.5t101 201.5q11 26 14 39q11 31 18.5 40.5t24.5 9.5q32 0 32 -30q0 -4 -3 -25q-1 -8 -12 -75t-11 -125q0 -96 43 -96q28 0 60 50t52 116q20 64 25.5 105t5.5 100q0 19 11.5 28.5
t30.5 9.5q14 0 24 -7z" />
    <glyph glyph-name="x" unicode="x" horiz-adv-x="516" 
d="M-8 -22.5q-7 6.5 -7 16.5q0 36 37 85.5t106 124.5q34 35 51 56t17 29q0 13 -11 24.5t-37 32.5q-35 26 -54 49t-19 53q0 15 9 35t27 20q10 0 28.5 -22t51.5 -68q28 -40 44.5 -60t24.5 -20q7 0 22.5 14.5t46.5 46.5q50 53 85 83.5t58 30.5q17 0 30.5 -15t13.5 -33
q0 -23 -24 -42t-74 -49q-47 -27 -70.5 -45t-25.5 -39q-1 -10 10 -29.5t36 -60.5q30 -49 43.5 -74t13.5 -41q0 -14 -12.5 -26t-26.5 -12q-11 0 -17 7t-9.5 14.5t-4.5 9.5q-18 43 -52 99.5t-54 56.5t-69 -60t-122 -165q-22 -33 -50 -33q-9 0 -16 6.5z" />
    <glyph glyph-name="y" unicode="y" horiz-adv-x="568" 
d="M494 473q11 -24 11 -47q0 -36 -12.5 -113.5t-35.5 -176.5q-26 -114 -60.5 -191.5t-97 -125.5t-161.5 -48q-41 0 -86 11.5t-75.5 31.5t-30.5 45q0 14 9 24t23 10q13 0 27.5 -5t37.5 -16q30 -14 55 -22.5t51 -8.5q74 0 122 50t75.5 130t49.5 197q-33 -59 -80 -110
t-95.5 -81t-87.5 -30q-43 0 -64.5 41t-21.5 109q0 69 20 155.5t52 146.5t66 60q38 0 36 -32q-1 -13 -12 -38q-34 -77 -58 -165.5t-24 -153.5q0 -50 24 -50q46 0 103.5 57.5t108.5 151t80 195.5q6 23 24 23q16 0 27 -24z" />
    <glyph glyph-name="z" unicode="z" horiz-adv-x="502" 
d="M432 143q21 0 21 -25q0 -12 -4 -28q-8 -32 -115 -47t-204 -15q-124 0 -124 46q0 21 28.5 48.5t108.5 91.5l60 49q64 53 100 85.5t76 74.5q-44 9 -92 9q-90 0 -177 -32q-20 4 -32 20.5t-12 36.5q0 28 55.5 38t114.5 10q110 0 164 -17.5t54 -43.5q0 -43 -98 -134t-246 -202
q19 -2 51 -2h32q72 0 201 30q26 7 38 7z" />
    <glyph glyph-name="braceleft" unicode="{" horiz-adv-x="397" 
d="M192 599.5q-25 -18.5 -25 -53.5q0 -15 12 -27.5t35 -29.5q31 -23 47.5 -42t16.5 -46q0 -32 -30.5 -62.5t-84.5 -69.5q41 -26 64 -55.5t23 -59.5q0 -37 -23 -65t-64 -60q-31 -26 -44.5 -41t-13.5 -32q0 -14 12 -30t35 -27.5t54 -11.5q33 0 62 4q1 -3 1 -9q0 -27 -28 -35.5
t-71 -8.5q-30 0 -64.5 14.5t-58.5 40t-24 58.5q0 35 20.5 59t61.5 55q33 24 50 42.5t17 42.5q0 29 -31.5 49.5t-67.5 24.5q-5 7 -5 15q0 11 12 24t38 34q30 27 31 28q53 43 53 69q0 9 -9 18.5t-28 23.5q-34 27 -53 50.5t-19 57.5q0 45 43 84.5t106 63.5t117 24
q15 0 28.5 -6.5t13.5 -17.5q0 -17 -33.5 -31.5t-96.5 -29.5q-54 -13 -79 -31.5z" />
    <glyph glyph-name="bar" unicode="|" horiz-adv-x="273" 
d="M16 -159q0 60 15.5 156t37.5 192q29 122 54.5 206t79.5 235l9 24q19 56 30 77t25 19q18 -3 28 -14t10 -27l-1 -8q-3 -23 -14 -55.5t-13 -36.5l-23 -65q-46 -130 -72 -214.5t-39 -171.5q-15 -72 -28.5 -163t-19.5 -155q-4 -25 -8 -38.5t-15 -22.5t-33 -9q-23 0 -23 71z
" />
    <glyph glyph-name="braceright" unicode="}" horiz-adv-x="396" 
d="M355 300q0 -13 -13.5 -24t-44.5 -30q-43 -26 -65.5 -46.5t-22.5 -48.5q0 -10 5 -21t15 -29q16 -28 24.5 -51t8.5 -50q0 -70 -45.5 -118t-139.5 -48q-77 0 -77 52q52 -3 97.5 11t73 44t27.5 71q0 16 -7 33t-21 40q-15 24 -23 43t-8 38t17 41t43 39q-41 1 -72.5 25.5
t-31.5 63.5q0 43 33 78t94 79q46 34 67.5 55.5t21.5 42.5q0 27 -52 43t-106 14q-8 15 -8 28q0 22 16.5 30t44.5 8q42 0 83.5 -15.5t68 -41.5t26.5 -58q0 -45 -35.5 -83t-100.5 -87q-40 -29 -59 -47t-19 -33q0 -23 18.5 -35t52.5 -12q48 0 102 21q12 -10 12 -22z" />
    <glyph glyph-name="asciitilde" unicode="~" 
d="M337 284q-26 17 -55 48q-25 25 -40 36t-36 11q-23 0 -37 -15t-14 -36q0 -27 -8 -41.5t-38 -14.5q-14 0 -23 12.5t-9 31.5q0 63 39 96t94 33q34 0 57.5 -14t51.5 -41q25 -24 44 -36t45 -12q30 0 48 19.5t33 50.5q5 10 9.5 17t7.5 7q12 0 20 -9.5t8 -25.5
q0 -59 -38.5 -96.5t-94.5 -37.5q-38 0 -64 17z" />
    <glyph glyph-name="uni00A0" unicode="&#xa0;" horiz-adv-x="280" 
 />
    <glyph glyph-name="exclamdown" unicode="&#xa1;" horiz-adv-x="237" 
d="M189.5 490q15.5 -20 15.5 -42t-18.5 -38t-41.5 -16q-22 0 -38 15t-16 37q0 26 16 45t38 19q29 0 44.5 -20zM137.5 259.5q11.5 -18.5 11.5 -60.5q0 -85 -31.5 -195.5t-79.5 -212.5q-27 -4 -45 13t-18 44q0 14 6 30.5t20 47.5q33 76 45 111q21 59 33 114t17 124
q30 3 41.5 -15.5z" />
    <glyph glyph-name="cent" unicode="&#xa2;" horiz-adv-x="502" 
d="M485 272q0 -42 -31 -79.5t-81.5 -63t-107.5 -33.5q-9 -41 -28 -124q-10 -41 -28 -41q-9 0 -12 5t-3 16q0 53 15 141q-80 4 -116.5 49t-36.5 118q0 78 32 146.5t89.5 115.5t130.5 63q13 78 28 108.5t38 30.5q10 0 25 -5l-26 -126h5q112 0 112 -62q0 -38 -39 -54
q-27 36 -95 38l-17 -81q-17 -73 -18 -84q-3 -21 -31 -142l-9 -43q53 11 103 46.5t80 89.5q21 -1 21 -29zM158 197q22 -30 62 -36q12 66 34 176q11 58 28 119q8 27 13 53q-77 -18 -118 -81t-41 -149q0 -52 22 -82z" />
    <glyph glyph-name="sterling" unicode="&#xa3;" horiz-adv-x="529" 
d="M504.5 656q40.5 -25 40.5 -61q0 -23 -9 -34t-25 -17q-17 40 -47 57.5t-64 17.5q-81 0 -111.5 -51.5t-30.5 -139.5q0 -56 1 -81l150 3q20 1 30 -5t10 -17q0 -19 -15.5 -28t-40.5 -7q-42 3 -83 3q-34 0 -51 -2q-4 -113 -59 -185q28 -1 49.5 -8.5t48.5 -21.5
q23 -11 39.5 -17t34.5 -6q24 0 37 10.5t24 29.5q8 12 13 17t12 5q12 1 20 -6.5t8 -23.5q0 -50 -34.5 -77t-85.5 -27q-29 0 -53 7t-61 22q-33 14 -56 20.5t-49 6.5q-15 0 -29 -5t-38 -16q-14 -7 -28 -12.5t-24 -5.5q-13 0 -19.5 10.5t-6.5 25.5t5 26.5t13 15.5q18 7 46 10
q25 3 42 9q36 13 51.5 59.5t17.5 127.5q-15 0 -57 -4q-40 -4 -55 -4q-6 0 -9.5 8.5t-3.5 18.5q0 11 5.5 20.5t15.5 12.5q23 5 84 5q10 1 23 1q-1 9 -1 35q0 56 4 100q6 60 36 106t78 71.5t106 25.5q61 0 101.5 -25z" />
    <glyph glyph-name="currency" unicode="&#xa4;" 
d="M641 589q0 -11 -12 -17q-69 -39 -114 -77q18 -30 18 -71q0 -48 -20.5 -96t-55.5 -88q71 -89 71 -130q0 -29 -37 -43q-29 56 -88 124q-72 -51 -149 -51q-52 0 -88 18q-79 -75 -115 -128q-33 16 -33 39q0 21 23.5 54.5t74.5 84.5q-17 32 -17 79q0 59 29 113.5t78 94.5
q-78 74 -101 102q-7 8 -7 18q0 13 17 25q9 6 19 6q23 0 50 -25.5t64 -69.5q-1 1 16 -19q58 29 119 29q48 0 84 -19q42 37 76 59t58 22q14 0 25 -9q15 -12 15 -25zM356.5 228q46.5 30 75 78.5t28.5 99.5q0 44 -21.5 68t-73.5 24q-53 0 -96 -31.5t-67.5 -80t-24.5 -94.5
q0 -32 4.5 -51t23 -31t57.5 -12q48 0 94.5 30z" />
    <glyph glyph-name="yen" unicode="&#xa5;" horiz-adv-x="567" 
d="M552.5 268.5q5.5 -5.5 5.5 -12.5q0 -18 -23 -25.5t-53 -7.5q-72 0 -152 3q-11 0 -17 1l-11 -56q37 -1 94 -7l42 -3q8 -1 12.5 -7.5t4.5 -14.5q0 -10 -5.5 -17.5t-14.5 -8.5q-30 -3 -67 -3q-23 0 -77 2l-8 -42q-6 -38 -13.5 -60t-24.5 -22q-16 0 -31.5 10.5t-15.5 26.5
q0 20 8 60l6 33q-123 9 -123 39q0 31 28 27q43 -7 105 -10l11 58q-51 4 -145 16q-12 3 -12 15t9 22.5t20 9.5l32 -2q48 -2 75 -4h10q-21 46 -43.5 120.5t-52.5 176.5q-18 60 -18 69q0 10 13 15.5t31 5.5q19 0 30 -3.5t19 -11.5q9 -64 30.5 -163t57.5 -209q15 23 30 42
q61 87 95 148t70 168q20 18 49 18q16 0 28 -9.5t12 -20.5q0 -45 -46.5 -114t-141.5 -188q-28 -34 -41 -51q90 1 194 -7q9 -1 14.5 -6.5z" />
    <glyph glyph-name="brokenbar" unicode="&#xa6;" horiz-adv-x="273" 
d="M135.5 336.5q-12.5 6.5 -19.5 16.5q19 74 35 124.5t52 152.5l9 24q19 56 30 77t25 19q18 -3 28 -14t10 -27l-1 -8q-2 -21 -7.5 -40t-19.5 -52q-34 -80 -49.5 -125t-34.5 -131q-2 -11 -11 -17t-21 -6q-13 0 -25.5 6.5zM6 -170q0 60 20 160.5t50 196.5q5 17 14 25.5t20 8.5
q17 0 29.5 -14t12.5 -35q0 -9 -3 -18q-21 -66 -37.5 -152.5t-25.5 -161.5q-5 -25 -9 -38t-14.5 -22t-29.5 -9q-8 0 -12 1q-15 8 -15 58z" />
    <glyph glyph-name="section" unicode="&#xa7;" horiz-adv-x="518" 
d="M265 631q-28 -11 -28 -37q0 -32 31.5 -53t114.5 -47q68 -22 92.5 -48t24.5 -69q0 -60 -40.5 -108.5t-104 -77t-131.5 -33.5q16 -7 42 -20l28 -14q34 -21 59.5 -47.5t25.5 -64.5q0 -63 -67.5 -94t-153.5 -31q-143 0 -143 75q0 17 16 28q65 -36 117 -36q55 0 98.5 13
t43.5 44q0 24 -23.5 42t-78.5 47l-46 25q-54 26 -74.5 54.5t-20.5 69.5q0 50 40 93t100.5 72.5t120.5 41.5q-81 19 -118 47.5t-37 81.5q0 57 59 86t137 29q59 0 100 -10t60.5 -24.5t19.5 -27.5q0 -12 -12.5 -25t-30.5 -13q-8 0 -38 13q-33 14 -58.5 21.5t-54.5 7.5
q-42 0 -70 -11zM414.5 391q-17.5 11 -45.5 11q-50 0 -107.5 -22t-97 -54t-39.5 -59q0 -51 64 -51q57 0 113.5 17.5t93 50t36.5 74.5q0 22 -17.5 33z" />
    <glyph glyph-name="dieresis" unicode="&#xa8;" 
d="M358.5 607.5q-10.5 12.5 -10.5 31.5q0 43 21.5 62t51.5 19q20 0 30 -14t10 -32q0 -27 -21 -53t-56 -26q-15 0 -25.5 12.5zM168.5 599q-10.5 14 -10.5 39q0 44 20.5 59t51.5 15q22 0 31.5 -13t9.5 -32q0 -17 -9.5 -36t-26 -32.5t-35.5 -13.5q-21 0 -31.5 14z" />
    <glyph glyph-name="copyright" unicode="&#xa9;" horiz-adv-x="842" 
d="M127.5 65q-73.5 85 -73.5 211q0 112 55.5 218.5t162.5 174.5t252 68q85 0 154 -35t109.5 -103.5t40.5 -164.5q0 -124 -52 -227.5t-156.5 -165t-254.5 -61.5q-164 0 -237.5 85zM581 103.5q84 49.5 126 131.5t42 179q0 81 -33 139.5t-90 88t-128 29.5q-106 0 -188.5 -55.5
t-127 -138t-44.5 -159.5q0 -63 22.5 -123t76 -100.5t141.5 -40.5q119 0 203 49.5zM285.5 202q-34.5 39 -34.5 105q0 69 44 131.5t109 100.5t123 38q42 0 61.5 -17t19.5 -46q0 -37 -38 -53q-20 37 -68 37q-43 0 -82.5 -23.5t-64.5 -63.5t-25 -85q0 -48 21 -72.5t60 -24.5
q47 0 97 29.5t84 88.5q21 -1 21 -28q0 -46 -31.5 -81.5t-82 -55t-103.5 -19.5q-76 0 -110.5 39z" />
    <glyph glyph-name="ordfeminine" unicode="&#xaa;" horiz-adv-x="337" 
d="M361.5 702.5q10.5 -8.5 10.5 -19.5q0 -2 -2 -8q-26 -57 -44 -110.5t-18 -83.5q0 -22 1.5 -31t8.5 -9t15.5 5t12.5 5q8 0 8 -15q0 -20 -19.5 -37.5t-44.5 -17.5q-40 0 -40 61q0 22 4 46q-25 -50 -61 -80t-81 -30q-36 0 -56.5 28.5t-20.5 73.5q0 56 33.5 112t84.5 92t97 36
q19 0 28.5 -11t7.5 -30q-16 2 -19 2q-41 0 -79 -29.5t-61 -73.5t-23 -82q0 -62 32 -62q41 0 80.5 59.5t71.5 135.5q4 8 13.5 30.5t19 37t18.5 14.5q12 0 22.5 -8.5z" />
    <glyph glyph-name="guillemotleft" unicode="&#xab;" horiz-adv-x="675" 
d="M314 151q18 -17 18 -40q0 -15 -11 -25.5t-28 -10.5q-15 0 -33.5 11t-33.5 29q-26 31 -49 49.5t-44.5 30.5t-75.5 37q-6 10 -6 22q0 30 23 50t68 40q46 20 57 24q61 24 95 44.5t66 61.5q24 -16 24 -39q0 -25 -24 -51t-63 -43q-20 -9 -64 -25q-43 -16 -65 -25t-42 -23
q34 -13 57 -26t59 -37q54 -37 72 -54zM638 429q0 -23 -23.5 -48.5t-60.5 -42.5q-14 -7 -33.5 -14t-27.5 -10q-38 -14 -60.5 -23.5t-42.5 -22.5q33 -12 55.5 -25t55.5 -35q53 -37 70 -53t17 -38q0 -14 -11 -24t-27 -10q-15 0 -32.5 10.5t-31.5 27.5q-25 30 -47 48t-42 28.5
t-74 36.5q-6 8 -6 21q0 28 22.5 47.5t65.5 38.5l58 24q58 23 90 42.5t62 58.5q23 -14 23 -37z" />
    <glyph glyph-name="logicalnot" unicode="&#xac;" 
d="M513.5 405.5q9.5 -7.5 9.5 -23.5q-3 -23 -11 -50t-10 -35q-21 -66 -28 -109q-5 -24 -12 -34.5t-14.5 -12.5t-21.5 -2q-18 0 -18 36q0 11 4 35q37 107 46 140q-45 5 -115 5q-62 0 -102.5 -2t-104.5 -13q-12 -2 -16 -2q-28 0 -28 30q0 26 11 33.5t21.5 8.5t13.5 1
q35 4 76 4q27 0 63 -2q18 -1 45 -1q52 -4 73 -4q23 0 73 4q36 1 45.5 -6.5z" />
    <glyph glyph-name="uni00AD" unicode="&#xad;" horiz-adv-x="349" 
d="M51.5 219q-21.5 5 -21.5 23q0 44 78 44q20 0 60 -4l29 -2q9 -1 29 -1q36 0 84 7q12 -4 12 -20q0 -23 -36 -35q-24 -8 -80.5 -12.5t-99.5 -4.5q-33 0 -54.5 5z" />
    <glyph glyph-name="registered" unicode="&#xae;" horiz-adv-x="842" 
d="M678 702q69 -35 109.5 -103.5t40.5 -164.5q0 -124 -52 -227.5t-156.5 -165t-254.5 -61.5q-164 0 -237.5 85t-73.5 211q0 112 55.5 218.5t162.5 174.5t252 68q85 0 154 -35zM581 103.5q84 49.5 126 131.5t42 179q0 81 -33 139.5t-90 88t-128 29.5q-106 0 -188.5 -55.5
t-127 -138t-44.5 -159.5q0 -63 22.5 -123t76 -100.5t141.5 -40.5q119 0 203 49.5zM444 585q69 0 113.5 -25t48.5 -83q2 -23 -14.5 -52t-50 -53t-80.5 -34q36 -18 68 -58t34 -75v-6q0 -11 -5 -16t-20 -5q-25 0 -41.5 14.5t-39.5 45.5q-16 22 -28 36.5t-29 27.5
q-8 8 -14.5 10.5t-16.5 2.5q-9 0 -15 -1q-11 -40 -14 -65q-1 -4 -5 -26.5t-13.5 -39t-23.5 -16.5q-15 0 -23 16.5t-9 32.5v9q0 7 2 27q6 36 32.5 106t57.5 135.5t52 90.5q11 1 34 1zM452 376q42 16 69.5 41.5t27.5 51.5q0 29 -22 45.5t-66 16.5l-17 -1q-18 -22 -38.5 -68.5
t-37.5 -101.5q42 0 84 16z" />
    <glyph glyph-name="macron" unicode="&#xaf;" 
d="M108.5 630.5q-2.5 13.5 -1.5 22.5q1 21 42 31.5t100 10.5q17 0 47 -2q79 -5 92 -18q4 -4 4 -16q0 -15 -7 -34q-48 2 -72 2q-105 0 -197 -17q-5 7 -7.5 20.5z" />
    <glyph glyph-name="degree" unicode="&#xb0;" horiz-adv-x="398" 
d="M130 445.5q-26 27.5 -26 87.5q0 53 28.5 104t75.5 82.5t100 31.5q51 0 81.5 -27.5t30.5 -74.5q0 -55 -30.5 -109t-81 -88t-107.5 -34q-45 0 -71 27.5zM286 494q32 26 51.5 66t19.5 81q0 26 -13 41t-38 15q-41 0 -71.5 -25.5t-46.5 -62t-16 -66.5q0 -75 45 -75q37 0 69 26
z" />
    <glyph glyph-name="plusminus" unicode="&#xb1;" 
d="M261 167q-5 6 -5 19q0 6 5 38q4 18 5 26l6 52q2 21 -3 26.5t-17 7.5q-15 2 -46 2t-48 -1q-9 -1 -26 -1q-18 0 -28 5.5t-8 19.5q2 12 15 24t31 13t44 -1q22 -2 41 -2q40 0 53.5 9t18.5 33q5 20 6 39q1 7 2.5 16.5t3.5 22.5q6 37 18.5 56t33.5 19q9 0 24 -5q1 -34 -6 -66.5
t-21 -77.5q-3 -9 -3 -18q0 -23 19 -27q23 -6 53 -6q24 0 37 1q10 1 26 1q19 0 26 -3.5t7 -12.5q0 -25 -15.5 -34t-49.5 -9q-11 0 -47 2l-36 1q-30 -1 -42.5 -9t-15 -27t-3.5 -69v-42q-2 -12 -12 -20t-25 -8q-13 0 -18 6zM87 19q-13 1 -21.5 11.5t-8.5 30.5q0 30 28 30
q4 0 16 -2q71 -14 151 -14h36q92 0 143 7q16 2 22 2q21 0 33 -9t12 -27q0 -16 -9.5 -23.5t-45.5 -6.5q-36 3 -72 3q-39 0 -84 -3q-52 -5 -98 -5q-48 0 -86 5q-3 0 -16 1z" />
    <glyph glyph-name="uni00B2" unicode="&#xb2;" horiz-adv-x="285" 
d="M238 499q45 0 61.5 -9.5t16.5 -33.5q-92 -12 -187 -12q-27 0 -65 2q-10 4 -10 18q0 25 22.5 46t63.5 45q36 23 54 38.5t18 33.5q0 12 -14 19.5t-41 7.5q-43 0 -68 -22q-8 2 -11 7t-3 15q0 21 27.5 34t65.5 13q96 0 96 -78q0 -31 -18.5 -49t-55.5 -39q-24 -13 -37 -21.5
t-24 -20.5l37 3q43 3 72 3z" />
    <glyph glyph-name="uni00B3" unicode="&#xb3;" horiz-adv-x="210" 
d="M241 594q-24 -15 -68 -24q33 -4 55.5 -16t21.5 -26q0 -16 -32 -37t-72 -37t-57 -16q-11 0 -18.5 5.5t-7.5 15.5q0 11 25 24.5t57.5 24.5t50.5 13l-83 21q-16 4 -22 11t-6 21q18 5 28 7q45 11 73 22t28 26q0 22 -42 22q-25 0 -42 -10q-5 0 -9.5 7.5t-4.5 13.5q0 20 16 27
t48 7q26 0 55.5 -16t29.5 -45q0 -26 -24 -41z" />
    <glyph glyph-name="acute" unicode="&#xb4;" 
d="M126.5 590.5q-5.5 5.5 -5.5 13.5q57 31 89 65.5t64 89.5q25 2 44 -10t19 -31q0 -29 -34.5 -60t-81.5 -52t-80 -21q-9 0 -14.5 5.5z" />
    <glyph glyph-name="uni00B5" unicode="&#xb5;" horiz-adv-x="539" 
d="M495 415q-19 -55 -31 -107.5t-15 -130.5q-1 -41 6 -71t26 -59q-7 -13 -21 -23t-28 -10q-34 0 -52 29.5t-18 88.5q0 60 17 136q-121 -243 -255 -243q-34 0 -49 33l-16 -147q-7 -67 -11 -94t-11 -40q-8 -9 -22 -13t-27 -4q-20 0 -20 30q0 14 6 52q4 23 5 31q23 170 54 312
q19 87 47.5 181.5t54.5 140.5q55 -3 55 -46q0 -16 -21 -77q-23 -69 -35.5 -119.5t-12.5 -100.5q0 -30 12.5 -50.5t29.5 -20.5q55 0 116 100.5t123 237.5l16 34q8 17 21 30.5t28 12.5q9 0 19 -9.5t16.5 -22t5.5 -18.5q-2 -12 -13 -43z" />
    <glyph glyph-name="paragraph" unicode="&#xb6;" horiz-adv-x="594" 
d="M447 643q0 -59 -17 -155q-19 -134 -128 -538q-1 -4 -7.5 -27t-21 -32t-39.5 -9q-17 0 -17 20q0 23 22 74q62 156 83 310q-134 6 -189 66.5t-55 144.5q0 69 34.5 119.5t92.5 77t126 26.5q37 0 68.5 -10t42.5 -30q5 -7 5 -37zM590 659q0 -20 -4 -45t-7 -39
q-18 -80 -27 -158q-5 -49 -17 -105.5t-31 -136.5q-27 -120 -35 -155q-5 -24 -10 -73q-3 -34 -8 -46t-23 -12q-16 0 -25.5 19.5t-9.5 56.5q0 25 6 56.5t18 81.5l15 64q35 133 54.5 230t22.5 198q0 6 0.5 29t7.5 42q4 15 20.5 23.5t36.5 8.5q16 0 16 -39z" />
    <glyph glyph-name="periodcentered" unicode="&#xb7;" horiz-adv-x="215" 
d="M49.5 222q-16.5 15 -16.5 38q0 27 15.5 45t46.5 18q24 0 38.5 -14.5t14.5 -38.5q0 -22 -12 -42.5t-42 -20.5q-28 0 -44.5 15z" />
    <glyph glyph-name="cedilla" unicode="&#xb8;" 
d="M213 -72.5q22 -20.5 22 -54.5q0 -56 -44 -86.5t-110 -30.5q-22 0 -36.5 5t-14.5 13q0 7 3.5 16t11.5 14q8 -1 29 -1q42 0 71.5 12.5t29.5 43.5q0 14 -11.5 21.5t-31.5 7.5q-25 0 -52 -7q-9 -3 -13 2.5t-4 14.5q0 6 2 12l53 127l56 -3l-38 -87q6 1 17 1q38 0 60 -20.5z
" />
    <glyph glyph-name="uni00B9" unicode="&#xb9;" horiz-adv-x="181" 
d="M242 689q-38 -82 -54.5 -125t-23.5 -84q-1 -9 -14 -15t-26 -6q-29 0 -25 17q11 46 26 84t38 78q-30 -14 -67 -29.5t-43 -15.5q-5 0 -10 9.5t-5 16.5t7 12q12 9 90 49t89 40q7 0 14 -11q9 -11 4 -20z" />
    <glyph glyph-name="ordmasculine" unicode="&#xba;" horiz-adv-x="304" 
d="M63 405.5q-26 27.5 -26 87.5q0 53 28.5 104t75.5 82.5t100 31.5q51 0 81.5 -27.5t30.5 -74.5q0 -55 -30.5 -109t-81 -88t-107.5 -34q-45 0 -71 27.5zM219 454q32 26 51.5 66t19.5 81q0 26 -13 41t-38 15q-41 0 -71.5 -25.5t-46.5 -62t-16 -66.5q0 -75 45 -75q37 0 69 26z
" />
    <glyph glyph-name="guillemotright" unicode="&#xbb;" horiz-adv-x="630" 
d="M577 278q0 -29 -23.5 -50t-69.5 -44q-63 -33 -98 -59.5t-70 -74.5q-23 14 -23 36q0 21 19.5 45.5t51.5 48.5q19 15 61 39q28 15 43 25t24 22q-94 51 -151 158q9 29 41 29q17 0 31.5 -11.5t34.5 -36.5q29 -39 42.5 -55t32.5 -29t48 -21q6 -10 6 -22zM298 228.5
q-23 -20.5 -66 -41.5q-62 -33 -99.5 -60.5t-70.5 -73.5q-13 16 -13 35q0 44 68 94q12 10 30.5 21t26.5 16q26 15 41 25t24 22q-93 51 -144 151q9 28 39 28q17 0 30.5 -11t33.5 -35q28 -39 48 -55t70 -46q5 -10 5 -21q0 -28 -23 -48.5z" />
    <glyph glyph-name="onequarter" unicode="&#xbc;" horiz-adv-x="658" 
d="M517 730q20 0 42.5 -7t26.5 -16q-149 -164 -252 -350t-171 -405q-2 -8 -12 -12t-22 -4q-13 0 -21.5 5.5t-6.5 15.5q21 109 90.5 270.5t156.5 303.5t154 197q6 2 15 2zM135 560q15 38 38 78q-30 -14 -67 -29.5t-43 -15.5q-5 0 -10 9.5t-5 16.5t7 12q12 9 90 49t89 40
q7 0 14 -11q9 -11 4 -20q-38 -82 -54.5 -125t-23.5 -84q-1 -9 -14 -15t-26 -6q-29 0 -25 17q11 46 26 84zM607.5 130q2.5 -7 2.5 -13q0 -10 -8 -15q-12 -7 -38.5 -14t-51.5 -10l-5 -30q-6 -42 -12.5 -58.5t-23.5 -18.5l-7 -1q-15 0 -21 9q-1 6 -1 18q0 29 10 76
q-18 -3 -42 -3q-34 0 -48.5 8.5t-14.5 29.5q0 31 12 64.5t30.5 56t37.5 22.5q11 0 15.5 -2.5t6.5 -8.5q-15 -16 -28.5 -46.5t-13.5 -45.5q-1 -14 4 -23t16 -9l38 2q14 44 33 85t36 64q10 7 21 7q7 0 10.5 -4.5t3.5 -12.5q0 -19 -45 -132q51 8 76 16q5 -4 7.5 -11z" />
    <glyph glyph-name="onehalf" unicode="&#xbd;" horiz-adv-x="700" 
d="M252 689q-38 -82 -54.5 -125t-23.5 -84q-1 -9 -14 -15t-26 -6q-29 0 -25 17q11 46 26 84t38 78q-30 -14 -67 -29.5t-43 -15.5q-5 0 -10 9.5t-5 16.5t7 12q12 9 90 49t89 40q7 0 14 -11q9 -11 4 -20zM202 -26q-10 -4 -22 -4q-13 0 -21.5 5.5t-6.5 15.5q21 109 90.5 270.5
t156.5 303.5t154 197q6 2 15 2q20 0 42.5 -7t26.5 -16q-149 -164 -252 -350t-171 -405q-2 -8 -12 -12zM606 64q45 0 61.5 -9.5t16.5 -33.5q-92 -12 -187 -12q-27 0 -65 2q-10 4 -10 18q0 25 22.5 46t63.5 45q36 23 54 38.5t18 33.5q0 12 -14 19.5t-41 7.5q-43 0 -68 -22
q-8 2 -11 7t-3 15q0 21 27.5 34t65.5 13q96 0 96 -78q0 -31 -18.5 -49t-55.5 -39q-24 -13 -37 -21.5t-24 -20.5l37 3q43 3 72 3z" />
    <glyph glyph-name="threequarters" unicode="&#xbe;" horiz-adv-x="722" 
d="M543 730q20 0 42.5 -7t26.5 -16q-149 -164 -252 -350t-171 -405q-2 -8 -12 -12t-22 -4q-13 0 -21.5 5.5t-6.5 15.5q21 109 90.5 270.5t156.5 303.5t154 197q6 2 15 2zM205 491q-32 -21 -72 -37t-57 -16q-11 0 -18.5 5.5t-7.5 15.5q0 11 25 24.5t57.5 24.5t50.5 13l-83 21
q-16 4 -22 11t-6 21q18 5 28 7q45 11 73 22t28 26q0 22 -42 22q-25 0 -42 -10q-5 0 -9.5 7.5t-4.5 13.5q0 20 16 27t48 7q26 0 55.5 -16t29.5 -45q0 -26 -24 -41t-68 -24q33 -4 55.5 -16t21.5 -26q0 -16 -32 -37zM671.5 130q2.5 -7 2.5 -13q0 -10 -8 -15q-12 -7 -38.5 -14
t-51.5 -10l-5 -30q-6 -42 -12.5 -58.5t-23.5 -18.5l-7 -1q-15 0 -21 9q-1 6 -1 18q0 29 10 76q-18 -3 -42 -3q-34 0 -48.5 8.5t-14.5 29.5q0 31 12 64.5t30.5 56t37.5 22.5q11 0 15.5 -2.5t6.5 -8.5q-15 -16 -28.5 -46.5t-13.5 -45.5q-1 -14 4 -23t16 -9l38 2q14 44 33 85
t36 64q10 7 21 7q7 0 10.5 -4.5t3.5 -12.5q0 -19 -45 -132q51 8 76 16q5 -4 7.5 -11z" />
    <glyph glyph-name="questiondown" unicode="&#xbf;" horiz-adv-x="365" 
d="M303.5 493.5q16.5 -16.5 16.5 -33.5q0 -28 -18.5 -42t-47.5 -14q-22 0 -40 14.5t-18 37.5q0 22 19.5 38t42.5 16q29 0 45.5 -16.5zM285 278q14 -17 14 -44q0 -34 -18 -61t-43 -45.5t-70 -46.5q-43 -26 -67.5 -44t-41.5 -43t-17 -57q0 -36 24 -55.5t59 -19.5q24 0 41 4.5
t39 13.5q12 5 24 8.5t23 3.5q18 0 28.5 -7.5t10.5 -20.5q0 -35 -49 -52.5t-104 -17.5q-80 0 -125.5 34.5t-45.5 96.5q0 56 23.5 94.5t55.5 61.5t83 50q49 26 72 45t23 47q0 16 -4.5 27t-14.5 26q19 19 44 19q22 0 36 -17z" />
    <glyph glyph-name="Agrave" unicode="&#xc0;" horiz-adv-x="592" 
d="M537 293.5q8 -9.5 8 -23.5q0 -10 -9.5 -12.5t-28.5 -2.5q-36 0 -54 -1q1 -53 5 -97t14 -108q-9 -19 -31 -34t-39 -15q-10 0 -16 10t-9 35q-4 36 -7.5 94t-2.5 108q-126 -15 -236 -65q-51 -106 -89 -212q-36 -1 -45 11.5t-9 35.5q0 47 100 223.5t212.5 331.5t147.5 155
q17 0 27 -9q-14 -102 -18 -195.5t-4 -213.5q26 0 50 -3q26 -3 34 -12.5zM171 262q94 32 198 43q7 189 15 285q-108 -129 -213 -328zM413.5 781q-43.5 16 -74 41.5t-30.5 52.5q0 19 16 32.5t40 15.5q29 -48 70 -79.5t103 -47.5q1 -11 -12.5 -21t-36.5 -10q-32 0 -75.5 16z
" />
    <glyph glyph-name="Aacute" unicode="&#xc1;" horiz-adv-x="592" 
d="M537 293.5q8 -9.5 8 -23.5q0 -10 -9.5 -12.5t-28.5 -2.5q-36 0 -54 -1q1 -53 5 -97t14 -108q-9 -19 -31 -34t-39 -15q-10 0 -16 10t-9 35q-4 36 -7.5 94t-2.5 108q-126 -15 -236 -65q-51 -106 -89 -212q-36 -1 -45 11.5t-9 35.5q0 47 100 223.5t212.5 331.5t147.5 155
q17 0 27 -9q-14 -102 -18 -195.5t-4 -213.5q26 0 50 -3q26 -3 34 -12.5zM171 262q94 32 198 43q7 189 15 285q-108 -129 -213 -328zM376 778.5q-4 6.5 -2 14.5q62 18 101 45.5t81 74.5q22 -4 38 -17.5t16 -29.5q0 -4 -2 -10q-7 -24 -39.5 -44.5t-75 -32t-77.5 -11.5
q-19 0 -27 2q-9 2 -13 8.5z" />
    <glyph glyph-name="Acircumflex" unicode="&#xc2;" horiz-adv-x="582" 
d="M537 293.5q8 -9.5 8 -23.5q0 -10 -9.5 -12.5t-28.5 -2.5q-36 0 -54 -1q1 -53 5 -97t14 -108q-9 -19 -31 -34t-39 -15q-10 0 -16 10t-9 35q-4 36 -7.5 94t-2.5 108q-126 -15 -236 -65q-51 -106 -89 -212q-36 -1 -45 11.5t-9 35.5q0 47 100 223.5t212.5 331.5t147.5 155
q17 0 27 -9q-14 -102 -18 -195.5t-4 -213.5q26 0 50 -3q26 -3 34 -12.5zM171 262q94 32 198 43q7 189 15 285q-108 -129 -213 -328zM538.5 840q36.5 -44 69.5 -71q-11 -21 -31 -21q-28 -1 -60.5 25.5t-58.5 61.5q-24 -23 -56 -41.5t-64 -29.5q-25 -7 -39 -7q-11 0 -15 4
q-9 8 -9 11t4.5 6.5t8.5 6.5t6 4q45 24 91 60t70 65q6 8 16 8q9 0 14 -8q17 -30 53.5 -74z" />
    <glyph glyph-name="Atilde" unicode="&#xc3;" horiz-adv-x="592" 
d="M537 293.5q8 -9.5 8 -23.5q0 -10 -9.5 -12.5t-28.5 -2.5q-36 0 -54 -1q1 -53 5 -97t14 -108q-9 -19 -31 -34t-39 -15q-10 0 -16 10t-9 35q-4 36 -7.5 94t-2.5 108q-126 -15 -236 -65q-51 -106 -89 -212q-36 -1 -45 11.5t-9 35.5q0 47 100 223.5t212.5 331.5t147.5 155
q17 0 27 -9q-14 -102 -18 -195.5t-4 -213.5q26 0 50 -3q26 -3 34 -12.5zM171 262q94 32 198 43q7 189 15 285q-108 -129 -213 -328zM305 800q0 37 27 60.5t64 23.5q24 0 43.5 -10t41.5 -27q19 -14 28.5 -19.5t20.5 -5.5q26 0 39.5 17.5t14.5 46.5q31 -9 31 -44
q0 -32 -16.5 -50t-37 -24.5t-34.5 -6.5q-22 0 -38 8t-37 24q-20 14 -31 20t-25 6q-20 0 -35 -16t-23 -45q-33 8 -33 42z" />
    <glyph glyph-name="Adieresis" unicode="&#xc4;" horiz-adv-x="592" 
d="M537 293.5q8 -9.5 8 -23.5q0 -10 -9.5 -12.5t-28.5 -2.5q-36 0 -54 -1q1 -53 5 -97t14 -108q-9 -19 -31 -34t-39 -15q-10 0 -16 10t-9 35q-4 36 -7.5 94t-2.5 108q-126 -15 -236 -65q-51 -106 -89 -212q-36 -1 -45 11.5t-9 35.5q0 47 100 223.5t212.5 331.5t147.5 155
q17 0 27 -9q-14 -102 -18 -195.5t-4 -213.5q26 0 50 -3q26 -3 34 -12.5zM171 262q94 32 198 43q7 189 15 285q-108 -129 -213 -328zM510.5 782.5q-10.5 12.5 -10.5 31.5q0 43 21.5 62t51.5 19q20 0 30 -14t10 -32q0 -27 -21 -53t-56 -26q-15 0 -25.5 12.5zM320.5 774
q-10.5 14 -10.5 39q0 44 20.5 59t51.5 15q22 0 31.5 -13t9.5 -32q0 -17 -9.5 -36t-26 -32.5t-35.5 -13.5q-21 0 -31.5 14z" />
    <glyph glyph-name="Aring" unicode="&#xc5;" horiz-adv-x="592" 
d="M537 293.5q8 -9.5 8 -23.5q0 -10 -9.5 -12.5t-28.5 -2.5q-36 0 -54 -1q1 -53 5 -97t14 -108q-9 -19 -31 -34t-39 -15q-10 0 -16 10t-9 35q-4 36 -7.5 94t-2.5 108q-126 -15 -236 -65q-51 -106 -89 -212q-36 -1 -45 11.5t-9 35.5q0 47 100 223.5t212.5 331.5t147.5 155
q17 0 27 -9q-14 -102 -18 -195.5t-4 -213.5q26 0 50 -3q26 -3 34 -12.5zM171 262q94 32 198 43q7 189 15 285q-108 -129 -213 -328zM385.5 779q-19.5 18 -19.5 53q0 37 22 71.5t60 56t84 21.5q33 0 54 -18.5t21 -50.5q0 -38 -25.5 -73t-65.5 -56.5t-82 -21.5q-29 0 -48.5 18
zM504.5 824q21.5 14 34.5 34t13 38q0 19 -11 28t-25 9q-40 0 -67 -26.5t-27 -59.5q0 -16 10 -26.5t26 -10.5q25 0 46.5 14z" />
    <glyph glyph-name="AE" unicode="&#xc6;" horiz-adv-x="892" 
d="M858.5 658q30.5 -14 30.5 -36q0 -16 -7 -29t-19 -21q-14 16 -42 23.5t-73 11.5q-46 4 -59 4q-36 0 -73 -10q-18 -24 -36 -77.5t-34 -118.5l-12 -46q97 15 192 17q37 0 37 -25q0 -7 -1 -10q-3 -18 -41 -24l-63 -8q-101 -13 -142 -19l-17 -65q-16 -62 -16 -94
q0 -37 19.5 -52.5t64.5 -15.5q69 0 183 28q43 10 54 10q20 0 19 -29q-1 -27 -50.5 -46t-113.5 -28.5t-107 -9.5q-102 0 -140 46q-26 25 -26 81t29 156q-136 -29 -249 -84q-75 -116 -119 -217q-31 -1 -45.5 11t-14.5 29q0 25 40.5 100t101.5 160q109 153 228 262t231 138
q40 10 113 10q32 0 41 -1q86 -7 116.5 -21zM437 340l18 57q21 61 41 108.5t47 89.5q-28 -6 -75.5 -42t-104 -97.5t-108.5 -138.5l-30 -43q94 40 212 66z" />
    <glyph glyph-name="Ccedilla" unicode="&#xc7;" horiz-adv-x="572" 
d="M517 151.5q5 -5.5 5 -13.5q0 -27 -38 -56.5t-97 -51.5t-117 -28l-24 -55q6 1 17 1q38 0 60 -20.5t22 -54.5q0 -56 -44 -86.5t-110 -30.5q-22 0 -36.5 5t-14.5 13q0 7 3.5 16t11.5 14q8 -1 29 -1q42 0 71.5 12.5t29.5 43.5q0 14 -11.5 21.5t-31.5 7.5q-25 0 -52 -7
q-9 -3 -13 2.5t-4 14.5q0 6 2 12l38 91q-84 7 -132 62.5t-48 144.5q0 111 64 221.5t164.5 181t203.5 70.5q44 0 69.5 -14t25.5 -55q0 -24 -20.5 -71.5t-46 -85t-41.5 -37.5q-15 0 -24.5 13.5t-9.5 31.5q0 21 13 46t43 71l23 37q-20 6 -37 6q-83 0 -159 -60.5t-122.5 -151.5
t-46.5 -173q0 -85 39.5 -121t102.5 -36q57 0 101 16.5t92 42.5q29 17 37 17t13 -5.5z" />
    <glyph glyph-name="Egrave" unicode="&#xc8;" horiz-adv-x="533" 
d="M530 623q0 -16 -7 -29.5t-19 -21.5q-15 17 -45.5 26t-69.5 9q-73 0 -115.5 -23t-65 -65t-41.5 -114l-15 -57q20 2 60 4q75 5 123.5 11.5t95.5 22.5q9 -7 12.5 -14.5t2.5 -19.5q-1 -34 -48 -44t-137 -12q-89 -2 -125 -11l-16 -60q-16 -62 -16 -94q0 -37 19.5 -52.5
t64.5 -15.5q39 0 84.5 7t110.5 20q55 11 62 11q20 0 19 -29q-1 -27 -55 -46t-123.5 -28.5t-112.5 -9.5q-102 0 -140 46q-18 24 -18 76q0 93 61 287q29 92 65.5 156t100.5 97q36 20 86 29.5t75 9.5q127 0 127 -66zM351.5 771q-43.5 16 -74 41.5t-30.5 52.5q0 19 16 32.5
t40 15.5q29 -48 70 -79.5t103 -47.5q1 -11 -12.5 -21t-36.5 -10q-32 0 -75.5 16z" />
    <glyph glyph-name="Eacute" unicode="&#xc9;" horiz-adv-x="533" 
d="M530 623q0 -16 -7 -29.5t-19 -21.5q-15 17 -45.5 26t-69.5 9q-73 0 -115.5 -23t-65 -65t-41.5 -114l-15 -57q20 2 60 4q75 5 123.5 11.5t95.5 22.5q9 -7 12.5 -14.5t2.5 -19.5q-1 -34 -48 -44t-137 -12q-89 -2 -125 -11l-16 -60q-16 -62 -16 -94q0 -37 19.5 -52.5
t64.5 -15.5q39 0 84.5 7t110.5 20q55 11 62 11q20 0 19 -29q-1 -27 -55 -46t-123.5 -28.5t-112.5 -9.5q-102 0 -140 46q-18 24 -18 76q0 93 61 287q29 92 65.5 156t100.5 97q36 20 86 29.5t75 9.5q127 0 127 -66zM314 768.5q-4 6.5 -2 14.5q62 18 101 45.5t81 74.5
q22 -4 38 -17.5t16 -29.5q0 -4 -2 -10q-7 -24 -39.5 -44.5t-75 -32t-77.5 -11.5q-19 0 -27 2q-9 2 -13 8.5z" />
    <glyph glyph-name="Ecircumflex" unicode="&#xca;" horiz-adv-x="533" 
d="M530 623q0 -16 -7 -29.5t-19 -21.5q-15 17 -45.5 26t-69.5 9q-73 0 -115.5 -23t-65 -65t-41.5 -114l-15 -57q20 2 60 4q75 5 123.5 11.5t95.5 22.5q9 -7 12.5 -14.5t2.5 -19.5q-1 -34 -48 -44t-137 -12q-89 -2 -125 -11l-16 -60q-16 -62 -16 -94q0 -37 19.5 -52.5
t64.5 -15.5q39 0 84.5 7t110.5 20q55 11 62 11q20 0 19 -29q-1 -27 -55 -46t-123.5 -28.5t-112.5 -9.5q-102 0 -140 46q-18 24 -18 76q0 93 61 287q29 92 65.5 156t100.5 97q36 20 86 29.5t75 9.5q127 0 127 -66zM496.5 830q36.5 -44 69.5 -71q-11 -21 -31 -21
q-28 -1 -60.5 25.5t-58.5 61.5q-24 -23 -56 -41.5t-64 -29.5q-25 -7 -39 -7q-11 0 -15 4q-9 8 -9 11t4.5 6.5t8.5 6.5t6 4q45 24 91 60t70 65q6 8 16 8q9 0 14 -8q17 -30 53.5 -74z" />
    <glyph glyph-name="Edieresis" unicode="&#xcb;" horiz-adv-x="533" 
d="M530 623q0 -16 -7 -29.5t-19 -21.5q-15 17 -45.5 26t-69.5 9q-73 0 -115.5 -23t-65 -65t-41.5 -114l-15 -57q20 2 60 4q75 5 123.5 11.5t95.5 22.5q9 -7 12.5 -14.5t2.5 -19.5q-1 -34 -48 -44t-137 -12q-89 -2 -125 -11l-16 -60q-16 -62 -16 -94q0 -37 19.5 -52.5
t64.5 -15.5q39 0 84.5 7t110.5 20q55 11 62 11q20 0 19 -29q-1 -27 -55 -46t-123.5 -28.5t-112.5 -9.5q-102 0 -140 46q-18 24 -18 76q0 93 61 287q29 92 65.5 156t100.5 97q36 20 86 29.5t75 9.5q127 0 127 -66zM448.5 772.5q-10.5 12.5 -10.5 31.5q0 43 21.5 62t51.5 19
q20 0 30 -14t10 -32q0 -27 -21 -53t-56 -26q-15 0 -25.5 12.5zM258.5 764q-10.5 14 -10.5 39q0 44 20.5 59t51.5 15q22 0 31.5 -13t9.5 -32q0 -17 -9.5 -36t-26 -32.5t-35.5 -13.5q-21 0 -31.5 14z" />
    <glyph glyph-name="Igrave" unicode="&#xcc;" horiz-adv-x="530" 
d="M559 671q0 -29 -21.5 -46.5t-57.5 -17.5q-17 0 -36 1.5t-28 1.5l-34 3q-41 -76 -73 -230.5t-37 -288.5l24 1q34 2 48 2q22 0 39 -3q27 -5 43.5 -20.5t16.5 -38.5q0 -13 -8 -31q-24 11 -50 15.5t-66 4.5q-31 0 -68 -4t-70 -9q-31 -5 -63 -8.5t-59 -3.5q-30 0 -48.5 13
t-18.5 34q0 17 13 34q38 -5 63 -5q41 0 95 9l24 3q8 122 43 275.5t79 251.5q-92 0 -130 -7q-4 -1 -12 -1q-28 0 -28 32q0 25 12.5 38.5t33.5 13.5q28 0 81 -5q76 -6 114 -6l63 -1q78 0 115 7q1 -5 1 -14zM328.5 771q-43.5 16 -74 41.5t-30.5 52.5q0 19 16 32.5t40 15.5
q29 -48 70 -79.5t103 -47.5q1 -11 -12.5 -21t-36.5 -10q-32 0 -75.5 16z" />
    <glyph glyph-name="Iacute" unicode="&#xcd;" horiz-adv-x="530" 
d="M559 671q0 -29 -21.5 -46.5t-57.5 -17.5q-17 0 -36 1.5t-28 1.5l-34 3q-41 -76 -73 -230.5t-37 -288.5l24 1q34 2 48 2q22 0 39 -3q27 -5 43.5 -20.5t16.5 -38.5q0 -13 -8 -31q-24 11 -50 15.5t-66 4.5q-31 0 -68 -4t-70 -9q-31 -5 -63 -8.5t-59 -3.5q-30 0 -48.5 13
t-18.5 34q0 17 13 34q38 -5 63 -5q41 0 95 9l24 3q8 122 43 275.5t79 251.5q-92 0 -130 -7q-4 -1 -12 -1q-28 0 -28 32q0 25 12.5 38.5t33.5 13.5q28 0 81 -5q76 -6 114 -6l63 -1q78 0 115 7q1 -5 1 -14zM291 768.5q-4 6.5 -2 14.5q62 18 101 45.5t81 74.5q22 -4 38 -17.5
t16 -29.5q0 -4 -2 -10q-7 -24 -39.5 -44.5t-75 -32t-77.5 -11.5q-19 0 -27 2q-9 2 -13 8.5z" />
    <glyph glyph-name="Icircumflex" unicode="&#xce;" horiz-adv-x="530" 
d="M559 671q0 -29 -21.5 -46.5t-57.5 -17.5q-17 0 -36 1.5t-28 1.5l-34 3q-41 -76 -73 -230.5t-37 -288.5l24 1q34 2 48 2q22 0 39 -3q27 -5 43.5 -20.5t16.5 -38.5q0 -13 -8 -31q-24 11 -50 15.5t-66 4.5q-31 0 -68 -4t-70 -9q-31 -5 -63 -8.5t-59 -3.5q-30 0 -48.5 13
t-18.5 34q0 17 13 34q38 -5 63 -5q41 0 95 9l24 3q8 122 43 275.5t79 251.5q-92 0 -130 -7q-4 -1 -12 -1q-28 0 -28 32q0 25 12.5 38.5t33.5 13.5q28 0 81 -5q76 -6 114 -6l63 -1q78 0 115 7q1 -5 1 -14zM473.5 830q36.5 -44 69.5 -71q-11 -21 -31 -21q-28 -1 -60.5 25.5
t-58.5 61.5q-24 -23 -56 -41.5t-64 -29.5q-25 -7 -39 -7q-11 0 -15 4q-9 8 -9 11t4.5 6.5t8.5 6.5t6 4q45 24 91 60t70 65q6 8 16 8q9 0 14 -8q17 -30 53.5 -74z" />
    <glyph glyph-name="Idieresis" unicode="&#xcf;" horiz-adv-x="530" 
d="M559 671q0 -29 -21.5 -46.5t-57.5 -17.5q-17 0 -36 1.5t-28 1.5l-34 3q-41 -76 -73 -230.5t-37 -288.5l24 1q34 2 48 2q22 0 39 -3q27 -5 43.5 -20.5t16.5 -38.5q0 -13 -8 -31q-24 11 -50 15.5t-66 4.5q-31 0 -68 -4t-70 -9q-31 -5 -63 -8.5t-59 -3.5q-30 0 -48.5 13
t-18.5 34q0 17 13 34q38 -5 63 -5q41 0 95 9l24 3q8 122 43 275.5t79 251.5q-92 0 -130 -7q-4 -1 -12 -1q-28 0 -28 32q0 25 12.5 38.5t33.5 13.5q28 0 81 -5q76 -6 114 -6l63 -1q78 0 115 7q1 -5 1 -14zM425.5 772.5q-10.5 12.5 -10.5 31.5q0 43 21.5 62t51.5 19
q20 0 30 -14t10 -32q0 -27 -21 -53t-56 -26q-15 0 -25.5 12.5zM235.5 764q-10.5 14 -10.5 39q0 44 20.5 59t51.5 15q22 0 31.5 -13t9.5 -32q0 -17 -9.5 -36t-26 -32.5t-35.5 -13.5q-21 0 -31.5 14z" />
    <glyph glyph-name="Eth" unicode="&#xd0;" horiz-adv-x="665" 
d="M569.5 609q90.5 -76 90.5 -220q0 -130 -68.5 -218.5t-194 -132.5t-296.5 -44q-42 0 -59 11t-17 39q0 10 15 14.5t52 3.5l21 -1q19 132 43 240q-58 -12 -86 -12q-49 0 -49 45q0 10 1 15q71 9 139 22l12 2q36 133 77 239q-37 -3 -62 -8.5t-54 -13.5q-21 -7 -27 -7
q-18 0 -18 11q0 26 35 47t87.5 32.5t100.5 11.5q167 0 257.5 -76zM471 153q105 77 105 215q0 117 -71.5 179t-191.5 67q-37 -122 -60 -228q80 12 117 12q71 0 71 -47q0 -10 -5 -27l-2 -1q-6 2 -18 4q-23 4 -52 4q-49 0 -125 -13q-24 -123 -43 -255q170 13 275 90z" />
    <glyph glyph-name="Ntilde" unicode="&#xd1;" horiz-adv-x="675" 
d="M648 671q0 -66 -16.5 -166t-39.5 -195t-42 -146q-58 -158 -141 -158q-22 0 -32 9q-27 201 -51 309t-75 236q-37 -159 -66 -260.5t-63 -201.5q-38 -113 -88 -113q-35 0 -35 35q0 11 9.5 34t22.5 49q21 39 38 81q60 140 92 293q16 76 26 116t27 73t39 33q31 0 68.5 -93
t71 -236t52.5 -283q30 53 49.5 118.5t39.5 165.5q11 53 16.5 98.5t14.5 139.5l7 75q11 11 26.5 18.5t26.5 7.5q23 0 23 -39zM285 790q0 37 27 60.5t64 23.5q24 0 43.5 -10t41.5 -27q19 -14 28.5 -19.5t20.5 -5.5q26 0 39.5 17.5t14.5 46.5q31 -9 31 -44q0 -32 -16.5 -50
t-37 -24.5t-34.5 -6.5q-22 0 -38 8t-37 24q-20 14 -31 20t-25 6q-20 0 -35 -16t-23 -45q-33 8 -33 42z" />
    <glyph glyph-name="Ograve" unicode="&#xd2;" horiz-adv-x="601" 
d="M83 69.5q-39 68.5 -39 158.5q0 125 48 239t133.5 184.5t193.5 70.5q78 0 123.5 -62t45.5 -159q0 -105 -50.5 -222.5t-137.5 -197.5t-191 -80q-87 0 -126 68.5zM356.5 135.5q68.5 64.5 113 163.5t44.5 194q0 64 -26 104.5t-79 40.5q-83 0 -145.5 -65.5t-95.5 -162.5
t-33 -186q0 -78 21 -115.5t64 -37.5q68 0 136.5 64.5zM375.5 801q-43.5 16 -74 41.5t-30.5 52.5q0 19 16 32.5t40 15.5q29 -48 70 -79.5t103 -47.5q1 -11 -12.5 -21t-36.5 -10q-32 0 -75.5 16z" />
    <glyph glyph-name="Oacute" unicode="&#xd3;" horiz-adv-x="601" 
d="M83 69.5q-39 68.5 -39 158.5q0 125 48 239t133.5 184.5t193.5 70.5q78 0 123.5 -62t45.5 -159q0 -105 -50.5 -222.5t-137.5 -197.5t-191 -80q-87 0 -126 68.5zM356.5 135.5q68.5 64.5 113 163.5t44.5 194q0 64 -26 104.5t-79 40.5q-83 0 -145.5 -65.5t-95.5 -162.5
t-33 -186q0 -78 21 -115.5t64 -37.5q68 0 136.5 64.5zM338 798.5q-4 6.5 -2 14.5q62 18 101 45.5t81 74.5q22 -4 38 -17.5t16 -29.5q0 -4 -2 -10q-7 -24 -39.5 -44.5t-75 -32t-77.5 -11.5q-19 0 -27 2q-9 2 -13 8.5z" />
    <glyph glyph-name="Ocircumflex" unicode="&#xd4;" horiz-adv-x="601" 
d="M83 69.5q-39 68.5 -39 158.5q0 125 48 239t133.5 184.5t193.5 70.5q78 0 123.5 -62t45.5 -159q0 -105 -50.5 -222.5t-137.5 -197.5t-191 -80q-87 0 -126 68.5zM356.5 135.5q68.5 64.5 113 163.5t44.5 194q0 64 -26 104.5t-79 40.5q-83 0 -145.5 -65.5t-95.5 -162.5
t-33 -186q0 -78 21 -115.5t64 -37.5q68 0 136.5 64.5zM520.5 860q36.5 -44 69.5 -71q-11 -21 -31 -21q-28 -1 -60.5 25.5t-58.5 61.5q-24 -23 -56 -41.5t-64 -29.5q-25 -7 -39 -7q-11 0 -15 4q-9 8 -9 11t4.5 6.5t8.5 6.5t6 4q45 24 91 60t70 65q6 8 16 8q9 0 14 -8
q17 -30 53.5 -74z" />
    <glyph glyph-name="Otilde" unicode="&#xd5;" horiz-adv-x="601" 
d="M83 69.5q-39 68.5 -39 158.5q0 125 48 239t133.5 184.5t193.5 70.5q78 0 123.5 -62t45.5 -159q0 -105 -50.5 -222.5t-137.5 -197.5t-191 -80q-87 0 -126 68.5zM356.5 135.5q68.5 64.5 113 163.5t44.5 194q0 64 -26 104.5t-79 40.5q-83 0 -145.5 -65.5t-95.5 -162.5
t-33 -186q0 -78 21 -115.5t64 -37.5q68 0 136.5 64.5zM267 820q0 37 27 60.5t64 23.5q24 0 43.5 -10t41.5 -27q19 -14 28.5 -19.5t20.5 -5.5q26 0 39.5 17.5t14.5 46.5q31 -9 31 -44q0 -32 -16.5 -50t-37 -24.5t-34.5 -6.5q-22 0 -38 8t-37 24q-20 14 -31 20t-25 6
q-20 0 -35 -16t-23 -45q-33 8 -33 42z" />
    <glyph glyph-name="Odieresis" unicode="&#xd6;" horiz-adv-x="601" 
d="M83 69.5q-39 68.5 -39 158.5q0 125 48 239t133.5 184.5t193.5 70.5q78 0 123.5 -62t45.5 -159q0 -105 -50.5 -222.5t-137.5 -197.5t-191 -80q-87 0 -126 68.5zM356.5 135.5q68.5 64.5 113 163.5t44.5 194q0 64 -26 104.5t-79 40.5q-83 0 -145.5 -65.5t-95.5 -162.5
t-33 -186q0 -78 21 -115.5t64 -37.5q68 0 136.5 64.5zM472.5 802.5q-10.5 12.5 -10.5 31.5q0 43 21.5 62t51.5 19q20 0 30 -14t10 -32q0 -27 -21 -53t-56 -26q-15 0 -25.5 12.5zM282.5 794q-10.5 14 -10.5 39q0 44 20.5 59t51.5 15q22 0 31.5 -13t9.5 -32q0 -17 -9.5 -36
t-26 -32.5t-35.5 -13.5q-21 0 -31.5 14z" />
    <glyph glyph-name="multiply" unicode="&#xd7;" 
d="M114.5 160q-8.5 6 -8.5 13q0 17 33 46l28 23q36 30 52 44q5 5 21.5 21t22 26.5t5.5 20.5q0 24 -26 50.5t-66 44.5q-26 12 -34.5 21.5t-8.5 25.5q0 11 11 24.5t31 16.5q30 -11 55 -34.5t57 -62.5q21 -26 31 -36.5t19 -10.5t23 13.5t41 44.5q38 44 65.5 68.5t50.5 24.5
q13 0 26 -12t13 -28q-52 -31 -109 -79q-34 -28 -46 -46t-12 -34q0 -14 12 -28t42 -39q21 -17 45 -39q5 -4 14.5 -12.5t13 -14t3.5 -11.5q0 -16 -17 -31.5t-35 -15.5q-15 0 -26 12t-28 39q-15 24 -28 42q-34 45 -54 45q-15 0 -32.5 -14.5t-44.5 -43.5q-35 -38 -62 -59
t-56 -21q-13 0 -21.5 6z" />
    <glyph glyph-name="Oslash" unicode="&#xd8;" horiz-adv-x="578" 
d="M551 628q24 -49 24 -117q0 -107 -50.5 -227t-137.5 -201.5t-191 -81.5q-63 0 -103 40q-18 -23 -49 -68l-29 -39q-7 -10 -24 -10q-10 0 -17.5 4.5t-7.5 12.5q0 5 2 8q16 30 92 138q-29 59 -29 141q0 125 48 239t133.5 184.5t193.5 70.5q69 0 115 -49q57 65 85 85
q13 3 27.5 -7t16.5 -24q-46 -40 -99 -99zM121 170q84 113 178.5 234t169.5 210q-28 34 -73 34q-84 0 -147.5 -62.5t-97.5 -161t-34 -200.5q0 -33 4 -54zM494 563q-139 -162 -354 -456q24 -38 67 -38q68 0 136.5 66.5t113 168t44.5 199.5q0 33 -7 60z" />
    <glyph glyph-name="Ugrave" unicode="&#xd9;" horiz-adv-x="620" 
d="M114 39.5q-45 54.5 -45 158.5q0 62 18 154t47 182t60 146q11 5 24 5q38 0 38 -51q1 -17 -4.5 -37t-19.5 -61l-17 -51q-19 -52 -36 -131t-17 -139q0 -71 25 -110t73 -39q80 0 131.5 73t81 184.5t57.5 279.5q2 10 7.5 47.5t20 49t42.5 12.5q17 0 25 -8
q-34 -232 -76.5 -384.5t-116 -243.5t-188.5 -91q-85 0 -130 54.5zM365.5 771q-43.5 16 -74 41.5t-30.5 52.5q0 19 16 32.5t40 15.5q29 -48 70 -79.5t103 -47.5q1 -11 -12.5 -21t-36.5 -10q-32 0 -75.5 16z" />
    <glyph glyph-name="Uacute" unicode="&#xda;" horiz-adv-x="620" 
d="M114 39.5q-45 54.5 -45 158.5q0 62 18 154t47 182t60 146q11 5 24 5q38 0 38 -51q1 -17 -4.5 -37t-19.5 -61l-17 -51q-19 -52 -36 -131t-17 -139q0 -71 25 -110t73 -39q80 0 131.5 73t81 184.5t57.5 279.5q2 10 7.5 47.5t20 49t42.5 12.5q17 0 25 -8
q-34 -232 -76.5 -384.5t-116 -243.5t-188.5 -91q-85 0 -130 54.5zM328 768.5q-4 6.5 -2 14.5q62 18 101 45.5t81 74.5q22 -4 38 -17.5t16 -29.5q0 -4 -2 -10q-7 -24 -39.5 -44.5t-75 -32t-77.5 -11.5q-19 0 -27 2q-9 2 -13 8.5z" />
    <glyph glyph-name="Ucircumflex" unicode="&#xdb;" horiz-adv-x="620" 
d="M114 39.5q-45 54.5 -45 158.5q0 62 18 154t47 182t60 146q11 5 24 5q38 0 38 -51q1 -17 -4.5 -37t-19.5 -61l-17 -51q-19 -52 -36 -131t-17 -139q0 -71 25 -110t73 -39q80 0 131.5 73t81 184.5t57.5 279.5q2 10 7.5 47.5t20 49t42.5 12.5q17 0 25 -8
q-34 -232 -76.5 -384.5t-116 -243.5t-188.5 -91q-85 0 -130 54.5zM510.5 830q36.5 -44 69.5 -71q-11 -21 -31 -21q-28 -1 -60.5 25.5t-58.5 61.5q-24 -23 -56 -41.5t-64 -29.5q-25 -7 -39 -7q-11 0 -15 4q-9 8 -9 11t4.5 6.5t8.5 6.5t6 4q45 24 91 60t70 65q6 8 16 8
q9 0 14 -8q17 -30 53.5 -74z" />
    <glyph glyph-name="Udieresis" unicode="&#xdc;" horiz-adv-x="620" 
d="M114 39.5q-45 54.5 -45 158.5q0 62 18 154t47 182t60 146q11 5 24 5q38 0 38 -51q1 -17 -4.5 -37t-19.5 -61l-17 -51q-19 -52 -36 -131t-17 -139q0 -71 25 -110t73 -39q80 0 131.5 73t81 184.5t57.5 279.5q2 10 7.5 47.5t20 49t42.5 12.5q17 0 25 -8
q-34 -232 -76.5 -384.5t-116 -243.5t-188.5 -91q-85 0 -130 54.5zM462.5 772.5q-10.5 12.5 -10.5 31.5q0 43 21.5 62t51.5 19q20 0 30 -14t10 -32q0 -27 -21 -53t-56 -26q-15 0 -25.5 12.5zM272.5 764q-10.5 14 -10.5 39q0 44 20.5 59t51.5 15q22 0 31.5 -13t9.5 -32
q0 -17 -9.5 -36t-26 -32.5t-35.5 -13.5q-21 0 -31.5 14z" />
    <glyph glyph-name="Yacute" unicode="&#xdd;" horiz-adv-x="585" 
d="M592 703.5q12 -12.5 8 -30.5l-62 -277q-30 -134 -62.5 -219.5t-95.5 -141t-168 -55.5q-40 0 -78.5 12.5t-63 33t-24.5 42.5q0 23 12.5 34t32.5 11q11 0 21 -6t24 -18q24 -20 47 -31t60 -11q65 0 112 64.5t76.5 157.5t55.5 216q-65 -135 -125.5 -184.5t-121.5 -49.5
t-97 50.5t-36 139.5q0 61 15.5 123.5t39.5 110.5q16 33 36.5 47t38.5 14q26 0 37 -17q-39 -56 -58 -129t-19 -136q0 -136 63 -136q46 0 94 54.5t87.5 129t62.5 138.5l17 48q5 14 15.5 21t23.5 7q20 0 32 -12.5zM338 808.5q-4 6.5 -2 14.5q62 18 101 45.5t81 74.5
q22 -4 38 -17.5t16 -29.5q0 -4 -2 -10q-7 -24 -39.5 -44.5t-75 -32t-77.5 -11.5q-19 0 -27 2q-9 2 -13 8.5z" />
    <glyph glyph-name="Thorn" unicode="&#xde;" horiz-adv-x="529" 
d="M451 534.5q76 -46.5 76 -149.5q0 -71 -43 -127t-114 -87t-149 -31q-45 0 -82 10l-31 -163q-3 -16 -8 -23t-21 -7q-17 0 -32 10.5t-15 28.5q0 51 53.5 295t91.5 396q12 12 28.5 19t34.5 7q20 0 32 -8q-21 -64 -38 -125q12 1 33 1q108 0 184 -46.5zM326.5 222
q50.5 19 83 56t32.5 88q0 72 -50.5 110.5t-129.5 38.5q-12 0 -46 -2q-31 -127 -65 -300q31 -10 70 -10q55 0 105.5 19z" />
    <glyph glyph-name="germandbls" unicode="&#xdf;" horiz-adv-x="523" 
d="M19 -158q-21 0 -30.5 16t-9.5 38q0 26 9.5 87t21.5 121q77 351 145 498q30 59 73 97.5t112 38.5q58 0 94.5 -27.5t36.5 -87.5q0 -51 -26.5 -93.5t-71.5 -90.5q-23 -25 -33.5 -39t-10.5 -25q0 -20 14 -33.5t44 -33.5q28 -19 46 -34t31 -39.5t13 -58.5q0 -46 -22 -84.5
t-64 -61.5t-100 -23q-39 0 -71.5 13.5t-50.5 33t-18 35.5q0 15 10.5 24.5t20.5 9.5q9 0 17.5 -4.5t22.5 -14.5q20 -14 35.5 -21.5t39.5 -7.5q47 0 76.5 27t29.5 66q0 32 -18.5 51t-55.5 41t-56 41t-19 50q0 30 15.5 54t47.5 59q37 40 55.5 70t18.5 70q0 29 -18 47t-45 18
q-35 0 -60 -21.5t-36.5 -42.5t-23.5 -48q-51 -116 -117 -438q-22 -122 -36 -267q-20 -10 -36 -10z" />
    <glyph glyph-name="agrave" unicode="&#xe0;" horiz-adv-x="552" 
d="M433.5 270q-24.5 -86 -24.5 -135q-2 -44 21 -44q9 0 23 7t19 7q12 0 12 -22q0 -18 -13.5 -36t-35.5 -29.5t-47 -11.5q-29 0 -45 22t-16 67q0 20 7 64q-41 -71 -100.5 -114t-128.5 -43q-48 0 -77 30.5t-29 77.5q0 92 52 183t129.5 149t147.5 58q59 0 53 -54q-17 3 -29 3
q-11 0 -31 -4q-59 -12 -111.5 -61.5t-84 -114.5t-31.5 -120q0 -78 48 -78q71 0 135 90.5t107 202.5q22 56 39.5 89.5t37.5 33.5q15 0 25 -10.5t10 -25.5q0 -11 -4 -19q-34 -76 -58.5 -162zM304.5 605.5q-42.5 20.5 -73.5 50.5t-31 59q0 20 18.5 33t44.5 11q22 -52 58 -88.5
t95 -61.5q0 -9 -11 -16.5t-29 -7.5q-29 0 -71.5 20.5z" />
    <glyph glyph-name="aacute" unicode="&#xe1;" horiz-adv-x="552" 
d="M433.5 270q-24.5 -86 -24.5 -135q-2 -44 21 -44q9 0 23 7t19 7q12 0 12 -22q0 -18 -13.5 -36t-35.5 -29.5t-47 -11.5q-29 0 -45 22t-16 67q0 20 7 64q-41 -71 -100.5 -114t-128.5 -43q-48 0 -77 30.5t-29 77.5q0 92 52 183t129.5 149t147.5 58q59 0 53 -54q-17 3 -29 3
q-11 0 -31 -4q-59 -12 -111.5 -61.5t-84 -114.5t-31.5 -120q0 -78 48 -78q71 0 135 90.5t107 202.5q22 56 39.5 89.5t37.5 33.5q15 0 25 -10.5t10 -25.5q0 -11 -4 -19q-34 -76 -58.5 -162zM283.5 590.5q-5.5 5.5 -5.5 13.5q57 31 89 65.5t64 89.5q25 2 44 -10t19 -31
q0 -29 -34.5 -60t-81.5 -52t-80 -21q-9 0 -14.5 5.5z" />
    <glyph glyph-name="acircumflex" unicode="&#xe2;" horiz-adv-x="552" 
d="M433.5 270q-24.5 -86 -24.5 -135q-2 -44 21 -44q9 0 23 7t19 7q12 0 12 -22q0 -18 -13.5 -36t-35.5 -29.5t-47 -11.5q-29 0 -45 22t-16 67q0 20 7 64q-41 -71 -100.5 -114t-128.5 -43q-48 0 -77 30.5t-29 77.5q0 92 52 183t129.5 149t147.5 58q59 0 53 -54q-17 3 -29 3
q-11 0 -31 -4q-59 -12 -111.5 -61.5t-84 -114.5t-31.5 -120q0 -78 48 -78q71 0 135 90.5t107 202.5q22 56 39.5 89.5t37.5 33.5q15 0 25 -10.5t10 -25.5q0 -11 -4 -19q-34 -76 -58.5 -162zM467 661.5q36 -47.5 61 -71.5q-11 -21 -31 -21q-28 -1 -59 28.5t-57 68.5
q-27 -27 -58 -49t-59 -32q-28 -8 -40 -8q-9 0 -14 5q-9 6 -9 12q0 7 19 20q43 23 87.5 60.5t70.5 69.5q6 8 17 8q4 0 8 -2t5 -6q23 -35 59 -82.5z" />
    <glyph glyph-name="atilde" unicode="&#xe3;" horiz-adv-x="552" 
d="M433.5 270q-24.5 -86 -24.5 -135q-2 -44 21 -44q9 0 23 7t19 7q12 0 12 -22q0 -18 -13.5 -36t-35.5 -29.5t-47 -11.5q-29 0 -45 22t-16 67q0 20 7 64q-41 -71 -100.5 -114t-128.5 -43q-48 0 -77 30.5t-29 77.5q0 92 52 183t129.5 149t147.5 58q59 0 53 -54q-17 3 -29 3
q-11 0 -31 -4q-59 -12 -111.5 -61.5t-84 -114.5t-31.5 -120q0 -78 48 -78q71 0 135 90.5t107 202.5q22 56 39.5 89.5t37.5 33.5q15 0 25 -10.5t10 -25.5q0 -11 -4 -19q-34 -76 -58.5 -162zM191 631q0 37 27 60.5t64 23.5q24 0 43.5 -10t41.5 -27q19 -14 28.5 -19.5
t20.5 -5.5q26 0 39.5 17.5t14.5 46.5q31 -9 31 -44q0 -32 -16.5 -50t-37 -24.5t-34.5 -6.5q-22 0 -38 8t-37 24q-19 14 -30.5 20t-25.5 6q-20 0 -35 -16t-23 -45q-33 8 -33 42z" />
    <glyph glyph-name="adieresis" unicode="&#xe4;" horiz-adv-x="552" 
d="M433.5 270q-24.5 -86 -24.5 -135q-2 -44 21 -44q9 0 23 7t19 7q12 0 12 -22q0 -18 -13.5 -36t-35.5 -29.5t-47 -11.5q-29 0 -45 22t-16 67q0 20 7 64q-41 -71 -100.5 -114t-128.5 -43q-48 0 -77 30.5t-29 77.5q0 92 52 183t129.5 149t147.5 58q59 0 53 -54q-17 3 -29 3
q-11 0 -31 -4q-59 -12 -111.5 -61.5t-84 -114.5t-31.5 -120q0 -78 48 -78q71 0 135 90.5t107 202.5q22 56 39.5 89.5t37.5 33.5q15 0 25 -10.5t10 -25.5q0 -11 -4 -19q-34 -76 -58.5 -162zM423.5 607.5q-10.5 12.5 -10.5 31.5q0 43 21.5 62t51.5 19q20 0 30 -14t10 -32
q0 -27 -21 -53t-56 -26q-15 0 -25.5 12.5zM233.5 599q-10.5 14 -10.5 39q0 44 20.5 59t51.5 15q22 0 31.5 -13t9.5 -32q0 -17 -9.5 -36t-26 -32.5t-35.5 -13.5q-21 0 -31.5 14z" />
    <glyph glyph-name="aring" unicode="&#xe5;" horiz-adv-x="552" 
d="M433.5 270q-24.5 -86 -24.5 -135q-2 -44 21 -44q9 0 23 7t19 7q12 0 12 -22q0 -18 -13.5 -36t-35.5 -29.5t-47 -11.5q-29 0 -45 22t-16 67q0 20 7 64q-41 -71 -100.5 -114t-128.5 -43q-48 0 -77 30.5t-29 77.5q0 92 52 183t129.5 149t147.5 58q59 0 53 -54q-17 3 -29 3
q-11 0 -31 -4q-59 -12 -111.5 -61.5t-84 -114.5t-31.5 -120q0 -78 48 -78q71 0 135 90.5t107 202.5q22 56 39.5 89.5t37.5 33.5q15 0 25 -10.5t10 -25.5q0 -11 -4 -19q-34 -76 -58.5 -162zM265.5 589q-19.5 18 -19.5 53q0 37 22 71.5t60 56t84 21.5q33 0 54 -18.5t21 -50.5
q0 -38 -25.5 -73t-65.5 -56.5t-82 -21.5q-29 0 -48.5 18zM384.5 634q21.5 14 34.5 34t13 38q0 19 -11 28t-25 9q-40 0 -67 -26.5t-27 -59.5q0 -16 10 -26.5t26 -10.5q25 0 46.5 14z" />
    <glyph glyph-name="ae" unicode="&#xe6;" horiz-adv-x="811" 
d="M744.5 167q4.5 -8 2.5 -20q-6 -33 -40.5 -67.5t-90.5 -57t-122 -22.5q-34 0 -69.5 15t-60.5 52t-25 99v2q-41 -73 -104.5 -119.5t-129.5 -46.5q-48 0 -77 30.5t-29 77.5q0 92 52 183t129.5 149t147.5 58q59 0 53 -54q-17 3 -29 3q-11 0 -31 -4q-59 -12 -111.5 -61.5
t-84 -114.5t-31.5 -120q0 -40 13 -59t35 -19q65 0 132.5 92.5t114.5 200.5q12 28 16 41q20 51 35.5 79t30.5 28q14 0 22.5 -9t8.5 -26q0 -10 -3 -22q77 50 159 50q52 0 82.5 -27t30.5 -69q0 -60 -45 -109t-118.5 -77.5t-153.5 -28.5q-19 0 -29 1v-18q0 -49 32.5 -78.5
t75.5 -29.5q57 0 104 25.5t94 82.5q9 -2 13.5 -10zM549 420q-43 -26 -74.5 -72.5t-43.5 -106.5q69 -3 127.5 21.5t92.5 62.5t34 73q0 48 -47 48q-46 0 -89 -26z" />
    <glyph glyph-name="ccedilla" unicode="&#xe7;" horiz-adv-x="438" 
d="M199.5 387q-52.5 -31 -87.5 -87t-35 -128q0 -53 24.5 -81t68.5 -28q51 0 106 30.5t89 90.5q21 -1 21 -29q0 -42 -27.5 -75.5t-73 -54.5t-97.5 -27l-22 -51q6 1 17 1q38 0 60 -20.5t22 -54.5q0 -56 -44 -86.5t-110 -30.5q-22 0 -36.5 5t-14.5 13q0 7 3.5 16t11.5 14
q8 -1 29 -1q42 0 71.5 12.5t29.5 43.5q0 14 -11.5 21.5t-31.5 7.5q-25 0 -52 -7q-9 -3 -13 2.5t-4 14.5q0 6 2 12l36 87q-70 6 -102 48t-32 108q0 97 53.5 176t131.5 124t147 45q48 0 70 -17.5t22 -46.5q0 -38 -39 -54q-23 38 -79 38q-51 0 -103.5 -31z" />
    <glyph glyph-name="egrave" unicode="&#xe8;" horiz-adv-x="484" 
d="M417.5 167q4.5 -8 2.5 -20q-6 -33 -40.5 -67.5t-90.5 -57t-122 -22.5q-37 0 -74.5 15t-64 52t-26.5 99q0 93 48 171t124.5 123t156.5 45q52 0 82.5 -27t30.5 -69q0 -60 -45 -109t-118.5 -77.5t-153.5 -28.5q-19 0 -29 1v-18q0 -49 32.5 -78.5t75.5 -29.5q57 0 104 25.5
t94 82.5q9 -2 13.5 -10zM222 420q-43 -26 -74.5 -72.5t-43.5 -106.5q69 -3 127.5 21.5t92.5 62.5t34 73q0 48 -47 48q-46 0 -89 -26zM249.5 605.5q-42.5 20.5 -73.5 50.5t-31 59q0 20 18.5 33t44.5 11q22 -52 58 -88.5t95 -61.5q0 -9 -11 -16.5t-29 -7.5q-29 0 -71.5 20.5z
" />
    <glyph glyph-name="eacute" unicode="&#xe9;" horiz-adv-x="484" 
d="M417.5 167q4.5 -8 2.5 -20q-6 -33 -40.5 -67.5t-90.5 -57t-122 -22.5q-37 0 -74.5 15t-64 52t-26.5 99q0 93 48 171t124.5 123t156.5 45q52 0 82.5 -27t30.5 -69q0 -60 -45 -109t-118.5 -77.5t-153.5 -28.5q-19 0 -29 1v-18q0 -49 32.5 -78.5t75.5 -29.5q57 0 104 25.5
t94 82.5q9 -2 13.5 -10zM222 420q-43 -26 -74.5 -72.5t-43.5 -106.5q69 -3 127.5 21.5t92.5 62.5t34 73q0 48 -47 48q-46 0 -89 -26zM228.5 590.5q-5.5 5.5 -5.5 13.5q57 31 89 65.5t64 89.5q25 2 44 -10t19 -31q0 -29 -34.5 -60t-81.5 -52t-80 -21q-9 0 -14.5 5.5z" />
    <glyph glyph-name="ecircumflex" unicode="&#xea;" horiz-adv-x="484" 
d="M417.5 167q4.5 -8 2.5 -20q-6 -33 -40.5 -67.5t-90.5 -57t-122 -22.5q-37 0 -74.5 15t-64 52t-26.5 99q0 93 48 171t124.5 123t156.5 45q52 0 82.5 -27t30.5 -69q0 -60 -45 -109t-118.5 -77.5t-153.5 -28.5q-19 0 -29 1v-18q0 -49 32.5 -78.5t75.5 -29.5q57 0 104 25.5
t94 82.5q9 -2 13.5 -10zM222 420q-43 -26 -74.5 -72.5t-43.5 -106.5q69 -3 127.5 21.5t92.5 62.5t34 73q0 48 -47 48q-46 0 -89 -26zM412 661.5q36 -47.5 61 -71.5q-11 -21 -31 -21q-28 -1 -59 28.5t-57 68.5q-27 -27 -58 -49t-59 -32q-28 -8 -40 -8q-9 0 -14 5q-9 6 -9 12
q0 7 19 20q43 23 87.5 60.5t70.5 69.5q6 8 17 8q4 0 8 -2t5 -6q23 -35 59 -82.5z" />
    <glyph glyph-name="edieresis" unicode="&#xeb;" horiz-adv-x="484" 
d="M417.5 167q4.5 -8 2.5 -20q-6 -33 -40.5 -67.5t-90.5 -57t-122 -22.5q-37 0 -74.5 15t-64 52t-26.5 99q0 93 48 171t124.5 123t156.5 45q52 0 82.5 -27t30.5 -69q0 -60 -45 -109t-118.5 -77.5t-153.5 -28.5q-19 0 -29 1v-18q0 -49 32.5 -78.5t75.5 -29.5q57 0 104 25.5
t94 82.5q9 -2 13.5 -10zM222 420q-43 -26 -74.5 -72.5t-43.5 -106.5q69 -3 127.5 21.5t92.5 62.5t34 73q0 48 -47 48q-46 0 -89 -26zM368.5 607.5q-10.5 12.5 -10.5 31.5q0 43 21.5 62t51.5 19q20 0 30 -14t10 -32q0 -27 -21 -53t-56 -26q-15 0 -25.5 12.5zM178.5 599
q-10.5 14 -10.5 39q0 44 20.5 59t51.5 15q22 0 31.5 -13t9.5 -32q0 -17 -9.5 -36t-26 -32.5t-35.5 -13.5q-21 0 -31.5 14z" />
    <glyph glyph-name="igrave" unicode="&#xec;" horiz-adv-x="238" 
d="M25 59q0 34 38 196.5t52 197.5q7 18 20 28.5t29 10.5t22 -8t6 -23q0 -21 -6.5 -49t-19.5 -70q-14 -51 -22 -82.5t-11 -63.5q-7 -60 -9 -96l-4 -39q-2 -22 -17.5 -34t-41.5 -12q-36 0 -36 44zM135.5 605.5q-42.5 20.5 -73.5 50.5t-31 59q0 20 18.5 33t44.5 11
q22 -52 58 -88.5t95 -61.5q0 -9 -11 -16.5t-29 -7.5q-29 0 -71.5 20.5z" />
    <glyph glyph-name="iacute" unicode="&#xed;" horiz-adv-x="238" 
d="M25 59q0 34 38 196.5t52 197.5q7 18 20 28.5t29 10.5t22 -8t6 -23q0 -21 -6.5 -49t-19.5 -70q-14 -51 -22 -82.5t-11 -63.5q-7 -60 -9 -96l-4 -39q-2 -22 -17.5 -34t-41.5 -12q-36 0 -36 44zM114.5 590.5q-5.5 5.5 -5.5 13.5q57 31 89 65.5t64 89.5q25 2 44 -10t19 -31
q0 -29 -34.5 -60t-81.5 -52t-80 -21q-9 0 -14.5 5.5z" />
    <glyph glyph-name="icircumflex" unicode="&#xee;" horiz-adv-x="238" 
d="M25 59q0 34 38 196.5t52 197.5q7 18 20 28.5t29 10.5t22 -8t6 -23q0 -21 -6.5 -49t-19.5 -70q-14 -51 -22 -82.5t-11 -63.5q-7 -60 -9 -96l-4 -39q-2 -22 -17.5 -34t-41.5 -12q-36 0 -36 44zM298 661.5q36 -47.5 61 -71.5q-11 -21 -31 -21q-28 -1 -59 28.5t-57 68.5
q-27 -27 -58 -49t-59 -32q-28 -8 -40 -8q-9 0 -14 5q-9 6 -9 12q0 7 19 20q43 23 87.5 60.5t70.5 69.5q6 8 17 8q4 0 8 -2t5 -6q23 -35 59 -82.5z" />
    <glyph glyph-name="idieresis" unicode="&#xef;" horiz-adv-x="238" 
d="M25 59q0 34 38 196.5t52 197.5q7 18 20 28.5t29 10.5t22 -8t6 -23q0 -21 -6.5 -49t-19.5 -70q-14 -51 -22 -82.5t-11 -63.5q-7 -60 -9 -96l-4 -39q-2 -22 -17.5 -34t-41.5 -12q-36 0 -36 44zM254.5 607.5q-10.5 12.5 -10.5 31.5q0 43 21.5 62t51.5 19q20 0 30 -14t10 -32
q0 -27 -21 -53t-56 -26q-15 0 -25.5 12.5zM64.5 599q-10.5 14 -10.5 39q0 44 20.5 59t51.5 15q22 0 31.5 -13t9.5 -32q0 -17 -9.5 -36t-26 -32.5t-35.5 -13.5q-21 0 -31.5 14z" />
    <glyph glyph-name="eth" unicode="&#xf0;" horiz-adv-x="507" 
d="M496 715q43 0 42 -37q-55 -5 -124 -28q49 -80 49 -211q0 -16 -2 -52q-8 -110 -48 -195.5t-110 -134.5t-165 -49q-64 0 -100.5 40.5t-36.5 109.5q0 81 39 155.5t105 120t143 45.5q36 0 63 -14t42 -40q1 15 1 43q0 105 -39 159l-11 -5q-32 -13 -83 -43q-51 -27 -60 -30
q-13 -2 -18.5 2.5t-13.5 17.5q-7 12 39.5 40.5t105.5 56.5q-42 25 -105 25q-40 0 -76 -9q-9 -2 -13.5 3.5t-4.5 14.5t3 13q17 37 98 37q104 0 166 -59q78 24 114 24zM264 112q52 40 84 99.5t33 111.5q0 48 -23 70t-62 22q-62 0 -111 -42.5t-76 -102.5t-27 -108
q0 -43 20 -66.5t54 -23.5q56 0 108 40z" />
    <glyph glyph-name="ntilde" unicode="&#xf1;" horiz-adv-x="561" 
d="M490 64q0 -19 -13 -37.5t-32 -28.5q-16 -7 -26 -7q-37 0 -54 31t-17 91q0 33 7 94q6 53 14 91.5t9 44.5q7 33 7 41q0 5 -1 7t-5 2q-22 0 -72.5 -48.5t-96.5 -112.5q-49 -69 -73.5 -117.5t-52.5 -119.5q-29 -2 -41.5 20t-12.5 71q0 47 11 130q8 52 27.5 118t51 116
t70.5 50q6 0 13 -2.5t9 -6.5q-38 -88 -57 -153t-32 -142q41 66 105 141t125 125.5t96 50.5q20 0 26.5 -14t6.5 -39q0 -19 -16 -95q-19 -98 -25 -141q-9 -61 -9 -97q0 -50 20 -50q4 0 10 1t14 1q14 0 14 -15zM159 631q0 37 27 60.5t64 23.5q24 0 43.5 -10t41.5 -27
q19 -14 28.5 -19.5t20.5 -5.5q26 0 39.5 17.5t14.5 46.5q31 -9 31 -44q0 -32 -16.5 -50t-37 -24.5t-34.5 -6.5q-22 0 -38 8t-37 24q-19 14 -30.5 20t-25.5 6q-20 0 -35 -16t-23 -45q-33 8 -33 42z" />
    <glyph glyph-name="ograve" unicode="&#xf2;" horiz-adv-x="487" 
d="M42.5 48.5q-36.5 40.5 -36.5 109.5q0 86 40.5 168t109 133t147.5 51q70 0 110.5 -43.5t40.5 -119.5q0 -80 -43 -159t-115 -129.5t-153 -50.5q-64 0 -100.5 40.5zM270 114.5q52 42.5 84 105t32 116.5q0 43 -21.5 71t-63.5 28q-62 0 -109 -45.5t-72.5 -110t-25.5 -117.5
q0 -90 67 -90q57 0 109 42.5zM264.5 605.5q-42.5 20.5 -73.5 50.5t-31 59q0 20 18.5 33t44.5 11q22 -52 58 -88.5t95 -61.5q0 -9 -11 -16.5t-29 -7.5q-29 0 -71.5 20.5z" />
    <glyph glyph-name="oacute" unicode="&#xf3;" horiz-adv-x="487" 
d="M42.5 48.5q-36.5 40.5 -36.5 109.5q0 86 40.5 168t109 133t147.5 51q70 0 110.5 -43.5t40.5 -119.5q0 -80 -43 -159t-115 -129.5t-153 -50.5q-64 0 -100.5 40.5zM270 114.5q52 42.5 84 105t32 116.5q0 43 -21.5 71t-63.5 28q-62 0 -109 -45.5t-72.5 -110t-25.5 -117.5
q0 -90 67 -90q57 0 109 42.5zM243.5 590.5q-5.5 5.5 -5.5 13.5q57 31 89 65.5t64 89.5q25 2 44 -10t19 -31q0 -29 -34.5 -60t-81.5 -52t-80 -21q-9 0 -14.5 5.5z" />
    <glyph glyph-name="ocircumflex" unicode="&#xf4;" horiz-adv-x="487" 
d="M42.5 48.5q-36.5 40.5 -36.5 109.5q0 86 40.5 168t109 133t147.5 51q70 0 110.5 -43.5t40.5 -119.5q0 -80 -43 -159t-115 -129.5t-153 -50.5q-64 0 -100.5 40.5zM270 114.5q52 42.5 84 105t32 116.5q0 43 -21.5 71t-63.5 28q-62 0 -109 -45.5t-72.5 -110t-25.5 -117.5
q0 -90 67 -90q57 0 109 42.5zM427 661.5q36 -47.5 61 -71.5q-11 -21 -31 -21q-28 -1 -59 28.5t-57 68.5q-27 -27 -58 -49t-59 -32q-28 -8 -40 -8q-9 0 -14 5q-9 6 -9 12q0 7 19 20q43 23 87.5 60.5t70.5 69.5q6 8 17 8q4 0 8 -2t5 -6q23 -35 59 -82.5z" />
    <glyph glyph-name="otilde" unicode="&#xf5;" horiz-adv-x="487" 
d="M42.5 48.5q-36.5 40.5 -36.5 109.5q0 86 40.5 168t109 133t147.5 51q70 0 110.5 -43.5t40.5 -119.5q0 -80 -43 -159t-115 -129.5t-153 -50.5q-64 0 -100.5 40.5zM270 114.5q52 42.5 84 105t32 116.5q0 43 -21.5 71t-63.5 28q-62 0 -109 -45.5t-72.5 -110t-25.5 -117.5
q0 -90 67 -90q57 0 109 42.5zM151 631q0 37 27 60.5t64 23.5q24 0 43.5 -10t41.5 -27q19 -14 28.5 -19.5t20.5 -5.5q26 0 39.5 17.5t14.5 46.5q31 -9 31 -44q0 -32 -16.5 -50t-37 -24.5t-34.5 -6.5q-22 0 -38 8t-37 24q-19 14 -30.5 20t-25.5 6q-20 0 -35 -16t-23 -45
q-33 8 -33 42z" />
    <glyph glyph-name="odieresis" unicode="&#xf6;" horiz-adv-x="487" 
d="M42.5 48.5q-36.5 40.5 -36.5 109.5q0 86 40.5 168t109 133t147.5 51q70 0 110.5 -43.5t40.5 -119.5q0 -80 -43 -159t-115 -129.5t-153 -50.5q-64 0 -100.5 40.5zM270 114.5q52 42.5 84 105t32 116.5q0 43 -21.5 71t-63.5 28q-62 0 -109 -45.5t-72.5 -110t-25.5 -117.5
q0 -90 67 -90q57 0 109 42.5zM383.5 607.5q-10.5 12.5 -10.5 31.5q0 43 21.5 62t51.5 19q20 0 30 -14t10 -32q0 -27 -21 -53t-56 -26q-15 0 -25.5 12.5zM193.5 599q-10.5 14 -10.5 39q0 44 20.5 59t51.5 15q22 0 31.5 -13t9.5 -32q0 -17 -9.5 -36t-26 -32.5t-35.5 -13.5
q-21 0 -31.5 14z" />
    <glyph glyph-name="divide" unicode="&#xf7;" 
d="M292.5 482q-16.5 15 -16.5 38q0 27 15.5 45t46.5 18q24 0 38.5 -14.5t14.5 -38.5q0 -22 -12 -42.5t-42 -20.5q-28 0 -44.5 15zM120 292q-28 0 -28 30q0 26 11 33.5t21.5 8.5t13.5 1q35 4 82 4q30 0 76 -2q23 -1 56 -1q46 -4 61 -4t65 4q36 1 45.5 -6.5t9.5 -23.5
q0 -18 -12 -27t-33 -9q-6 0 -22 2q-43 7 -93 7h-34q-118 0 -203 -15q-12 -2 -16 -2zM230.5 103q-16.5 15 -16.5 38q0 27 15.5 45t46.5 18q24 0 38.5 -14.5t14.5 -38.5q0 -22 -12 -42.5t-42 -20.5q-28 0 -44.5 15z" />
    <glyph glyph-name="oslash" unicode="&#xf8;" horiz-adv-x="474" 
d="M434 446q25 -41 25 -99q0 -80 -43 -159t-115 -129.5t-153 -50.5q-37 0 -66 15l-62 -85q-7 -10 -21 -10q-9 0 -15 4t-6 11q0 4 3 10q17 32 64 98q-34 40 -34 107q0 86 40.5 168t109 133t147.5 51q53 0 90 -26q51 56 85 81q13 3 27.5 -7t16.5 -24q-39 -34 -93 -88zM95 118
q124 165 256 315q-18 12 -45 12q-65 0 -114.5 -45.5t-76 -112t-26.5 -125.5q0 -24 6 -44zM384 393q-115 -125 -261 -315q19 -11 43 -11q58 0 110.5 43t85 107t32.5 119q0 33 -10 57z" />
    <glyph glyph-name="ugrave" unicode="&#xf9;" horiz-adv-x="548" 
d="M484 415q-19 -55 -31 -107.5t-15 -130.5q-1 -41 6 -71t26 -59q-7 -13 -21 -23t-28 -10q-34 0 -52.5 30t-18.5 89q0 52 17 134q-125 -256 -254 -256q-39 0 -60 29.5t-21 86.5t19 132t45.5 143.5t47.5 104.5q55 -3 55 -46q0 -17 -24 -77q-26 -68 -40.5 -119t-14.5 -101
q0 -32 8 -51.5t24 -19.5q55 0 116 100.5t123 237.5l16 34q8 17 21 30.5t28 12.5q9 0 19 -9.5t16.5 -22t5.5 -18.5q-2 -12 -13 -43zM276.5 605.5q-42.5 20.5 -73.5 50.5t-31 59q0 20 18.5 33t44.5 11q22 -52 58 -88.5t95 -61.5q0 -9 -11 -16.5t-29 -7.5q-29 0 -71.5 20.5z
" />
    <glyph glyph-name="uacute" unicode="&#xfa;" horiz-adv-x="548" 
d="M484 415q-19 -55 -31 -107.5t-15 -130.5q-1 -41 6 -71t26 -59q-7 -13 -21 -23t-28 -10q-34 0 -52.5 30t-18.5 89q0 52 17 134q-125 -256 -254 -256q-39 0 -60 29.5t-21 86.5t19 132t45.5 143.5t47.5 104.5q55 -3 55 -46q0 -17 -24 -77q-26 -68 -40.5 -119t-14.5 -101
q0 -32 8 -51.5t24 -19.5q55 0 116 100.5t123 237.5l16 34q8 17 21 30.5t28 12.5q9 0 19 -9.5t16.5 -22t5.5 -18.5q-2 -12 -13 -43zM255.5 590.5q-5.5 5.5 -5.5 13.5q57 31 89 65.5t64 89.5q25 2 44 -10t19 -31q0 -29 -34.5 -60t-81.5 -52t-80 -21q-9 0 -14.5 5.5z" />
    <glyph glyph-name="ucircumflex" unicode="&#xfb;" horiz-adv-x="548" 
d="M484 415q-19 -55 -31 -107.5t-15 -130.5q-1 -41 6 -71t26 -59q-7 -13 -21 -23t-28 -10q-34 0 -52.5 30t-18.5 89q0 52 17 134q-125 -256 -254 -256q-39 0 -60 29.5t-21 86.5t19 132t45.5 143.5t47.5 104.5q55 -3 55 -46q0 -17 -24 -77q-26 -68 -40.5 -119t-14.5 -101
q0 -32 8 -51.5t24 -19.5q55 0 116 100.5t123 237.5l16 34q8 17 21 30.5t28 12.5q9 0 19 -9.5t16.5 -22t5.5 -18.5q-2 -12 -13 -43zM439 661.5q36 -47.5 61 -71.5q-11 -21 -31 -21q-28 -1 -59 28.5t-57 68.5q-27 -27 -58 -49t-59 -32q-28 -8 -40 -8q-9 0 -14 5q-9 6 -9 12
q0 7 19 20q43 23 87.5 60.5t70.5 69.5q6 8 17 8q4 0 8 -2t5 -6q23 -35 59 -82.5z" />
    <glyph glyph-name="udieresis" unicode="&#xfc;" horiz-adv-x="548" 
d="M484 415q-19 -55 -31 -107.5t-15 -130.5q-1 -41 6 -71t26 -59q-7 -13 -21 -23t-28 -10q-34 0 -52.5 30t-18.5 89q0 52 17 134q-125 -256 -254 -256q-39 0 -60 29.5t-21 86.5t19 132t45.5 143.5t47.5 104.5q55 -3 55 -46q0 -17 -24 -77q-26 -68 -40.5 -119t-14.5 -101
q0 -32 8 -51.5t24 -19.5q55 0 116 100.5t123 237.5l16 34q8 17 21 30.5t28 12.5q9 0 19 -9.5t16.5 -22t5.5 -18.5q-2 -12 -13 -43zM395.5 607.5q-10.5 12.5 -10.5 31.5q0 43 21.5 62t51.5 19q20 0 30 -14t10 -32q0 -27 -21 -53t-56 -26q-15 0 -25.5 12.5zM205.5 599
q-10.5 14 -10.5 39q0 44 20.5 59t51.5 15q22 0 31.5 -13t9.5 -32q0 -17 -9.5 -36t-26 -32.5t-35.5 -13.5q-21 0 -31.5 14z" />
    <glyph glyph-name="yacute" unicode="&#xfd;" horiz-adv-x="568" 
d="M494 473q11 -24 11 -47q0 -36 -12.5 -113.5t-35.5 -176.5q-26 -114 -60.5 -191.5t-97 -125.5t-161.5 -48q-41 0 -86 11.5t-75.5 31.5t-30.5 45q0 14 9 24t23 10q13 0 27.5 -5t37.5 -16q30 -14 55 -22.5t51 -8.5q74 0 122 50t75.5 130t49.5 197q-33 -59 -80 -110
t-95.5 -81t-87.5 -30q-43 0 -64.5 41t-21.5 109q0 69 20 155.5t52 146.5t66 60q38 0 36 -32q-1 -13 -12 -38q-34 -77 -58 -165.5t-24 -153.5q0 -50 24 -50q46 0 103.5 57.5t108.5 151t80 195.5q6 23 24 23q16 0 27 -24zM270.5 590.5q-5.5 5.5 -5.5 13.5q57 31 89 65.5
t64 89.5q25 2 44 -10t19 -31q0 -29 -34.5 -60t-81.5 -52t-80 -21q-9 0 -14.5 5.5z" />
    <glyph glyph-name="thorn" unicode="&#xfe;" horiz-adv-x="498" 
d="M467 344q0 -96 -43 -174.5t-107.5 -123t-123.5 -44.5q-64 0 -98 40l-4 -25l-26 -161q-4 -25 -7.5 -45t-6.5 -34q-3 -9 -18.5 -13t-29.5 -4q-25 0 -25 31q0 22 10 82q19 114 67.5 364.5t64.5 322.5q13 59 29 109.5t39 65.5q16 10 29 10q25 0 25 -26q0 -35 -36 -168
l-38 -143q34 36 84.5 59t99.5 23q115 0 115 -146zM280.5 97q42.5 36 72 97.5t29.5 135.5q0 44 -12.5 69.5t-47.5 25.5q-44 0 -99 -35t-81 -82l-1 -2v1l-29 -171q12 -34 36 -54.5t56 -20.5q34 0 76.5 36z" />
    <glyph glyph-name="ydieresis" unicode="&#xff;" horiz-adv-x="568" 
d="M494 473q11 -24 11 -47q0 -36 -12.5 -113.5t-35.5 -176.5q-26 -114 -60.5 -191.5t-97 -125.5t-161.5 -48q-41 0 -86 11.5t-75.5 31.5t-30.5 45q0 14 9 24t23 10q13 0 27.5 -5t37.5 -16q30 -14 55 -22.5t51 -8.5q74 0 122 50t75.5 130t49.5 197q-33 -59 -80 -110
t-95.5 -81t-87.5 -30q-43 0 -64.5 41t-21.5 109q0 69 20 155.5t52 146.5t66 60q38 0 36 -32q-1 -13 -12 -38q-34 -77 -58 -165.5t-24 -153.5q0 -50 24 -50q46 0 103.5 57.5t108.5 151t80 195.5q6 23 24 23q16 0 27 -24zM410.5 607.5q-10.5 12.5 -10.5 31.5q0 43 21.5 62
t51.5 19q20 0 30 -14t10 -32q0 -27 -21 -53t-56 -26q-15 0 -25.5 12.5zM220.5 599q-10.5 14 -10.5 39q0 44 20.5 59t51.5 15q22 0 31.5 -13t9.5 -32q0 -17 -9.5 -36t-26 -32.5t-35.5 -13.5q-21 0 -31.5 14z" />
    <glyph glyph-name="Amacron" unicode="&#x100;" horiz-adv-x="592" 
d="M537 293.5q8 -9.5 8 -23.5q0 -10 -9.5 -12.5t-28.5 -2.5q-36 0 -54 -1q1 -53 5 -97t14 -108q-9 -19 -31 -34t-39 -15q-10 0 -16 10t-9 35q-4 36 -7.5 94t-2.5 108q-126 -15 -236 -65q-51 -106 -89 -212q-36 -1 -45 11.5t-9 35.5q0 47 100 223.5t212.5 331.5t147.5 155
q17 0 27 -9q-14 -102 -18 -195.5t-4 -213.5q26 0 50 -3q26 -3 34 -12.5zM171 262q94 32 198 43q7 189 15 285q-108 -129 -213 -328zM317.5 790.5q-2.5 13.5 -1.5 22.5q1 21 42 31.5t100 10.5q17 0 47 -2q79 -5 92 -18q4 -4 4 -16q0 -15 -7 -34q-48 2 -72 2q-105 0 -197 -17
q-5 7 -7.5 20.5z" />
    <glyph glyph-name="amacron" unicode="&#x101;" horiz-adv-x="552" 
d="M433.5 270q-24.5 -86 -24.5 -135q-2 -44 21 -44q9 0 23 7t19 7q12 0 12 -22q0 -18 -13.5 -36t-35.5 -29.5t-47 -11.5q-29 0 -45 22t-16 67q0 20 7 64q-41 -71 -100.5 -114t-128.5 -43q-48 0 -77 30.5t-29 77.5q0 92 52 183t129.5 149t147.5 58q59 0 53 -54q-17 3 -29 3
q-11 0 -31 -4q-59 -12 -111.5 -61.5t-84 -114.5t-31.5 -120q0 -78 48 -78q71 0 135 90.5t107 202.5q22 56 39.5 89.5t37.5 33.5q15 0 25 -10.5t10 -25.5q0 -11 -4 -19q-34 -76 -58.5 -162zM228.5 630.5q-2.5 13.5 -1.5 22.5q1 21 42 31.5t100 10.5q17 0 47 -2q79 -5 92 -18
q4 -4 4 -16q0 -15 -7 -34q-48 2 -72 2q-105 0 -197 -17q-5 7 -7.5 20.5z" />
    <glyph glyph-name="Abreve" unicode="&#x102;" horiz-adv-x="592" 
d="M537 293.5q8 -9.5 8 -23.5q0 -10 -9.5 -12.5t-28.5 -2.5q-36 0 -54 -1q1 -53 5 -97t14 -108q-9 -19 -31 -34t-39 -15q-10 0 -16 10t-9 35q-4 36 -7.5 94t-2.5 108q-126 -15 -236 -65q-51 -106 -89 -212q-36 -1 -45 11.5t-9 35.5q0 47 100 223.5t212.5 331.5t147.5 155
q17 0 27 -9q-14 -102 -18 -195.5t-4 -213.5q26 0 50 -3q26 -3 34 -12.5zM171 262q94 32 198 43q7 189 15 285q-108 -129 -213 -328zM364.5 790.5q-32.5 32.5 -28.5 85.5q3 24 20 24q11 0 16.5 -6t11 -16t7.5 -14q12 -21 28 -32.5t45 -11.5q50 0 77 45q2 3 7.5 13t12 15.5
t12.5 5.5q16 0 14 -20q-3 -51 -39 -86t-99 -35q-52 0 -84.5 32.5z" />
    <glyph glyph-name="abreve" unicode="&#x103;" horiz-adv-x="552" 
d="M433.5 270q-24.5 -86 -24.5 -135q-2 -44 21 -44q9 0 23 7t19 7q12 0 12 -22q0 -18 -13.5 -36t-35.5 -29.5t-47 -11.5q-29 0 -45 22t-16 67q0 20 7 64q-41 -71 -100.5 -114t-128.5 -43q-48 0 -77 30.5t-29 77.5q0 92 52 183t129.5 149t147.5 58q59 0 53 -54q-17 3 -29 3
q-11 0 -31 -4q-59 -12 -111.5 -61.5t-84 -114.5t-31.5 -120q0 -78 48 -78q71 0 135 90.5t107 202.5q22 56 39.5 89.5t37.5 33.5q15 0 25 -10.5t10 -25.5q0 -11 -4 -19q-34 -76 -58.5 -162zM297.5 600q-25.5 13 -41.5 38t-16 58q0 43 21 43q12 0 18 -8t16 -30
q12 -26 28.5 -39t46.5 -13q45 0 75 51q1 3 7 14t12.5 17.5t12.5 6.5q14 0 14 -16q0 -29 -19 -60.5t-52 -53t-71 -21.5q-26 0 -51.5 13z" />
    <glyph glyph-name="Aogonek" unicode="&#x104;" horiz-adv-x="592" 
d="M537 293.5q8 -9.5 8 -23.5q0 -10 -9.5 -12.5t-28.5 -2.5q-36 0 -54 -1q1 -110 17 -212q-51 -41 -93.5 -88t-42.5 -86q0 -19 10 -25t21 -6q26 0 61 20q5 3 9 3q8 0 14.5 -7.5t6.5 -15.5t-5 -13q-52 -49 -122 -49q-81 0 -81 68q0 43 42 97.5t91 86.5l-4 18q-11 55 -11 163
l1 39q-130 -17 -236 -65q-51 -106 -89 -212q-36 -1 -45 11.5t-9 35.5q0 47 100 223.5t212.5 331.5t147.5 155q17 0 27 -9q-14 -102 -18 -195.5t-4 -213.5q26 0 50 -3q26 -3 34 -12.5zM171 262q94 32 198 43q7 189 15 285q-108 -129 -213 -328z" />
    <glyph glyph-name="aogonek" unicode="&#x105;" horiz-adv-x="552" 
d="M433.5 270q-24.5 -86 -24.5 -135q-2 -44 21 -44q9 0 23 7t19 7q13 0 13 -21q0 -28 -36 -57q-44 -33 -86.5 -77t-42.5 -82q0 -19 10 -25t21 -6q26 0 61 20q4 3 9 3q8 0 14.5 -7.5t6.5 -15.5t-5 -13q-52 -49 -122 -49q-81 0 -81 68q0 38 36.5 86.5t85.5 85.5q-29 19 -29 78
q0 31 7 66q-41 -71 -100.5 -114t-128.5 -43q-48 0 -77 30.5t-29 77.5q0 92 52 183t129.5 149t147.5 58q59 0 53 -54q-17 3 -29 3q-11 0 -31 -4q-59 -12 -111.5 -61.5t-84 -114.5t-31.5 -120q0 -78 48 -78q71 0 135 90.5t107 202.5q22 56 39.5 89.5t37.5 33.5q15 0 25 -10.5
t10 -25.5q0 -11 -4 -19q-34 -76 -58.5 -162z" />
    <glyph glyph-name="Cacute" unicode="&#x106;" horiz-adv-x="572" 
d="M517 151.5q5 -5.5 5 -13.5q0 -30 -46 -62t-114 -54t-128 -22q-92 0 -146.5 57t-54.5 151q0 111 64 221.5t164.5 181t203.5 70.5q44 0 69.5 -14t25.5 -55q0 -24 -20.5 -71.5t-46 -85t-41.5 -37.5q-15 0 -24.5 13.5t-9.5 31.5q0 21 13 46t43 71l23 37q-20 6 -37 6
q-83 0 -159 -60.5t-122.5 -151.5t-46.5 -173q0 -85 39.5 -121t102.5 -36q57 0 101 16.5t92 42.5q29 17 37 17t13 -5.5zM360 768.5q-4 6.5 -2 14.5q62 18 101 45.5t81 74.5q22 -4 38 -17.5t16 -29.5q0 -4 -2 -10q-7 -24 -39.5 -44.5t-75 -32t-77.5 -11.5q-19 0 -27 2
q-9 2 -13 8.5z" />
    <glyph glyph-name="cacute" unicode="&#x107;" horiz-adv-x="438" 
d="M34.5 38.5q-37.5 42.5 -37.5 114.5q0 97 53.5 176t131.5 124t147 45q48 0 70 -17.5t22 -46.5q0 -38 -39 -54q-23 38 -79 38q-51 0 -103.5 -31t-87.5 -87t-35 -128q0 -53 24.5 -81t68.5 -28q51 0 106 30.5t89 90.5q21 -1 21 -29q0 -46 -33.5 -82.5t-87 -56.5t-110.5 -20
q-83 0 -120.5 42.5zM239.5 590.5q-5.5 5.5 -5.5 13.5q57 31 89 65.5t64 89.5q25 2 44 -10t19 -31q0 -29 -34.5 -60t-81.5 -52t-80 -21q-9 0 -14.5 5.5z" />
    <glyph glyph-name="Ccircumflex" unicode="&#x108;" horiz-adv-x="572" 
d="M517 151.5q5 -5.5 5 -13.5q0 -30 -46 -62t-114 -54t-128 -22q-92 0 -146.5 57t-54.5 151q0 111 64 221.5t164.5 181t203.5 70.5q44 0 69.5 -14t25.5 -55q0 -24 -20.5 -71.5t-46 -85t-41.5 -37.5q-15 0 -24.5 13.5t-9.5 31.5q0 21 13 46t43 71l23 37q-20 6 -37 6
q-83 0 -159 -60.5t-122.5 -151.5t-46.5 -173q0 -85 39.5 -121t102.5 -36q57 0 101 16.5t92 42.5q29 17 37 17t13 -5.5zM542.5 830q36.5 -44 69.5 -71q-11 -21 -31 -21q-28 -1 -60.5 25.5t-58.5 61.5q-24 -23 -56 -41.5t-64 -29.5q-25 -7 -39 -7q-11 0 -15 4q-9 8 -9 11
t4.5 6.5t8.5 6.5t6 4q45 24 91 60t70 65q6 8 16 8q9 0 14 -8q17 -30 53.5 -74z" />
    <glyph glyph-name="ccircumflex" unicode="&#x109;" horiz-adv-x="438" 
d="M34.5 38.5q-37.5 42.5 -37.5 114.5q0 97 53.5 176t131.5 124t147 45q48 0 70 -17.5t22 -46.5q0 -38 -39 -54q-23 38 -79 38q-51 0 -103.5 -31t-87.5 -87t-35 -128q0 -53 24.5 -81t68.5 -28q51 0 106 30.5t89 90.5q21 -1 21 -29q0 -46 -33.5 -82.5t-87 -56.5t-110.5 -20
q-83 0 -120.5 42.5zM423 661.5q36 -47.5 61 -71.5q-11 -21 -31 -21q-28 -1 -59 28.5t-57 68.5q-27 -27 -58 -49t-59 -32q-28 -8 -40 -8q-9 0 -14 5q-9 6 -9 12q0 7 19 20q43 23 87.5 60.5t70.5 69.5q6 8 17 8q4 0 8 -2t5 -6q23 -35 59 -82.5z" />
    <glyph glyph-name="Cdotaccent" unicode="&#x10a;" horiz-adv-x="572" 
d="M517 151.5q5 -5.5 5 -13.5q0 -30 -46 -62t-114 -54t-128 -22q-92 0 -146.5 57t-54.5 151q0 111 64 221.5t164.5 181t203.5 70.5q44 0 69.5 -14t25.5 -55q0 -24 -20.5 -71.5t-46 -85t-41.5 -37.5q-15 0 -24.5 13.5t-9.5 31.5q0 21 13 46t43 71l23 37q-20 6 -37 6
q-83 0 -159 -60.5t-122.5 -151.5t-46.5 -173q0 -85 39.5 -121t102.5 -36q57 0 101 16.5t92 42.5q29 17 37 17t13 -5.5zM395.5 764.5q-9.5 12.5 -9.5 32.5q0 91 76 91q20 0 30.5 -15t10.5 -35q0 -18 -10 -38t-29 -34t-44 -14q-15 0 -24.5 12.5z" />
    <glyph glyph-name="cdotaccent" unicode="&#x10b;" horiz-adv-x="438" 
d="M34.5 38.5q-37.5 42.5 -37.5 114.5q0 97 53.5 176t131.5 124t147 45q48 0 70 -17.5t22 -46.5q0 -38 -39 -54q-23 38 -79 38q-51 0 -103.5 -31t-87.5 -87t-35 -128q0 -53 24.5 -81t68.5 -28q51 0 106 30.5t89 90.5q21 -1 21 -29q0 -46 -33.5 -82.5t-87 -56.5t-110.5 -20
q-83 0 -120.5 42.5zM278.5 597.5q-9.5 12.5 -9.5 32.5q0 91 76 91q20 0 30.5 -15t10.5 -35q0 -18 -10 -38t-29 -34t-44 -14q-15 0 -24.5 12.5z" />
    <glyph glyph-name="Ccaron" unicode="&#x10c;" horiz-adv-x="572" 
d="M517 151.5q5 -5.5 5 -13.5q0 -30 -46 -62t-114 -54t-128 -22q-92 0 -146.5 57t-54.5 151q0 111 64 221.5t164.5 181t203.5 70.5q44 0 69.5 -14t25.5 -55q0 -24 -20.5 -71.5t-46 -85t-41.5 -37.5q-15 0 -24.5 13.5t-9.5 31.5q0 21 13 46t43 71l23 37q-20 6 -37 6
q-83 0 -159 -60.5t-122.5 -151.5t-46.5 -173q0 -85 39.5 -121t102.5 -36q57 0 101 16.5t92 42.5q29 17 37 17t13 -5.5zM634 877q0 -9 -20 -19q-87 -40 -149 -110q-6 -8 -20 -8q-12 0 -16 7q-19 29 -52.5 65t-63.5 59q8 18 32 18q23 0 54.5 -22t52.5 -49q24 21 57 39t62 28
q23 9 39 9q12 0 18 -6t6 -11z" />
    <glyph glyph-name="ccaron" unicode="&#x10d;" horiz-adv-x="438" 
d="M34.5 38.5q-37.5 42.5 -37.5 114.5q0 97 53.5 176t131.5 124t147 45q48 0 70 -17.5t22 -46.5q0 -38 -39 -54q-23 38 -79 38q-51 0 -103.5 -31t-87.5 -87t-35 -128q0 -53 24.5 -81t68.5 -28q51 0 106 30.5t89 90.5q21 -1 21 -29q0 -46 -33.5 -82.5t-87 -56.5t-110.5 -20
q-83 0 -120.5 42.5zM500 713q0 -4 -5.5 -9t-13.5 -10q-45 -25 -89 -59t-66 -60q-6 -8 -16 -8q-9 0 -13 7q-17 26 -54 72t-63 72q9 21 32 21q26 0 56.5 -26.5t54.5 -61.5q25 23 56 42t59 28q19 9 39 9q10 0 14 -4q9 -7 9 -13z" />
    <glyph glyph-name="Dcaron" unicode="&#x10e;" horiz-adv-x="689" 
d="M559.5 609q90.5 -76 90.5 -220q0 -130 -68.5 -218.5t-194 -132.5t-296.5 -44q-42 0 -59 11t-17 39q0 10 15 14.5t52 3.5l21 -1q43 308 137 551q-37 -3 -62 -8.5t-54 -13.5q-21 -7 -27 -7q-18 0 -18 11q0 26 35 47t87.5 32.5t100.5 11.5q167 0 257.5 -76zM461 153
q105 77 105 215q0 117 -71.5 179t-191.5 67q-41 -130 -66.5 -256t-50.5 -295q170 13 275 90zM605 877q0 -9 -20 -19q-87 -40 -149 -110q-6 -8 -20 -8q-12 0 -16 7q-19 29 -52.5 65t-63.5 59q8 18 32 18q23 0 54.5 -22t52.5 -49q24 21 57 39t62 28q23 9 39 9q12 0 18 -6
t6 -11z" />
    <glyph glyph-name="dcaron" unicode="&#x10f;" horiz-adv-x="590" 
d="M566.5 681q-9.5 -31 -20.5 -61l-16 -48q-32 -101 -58 -210.5t-26 -178.5q0 -100 43 -129q-2 -15 -18 -28t-35 -13q-37 0 -58 44.5t-21 97.5q-50 -86 -108.5 -118t-120.5 -32q-60 0 -92.5 34.5t-32.5 98.5q0 88 54 174t139 141t171 55q31 0 56 -13q16 68 21 85
q16 57 32 99.5t39 57.5q10 6 17.5 8t19.5 2q24 0 24 -22q0 -13 -9.5 -44zM410 431q-22 13 -52 13q-70 0 -130.5 -43.5t-96.5 -108.5t-36 -127q0 -46 17.5 -67.5t53.5 -21.5q34 0 77 25.5t84 87.5t65 162zM564 567q33 1 55 18t24 36q2 30 -13 55q-3 4 -3 9l1 8
q1 13 15.5 26.5t35.5 13.5q23 0 36 -18t13 -47q0 -35 -16.5 -65.5t-44.5 -49t-59 -18.5q-45 0 -44 32z" />
    <glyph glyph-name="Dcroat" unicode="&#x110;" horiz-adv-x="665" 
d="M569.5 609q90.5 -76 90.5 -220q0 -130 -68.5 -218.5t-194 -132.5t-296.5 -44q-42 0 -59 11t-17 39q0 10 15 14.5t52 3.5l21 -1q19 132 43 240q-58 -12 -86 -12q-49 0 -49 45q0 10 1 15q71 9 139 22l12 2q36 133 77 239q-37 -3 -62 -8.5t-54 -13.5q-21 -7 -27 -7
q-18 0 -18 11q0 26 35 47t87.5 32.5t100.5 11.5q167 0 257.5 -76zM471 153q105 77 105 215q0 117 -71.5 179t-191.5 67q-37 -122 -60 -228q80 12 117 12q71 0 71 -47q0 -10 -5 -27l-2 -1q-6 2 -18 4q-23 4 -52 4q-49 0 -125 -13q-24 -123 -43 -255q170 13 275 90z" />
    <glyph glyph-name="dcroat" unicode="&#x111;" horiz-adv-x="571" 
d="M655.5 633.5q30.5 -12.5 30.5 -34.5q0 -10 -8 -26q-51 15 -142 19l-6 -20q-32 -101 -58 -210.5t-26 -178.5q0 -100 43 -129q-2 -15 -18 -28t-35 -13q-37 0 -58 44.5t-21 97.5q-50 -86 -108.5 -118t-120.5 -32q-60 0 -92.5 34.5t-32.5 98.5q0 88 54 174t139 141t171 55
q31 0 56 -13q16 68 21 85l4 16q-40 1 -88.5 -2.5t-72.5 -8.5q-21 -4 -21 22q0 9 1 14q7 39 201 39q25 63 47 77q10 6 17.5 8t19.5 2q24 0 24 -22q0 -19 -18 -71q67 -8 97.5 -20.5zM410 431q-22 13 -52 13q-70 0 -130.5 -43.5t-96.5 -108.5t-36 -127q0 -46 17.5 -67.5
t53.5 -21.5q34 0 77 25.5t84 87.5t65 162z" />
    <glyph glyph-name="Emacron" unicode="&#x112;" horiz-adv-x="533" 
d="M530 623q0 -16 -7 -29.5t-19 -21.5q-15 17 -45.5 26t-69.5 9q-73 0 -115.5 -23t-65 -65t-41.5 -114l-15 -57q20 2 60 4q75 5 123.5 11.5t95.5 22.5q9 -7 12.5 -14.5t2.5 -19.5q-1 -34 -48 -44t-137 -12q-89 -2 -125 -11l-16 -60q-16 -62 -16 -94q0 -37 19.5 -52.5
t64.5 -15.5q39 0 84.5 7t110.5 20q55 11 62 11q20 0 19 -29q-1 -27 -55 -46t-123.5 -28.5t-112.5 -9.5q-102 0 -140 46q-18 24 -18 76q0 93 61 287q29 92 65.5 156t100.5 97q36 20 86 29.5t75 9.5q127 0 127 -66zM255.5 780.5q-2.5 13.5 -1.5 22.5q1 21 42 31.5t100 10.5
q17 0 47 -2q79 -5 92 -18q4 -4 4 -16q0 -15 -7 -34q-48 2 -72 2q-105 0 -197 -17q-5 7 -7.5 20.5z" />
    <glyph glyph-name="emacron" unicode="&#x113;" horiz-adv-x="484" 
d="M417.5 167q4.5 -8 2.5 -20q-6 -33 -40.5 -67.5t-90.5 -57t-122 -22.5q-37 0 -74.5 15t-64 52t-26.5 99q0 93 48 171t124.5 123t156.5 45q52 0 82.5 -27t30.5 -69q0 -60 -45 -109t-118.5 -77.5t-153.5 -28.5q-19 0 -29 1v-18q0 -49 32.5 -78.5t75.5 -29.5q57 0 104 25.5
t94 82.5q9 -2 13.5 -10zM222 420q-43 -26 -74.5 -72.5t-43.5 -106.5q69 -3 127.5 21.5t92.5 62.5t34 73q0 48 -47 48q-46 0 -89 -26zM173.5 630.5q-2.5 13.5 -1.5 22.5q1 21 42 31.5t100 10.5q17 0 47 -2q79 -5 92 -18q4 -4 4 -16q0 -15 -7 -34q-48 2 -72 2q-105 0 -197 -17
q-5 7 -7.5 20.5z" />
    <glyph glyph-name="Ebreve" unicode="&#x114;" horiz-adv-x="533" 
d="M530 623q0 -16 -7 -29.5t-19 -21.5q-15 17 -45.5 26t-69.5 9q-73 0 -115.5 -23t-65 -65t-41.5 -114l-15 -57q20 2 60 4q75 5 123.5 11.5t95.5 22.5q9 -7 12.5 -14.5t2.5 -19.5q-1 -34 -48 -44t-137 -12q-89 -2 -125 -11l-16 -60q-16 -62 -16 -94q0 -37 19.5 -52.5
t64.5 -15.5q39 0 84.5 7t110.5 20q55 11 62 11q20 0 19 -29q-1 -27 -55 -46t-123.5 -28.5t-112.5 -9.5q-102 0 -140 46q-18 24 -18 76q0 93 61 287q29 92 65.5 156t100.5 97q36 20 86 29.5t75 9.5q127 0 127 -66zM302.5 780.5q-32.5 32.5 -28.5 85.5q3 24 20 24
q11 0 16.5 -6t11 -16t7.5 -14q12 -21 28 -32.5t45 -11.5q50 0 77 45q2 3 7.5 13t12 15.5t12.5 5.5q16 0 14 -20q-3 -51 -39 -86t-99 -35q-52 0 -84.5 32.5z" />
    <glyph glyph-name="ebreve" unicode="&#x115;" horiz-adv-x="484" 
d="M417.5 167q4.5 -8 2.5 -20q-6 -33 -40.5 -67.5t-90.5 -57t-122 -22.5q-37 0 -74.5 15t-64 52t-26.5 99q0 93 48 171t124.5 123t156.5 45q52 0 82.5 -27t30.5 -69q0 -60 -45 -109t-118.5 -77.5t-153.5 -28.5q-19 0 -29 1v-18q0 -49 32.5 -78.5t75.5 -29.5q57 0 104 25.5
t94 82.5q9 -2 13.5 -10zM222 420q-43 -26 -74.5 -72.5t-43.5 -106.5q69 -3 127.5 21.5t92.5 62.5t34 73q0 48 -47 48q-46 0 -89 -26zM242.5 600q-25.5 13 -41.5 38t-16 58q0 43 21 43q12 0 18 -8t16 -30q12 -26 28.5 -39t46.5 -13q45 0 75 51q1 3 7 14t12.5 17.5t12.5 6.5
q14 0 14 -16q0 -29 -19 -60.5t-52 -53t-71 -21.5q-26 0 -51.5 13z" />
    <glyph glyph-name="Edotaccent" unicode="&#x116;" horiz-adv-x="533" 
d="M530 623q0 -16 -7 -29.5t-19 -21.5q-15 17 -45.5 26t-69.5 9q-73 0 -115.5 -23t-65 -65t-41.5 -114l-15 -57q20 2 60 4q75 5 123.5 11.5t95.5 22.5q9 -7 12.5 -14.5t2.5 -19.5q-1 -34 -48 -44t-137 -12q-89 -2 -125 -11l-16 -60q-16 -62 -16 -94q0 -37 19.5 -52.5
t64.5 -15.5q39 0 84.5 7t110.5 20q55 11 62 11q20 0 19 -29q-1 -27 -55 -46t-123.5 -28.5t-112.5 -9.5q-102 0 -140 46q-18 24 -18 76q0 93 61 287q29 92 65.5 156t100.5 97q36 20 86 29.5t75 9.5q127 0 127 -66zM349.5 764.5q-9.5 12.5 -9.5 32.5q0 91 76 91q20 0 30.5 -15
t10.5 -35q0 -18 -10 -38t-29 -34t-44 -14q-15 0 -24.5 12.5z" />
    <glyph glyph-name="edotaccent" unicode="&#x117;" horiz-adv-x="484" 
d="M417.5 167q4.5 -8 2.5 -20q-6 -33 -40.5 -67.5t-90.5 -57t-122 -22.5q-37 0 -74.5 15t-64 52t-26.5 99q0 93 48 171t124.5 123t156.5 45q52 0 82.5 -27t30.5 -69q0 -60 -45 -109t-118.5 -77.5t-153.5 -28.5q-19 0 -29 1v-18q0 -49 32.5 -78.5t75.5 -29.5q57 0 104 25.5
t94 82.5q9 -2 13.5 -10zM222 420q-43 -26 -74.5 -72.5t-43.5 -106.5q69 -3 127.5 21.5t92.5 62.5t34 73q0 48 -47 48q-46 0 -89 -26zM267.5 597.5q-9.5 12.5 -9.5 32.5q0 91 76 91q20 0 30.5 -15t10.5 -35q0 -18 -10 -38t-29 -34t-44 -14q-15 0 -24.5 12.5z" />
    <glyph glyph-name="Eogonek" unicode="&#x118;" horiz-adv-x="517" 
d="M517 623q0 -16 -7 -29.5t-19 -21.5q-15 17 -45.5 26t-69.5 9q-73 0 -115.5 -23t-65 -65t-41.5 -114l-15 -57q20 2 60 4q75 5 123.5 11.5t95.5 22.5q9 -7 12.5 -14.5t2.5 -19.5q-1 -34 -48 -44t-137 -12q-89 -2 -125 -11l-16 -60q-16 -62 -16 -94q0 -37 19.5 -52.5
t64.5 -15.5q66 0 197 35q11 2 33.5 7.5t29.5 5.5q6 0 11 -5.5t5 -13.5q0 -10 -9 -19q-41 -40 -87 -99t-46 -96q0 -19 10 -25t21 -6q26 0 61 20q5 3 9 3q8 0 14.5 -7.5t6.5 -15.5t-5 -13q-52 -49 -122 -49q-81 0 -81 68q0 40 40 91t89 86q-56 -19 -120.5 -30.5t-101.5 -11.5
q-79 0 -110 46q-18 24 -18 76q0 93 61 287q29 92 65.5 156t100.5 97q36 20 86 29.5t75 9.5q127 0 127 -66z" />
    <glyph glyph-name="eogonek" unicode="&#x119;" horiz-adv-x="471" 
d="M418.5 139.5q4.5 -7.5 4.5 -16.5q0 -16 -12 -31q-2 -3 -28 -31q-53 -58 -85.5 -105t-32.5 -88q0 -19 10 -25t21 -6q25 0 61 25q5 3 9 3q8 0 14.5 -7.5t6.5 -15.5t-5 -13q-27 -26 -58.5 -40t-63.5 -14q-81 0 -81 68q0 38 28 85.5t68 88.5q-49 -17 -108 -17q-37 0 -74.5 15
t-64 52t-26.5 99q0 93 48 171t124.5 123t156.5 45q52 0 82.5 -27t30.5 -69q0 -60 -45 -109t-118.5 -77.5t-153.5 -28.5q-19 0 -29 1v-18q0 -49 32.5 -78.5t75.5 -29.5q110 0 199 80q9 -2 13.5 -9.5zM222 420q-43 -26 -74.5 -72.5t-43.5 -106.5q69 -3 127.5 21.5t92.5 62.5
t34 73q0 48 -47 48q-46 0 -89 -26z" />
    <glyph glyph-name="Ecaron" unicode="&#x11a;" horiz-adv-x="533" 
d="M530 623q0 -16 -7 -29.5t-19 -21.5q-15 17 -45.5 26t-69.5 9q-73 0 -115.5 -23t-65 -65t-41.5 -114l-15 -57q20 2 60 4q75 5 123.5 11.5t95.5 22.5q9 -7 12.5 -14.5t2.5 -19.5q-1 -34 -48 -44t-137 -12q-89 -2 -125 -11l-16 -60q-16 -62 -16 -94q0 -37 19.5 -52.5
t64.5 -15.5q39 0 84.5 7t110.5 20q55 11 62 11q20 0 19 -29q-1 -27 -55 -46t-123.5 -28.5t-112.5 -9.5q-102 0 -140 46q-18 24 -18 76q0 93 61 287q29 92 65.5 156t100.5 97q36 20 86 29.5t75 9.5q127 0 127 -66zM588 877q0 -9 -20 -19q-87 -40 -149 -110q-6 -8 -20 -8
q-12 0 -16 7q-19 29 -52.5 65t-63.5 59q8 18 32 18q23 0 54.5 -22t52.5 -49q24 21 57 39t62 28q23 9 39 9q12 0 18 -6t6 -11z" />
    <glyph glyph-name="ecaron" unicode="&#x11b;" horiz-adv-x="484" 
d="M417.5 167q4.5 -8 2.5 -20q-6 -33 -40.5 -67.5t-90.5 -57t-122 -22.5q-37 0 -74.5 15t-64 52t-26.5 99q0 93 48 171t124.5 123t156.5 45q52 0 82.5 -27t30.5 -69q0 -60 -45 -109t-118.5 -77.5t-153.5 -28.5q-19 0 -29 1v-18q0 -49 32.5 -78.5t75.5 -29.5q57 0 104 25.5
t94 82.5q9 -2 13.5 -10zM222 420q-43 -26 -74.5 -72.5t-43.5 -106.5q69 -3 127.5 21.5t92.5 62.5t34 73q0 48 -47 48q-46 0 -89 -26zM489 713q0 -4 -5.5 -9t-13.5 -10q-45 -25 -89 -59t-66 -60q-6 -8 -16 -8q-9 0 -13 7q-17 26 -54 72t-63 72q9 21 32 21q26 0 56.5 -26.5
t54.5 -61.5q25 23 56 42t59 28q19 9 39 9q10 0 14 -4q9 -7 9 -13z" />
    <glyph glyph-name="Gcircumflex" unicode="&#x11c;" horiz-adv-x="708" 
d="M670 292q-11 0 -33 4.5t-29 5.5l-58 -271q-1 -4 -5 -23t-12 -35q-6 -12 -22.5 -24t-27.5 -12q-16 0 -16 25q0 34 31 167q-47 -66 -107.5 -97.5t-126.5 -31.5q-115 0 -166 63t-51 170q0 105 62 212t166 177t222 70q60 0 100.5 -20t40.5 -53q0 -13 -8 -20t-20 -7
q-18 0 -45 12q-23 9 -43 14t-45 5q-97 0 -171.5 -52t-115.5 -134.5t-41 -168.5q0 -85 31.5 -144t104.5 -59q55 0 107.5 36.5t91 94t53.5 115.5q-6 1 -19 1q-43 0 -81 -4q-20 -2 -31 -2q-27 0 -27 18q0 23 36 34.5t93 11.5q70 0 129 -12.5t60 -43.5q2 -22 -27 -22zM574.5 830
q36.5 -44 69.5 -71q-11 -21 -31 -21q-28 -1 -60.5 25.5t-58.5 61.5q-24 -23 -56 -41.5t-64 -29.5q-25 -7 -39 -7q-11 0 -15 4q-9 8 -9 11t4.5 6.5t8.5 6.5t6 4q45 24 91 60t70 65q6 8 16 8q9 0 14 -8q17 -30 53.5 -74z" />
    <glyph glyph-name="gcircumflex" unicode="&#x11d;" horiz-adv-x="516" 
d="M451 504q9 0 13 -0.5t0 0.5q7 -2 10.5 -7.5t3.5 -16.5q0 -3 -2 -21q-13 -98 -36.5 -216t-48.5 -217q-31 -125 -99.5 -189t-165.5 -64q-60 0 -105.5 21.5t-48.5 55.5q0 13 6.5 22.5t20.5 9.5q10 0 19 -3.5t23 -10.5q24 -12 46 -18.5t56 -6.5q66 0 108 55.5t63.5 129.5
t49.5 204q-33 -87 -92 -138t-133 -51q-61 0 -98 38t-37 103q0 82 41.5 162.5t109.5 131.5t143 51q59 0 62 -43q-6 1 -18 1q-58 0 -117.5 -43.5t-98.5 -110.5t-39 -132q0 -41 21.5 -64.5t61.5 -23.5q48 0 89.5 43.5t70.5 105t44 118.5q2 7 19 48q19 42 19 52q0 5 -4 5
q-3 0 19 15q14 4 24 4zM441 661.5q36 -47.5 61 -71.5q-11 -21 -31 -21q-28 -1 -59 28.5t-57 68.5q-27 -27 -58 -49t-59 -32q-28 -8 -40 -8q-9 0 -14 5q-9 6 -9 12q0 7 19 20q43 23 87.5 60.5t70.5 69.5q6 8 17 8q4 0 8 -2t5 -6q23 -35 59 -82.5z" />
    <glyph glyph-name="Gbreve" unicode="&#x11e;" horiz-adv-x="708" 
d="M670 292q-11 0 -33 4.5t-29 5.5l-58 -271q-1 -4 -5 -23t-12 -35q-6 -12 -22.5 -24t-27.5 -12q-16 0 -16 25q0 34 31 167q-47 -66 -107.5 -97.5t-126.5 -31.5q-115 0 -166 63t-51 170q0 105 62 212t166 177t222 70q60 0 100.5 -20t40.5 -53q0 -13 -8 -20t-20 -7
q-18 0 -45 12q-23 9 -43 14t-45 5q-97 0 -171.5 -52t-115.5 -134.5t-41 -168.5q0 -85 31.5 -144t104.5 -59q55 0 107.5 36.5t91 94t53.5 115.5q-6 1 -19 1q-43 0 -81 -4q-20 -2 -31 -2q-27 0 -27 18q0 23 36 34.5t93 11.5q70 0 129 -12.5t60 -43.5q2 -22 -27 -22z
M380.5 780.5q-32.5 32.5 -28.5 85.5q3 24 20 24q11 0 16.5 -6t11 -16t7.5 -14q12 -21 28 -32.5t45 -11.5q50 0 77 45q2 3 7.5 13t12 15.5t12.5 5.5q16 0 14 -20q-3 -51 -39 -86t-99 -35q-52 0 -84.5 32.5z" />
    <glyph glyph-name="gbreve" unicode="&#x11f;" horiz-adv-x="516" 
d="M451 504q9 0 13 -0.5t0 0.5q7 -2 10.5 -7.5t3.5 -16.5q0 -3 -2 -21q-13 -98 -36.5 -216t-48.5 -217q-31 -125 -99.5 -189t-165.5 -64q-60 0 -105.5 21.5t-48.5 55.5q0 13 6.5 22.5t20.5 9.5q10 0 19 -3.5t23 -10.5q24 -12 46 -18.5t56 -6.5q66 0 108 55.5t63.5 129.5
t49.5 204q-33 -87 -92 -138t-133 -51q-61 0 -98 38t-37 103q0 82 41.5 162.5t109.5 131.5t143 51q59 0 62 -43q-6 1 -18 1q-58 0 -117.5 -43.5t-98.5 -110.5t-39 -132q0 -41 21.5 -64.5t61.5 -23.5q48 0 89.5 43.5t70.5 105t44 118.5q2 7 19 48q19 42 19 52q0 5 -4 5
q-3 0 19 15q14 4 24 4zM271.5 600q-25.5 13 -41.5 38t-16 58q0 43 21 43q12 0 18 -8t16 -30q12 -26 28.5 -39t46.5 -13q45 0 75 51q1 3 7 14t12.5 17.5t12.5 6.5q14 0 14 -16q0 -29 -19 -60.5t-52 -53t-71 -21.5q-26 0 -51.5 13z" />
    <glyph glyph-name="Gdotaccent" unicode="&#x120;" horiz-adv-x="708" 
d="M670 292q-11 0 -33 4.5t-29 5.5l-58 -271q-1 -4 -5 -23t-12 -35q-6 -12 -22.5 -24t-27.5 -12q-16 0 -16 25q0 34 31 167q-47 -66 -107.5 -97.5t-126.5 -31.5q-115 0 -166 63t-51 170q0 105 62 212t166 177t222 70q60 0 100.5 -20t40.5 -53q0 -13 -8 -20t-20 -7
q-18 0 -45 12q-23 9 -43 14t-45 5q-97 0 -171.5 -52t-115.5 -134.5t-41 -168.5q0 -85 31.5 -144t104.5 -59q55 0 107.5 36.5t91 94t53.5 115.5q-6 1 -19 1q-43 0 -81 -4q-20 -2 -31 -2q-27 0 -27 18q0 23 36 34.5t93 11.5q70 0 129 -12.5t60 -43.5q2 -22 -27 -22z
M427.5 764.5q-9.5 12.5 -9.5 32.5q0 91 76 91q20 0 30.5 -15t10.5 -35q0 -18 -10 -38t-29 -34t-44 -14q-15 0 -24.5 12.5z" />
    <glyph glyph-name="gdotaccent" unicode="&#x121;" horiz-adv-x="516" 
d="M451 504q9 0 13 -0.5t0 0.5q7 -2 10.5 -7.5t3.5 -16.5q0 -3 -2 -21q-13 -98 -36.5 -216t-48.5 -217q-31 -125 -99.5 -189t-165.5 -64q-60 0 -105.5 21.5t-48.5 55.5q0 13 6.5 22.5t20.5 9.5q10 0 19 -3.5t23 -10.5q24 -12 46 -18.5t56 -6.5q66 0 108 55.5t63.5 129.5
t49.5 204q-33 -87 -92 -138t-133 -51q-61 0 -98 38t-37 103q0 82 41.5 162.5t109.5 131.5t143 51q59 0 62 -43q-6 1 -18 1q-58 0 -117.5 -43.5t-98.5 -110.5t-39 -132q0 -41 21.5 -64.5t61.5 -23.5q48 0 89.5 43.5t70.5 105t44 118.5q2 7 19 48q19 42 19 52q0 5 -4 5
q-3 0 19 15q14 4 24 4zM296.5 597.5q-9.5 12.5 -9.5 32.5q0 91 76 91q20 0 30.5 -15t10.5 -35q0 -18 -10 -38t-29 -34t-44 -14q-15 0 -24.5 12.5z" />
    <glyph glyph-name="Gcommaaccent" unicode="&#x122;" horiz-adv-x="708" 
d="M670 292q-11 0 -33 4.5t-29 5.5l-58 -271q-1 -4 -5 -23t-12 -35q-6 -12 -22.5 -24t-27.5 -12q-16 0 -16 25q0 34 31 167q-47 -66 -107.5 -97.5t-126.5 -31.5q-115 0 -166 63t-51 170q0 105 62 212t166 177t222 70q60 0 100.5 -20t40.5 -53q0 -13 -8 -20t-20 -7
q-18 0 -45 12q-23 9 -43 14t-45 5q-97 0 -171.5 -52t-115.5 -134.5t-41 -168.5q0 -85 31.5 -144t104.5 -59q55 0 107.5 36.5t91 94t53.5 115.5q-6 1 -19 1q-43 0 -81 -4q-20 -2 -31 -2q-27 0 -27 18q0 23 36 34.5t93 11.5q70 0 129 -12.5t60 -43.5q2 -22 -27 -22zM198 -208
q33 1 55 18t24 36q2 30 -13 55q-3 4 -3 9l1 8q1 13 15.5 26.5t35.5 13.5q23 0 36 -18t13 -47q0 -35 -16.5 -65.5t-44.5 -49t-59 -18.5q-45 0 -44 32z" />
    <glyph glyph-name="gcommaaccent" unicode="&#x123;" horiz-adv-x="515" 
d="M302 603q-13 18 -13 47q0 35 16.5 65.5t44.5 49t59 18.5q45 0 44 -32q-33 -1 -55 -18t-24 -36q-2 -30 13 -55q3 -4 3 -9l-1 -8q-1 -13 -15.5 -26.5t-35.5 -13.5q-23 0 -36 18zM451 504q9 0 13 -0.5t0 0.5q7 -2 10.5 -7.5t3.5 -16.5q0 -3 -2 -21q-13 -98 -36.5 -216
t-48.5 -217q-31 -125 -99.5 -189t-165.5 -64q-60 0 -105.5 21.5t-48.5 55.5q0 13 6.5 22.5t20.5 9.5q10 0 19 -3.5t23 -10.5q24 -12 46 -18.5t56 -6.5q66 0 108 55.5t63.5 129.5t49.5 204q-33 -87 -92 -138t-133 -51q-61 0 -98 38t-37 103q0 82 41.5 162.5t109.5 131.5
t143 51q59 0 62 -43q-6 1 -18 1q-58 0 -117.5 -43.5t-98.5 -110.5t-39 -132q0 -41 21.5 -64.5t61.5 -23.5q48 0 89.5 43.5t70.5 105t44 118.5q2 7 19 48q19 42 19 52q0 5 -4 5q-3 0 19 15q14 4 24 4z" />
    <glyph glyph-name="Hcircumflex" unicode="&#x124;" horiz-adv-x="638" 
d="M611 418.5q9 -12.5 8 -28.5q-1 -8 -5.5 -9.5t-26.5 -0.5q-6 1 -22 1q-17 0 -27 -1q-43 -163 -55 -360q-4 -2 -15.5 -3.5t-19.5 -1.5q-25 0 -35 13.5t-10 40.5q0 61 13 140.5t37 164.5q-70 -8 -144.5 -21.5t-126.5 -29.5q-42 -159 -68 -349q-7 -1 -19 -1q-30 0 -42.5 15
t-12.5 52q0 18 1 29q4 58 32.5 178t70.5 240.5t88 187.5q12 2 16 2q19 0 30 -9.5t11 -26.5t-10 -38q-46 -106 -80 -221q50 16 124 28.5t146 18.5q29 95 66 179t75 136q23 1 39.5 -10t18.5 -24q-76 -149 -115 -277q20 0 28 -1q21 -1 30 -13.5zM504.5 830q36.5 -44 69.5 -71
q-11 -21 -31 -21q-28 -1 -60.5 25.5t-58.5 61.5q-24 -23 -56 -41.5t-64 -29.5q-25 -7 -39 -7q-11 0 -15 4q-9 8 -9 11t4.5 6.5t8.5 6.5t6 4q45 24 91 60t70 65q6 8 16 8q9 0 14 -8q17 -30 53.5 -74z" />
    <glyph glyph-name="hcircumflex" unicode="&#x125;" horiz-adv-x="551" 
d="M489 54q0 -22 -18.5 -37t-44.5 -15q-84 0 -84 125q0 42 5.5 79.5t15.5 92.5q12 57 12 80q0 14 -7 14q-22 0 -73 -49t-92 -112q-52 -81 -80 -132t-46 -101q-25 2 -36 17.5t-11 54.5q0 106 30.5 256t96.5 323q21 55 41.5 79.5t51.5 24.5q12 0 12 -16t-7 -37
q-92 -244 -134 -499q40 70 101.5 143t121.5 121t95 48q32 0 32 -43q0 -33 -24 -163q-25 -127 -25 -164q0 -63 36 -63q5 0 12 2t10 5q9 -13 9 -34zM338.5 881q36.5 -44 69.5 -71q-11 -21 -31 -21q-28 -1 -60.5 25.5t-58.5 61.5q-24 -23 -56 -41.5t-64 -29.5q-25 -7 -39 -7
q-11 0 -15 4q-9 8 -9 11t4.5 6.5t8.5 6.5t6 4q45 24 91 60t70 65q6 8 16 8q9 0 14 -8q17 -30 53.5 -74z" />
    <glyph glyph-name="Hbar" unicode="&#x126;" horiz-adv-x="655" 
d="M703 568.5q9 -12.5 8 -28.5q-1 -8 -5.5 -9.5t-26.5 -0.5q-8 1 -27 1q-20 0 -32 -1q-49 -117 -76.5 -238.5t-39.5 -271.5q-4 -2 -15.5 -3.5t-19.5 -1.5q-24 0 -34 12t-10 36q0 109 46 275q-66 -5 -146 -19t-130 -30q-37 -153 -61 -315q-7 -1 -19 -1q-29 0 -41.5 14.5
t-12.5 49.5q0 8 2 32q5 56 32.5 173.5t65.5 230.5q-51 -11 -80 -21q-4 7 -4 19q0 16 8.5 30t24.5 19q24 9 75 19q38 103 80 166q12 2 16 2q19 0 29.5 -8.5t10.5 -25.5q0 -15 -11 -40q-8 -18 -22 -54l-10 -24q135 19 281 26q37 81 75 133q23 1 39 -10t18 -24q-28 -55 -48 -97
l30 -1q21 -1 30 -13.5zM535 525q-132 -9 -280 -34q-23 -64 -45 -145q48 18 128.5 30.5t148.5 15.5q22 72 48 133z" />
    <glyph glyph-name="hbar" unicode="&#x127;" horiz-adv-x="555" 
d="M493 54q0 -22 -18.5 -37t-44.5 -15q-84 0 -84 125q0 42 5.5 79.5t15.5 92.5q12 57 12 80q0 14 -7 14q-22 0 -73 -49t-92 -112q-52 -81 -80 -132t-46 -101q-25 2 -36 17.5t-11 54.5q0 93 24 222t75 279q-79 -11 -118 -24q-25 -7 -23 34q2 37 165 56l4 12q21 55 41.5 79.5
t51.5 24.5q12 0 12 -16t-7 -37l-21 -56l38 1q71 0 102.5 -10.5t31.5 -35.5q0 -8 -5 -23q-31 6 -81 6q-25 0 -108 -5q-59 -181 -91 -376q40 70 101.5 143t121.5 121t95 48q32 0 32 -43q0 -33 -24 -163q-25 -127 -25 -164q0 -63 36 -63q5 0 12 2t10 5q9 -13 9 -34z" />
    <glyph glyph-name="Itilde" unicode="&#x128;" horiz-adv-x="530" 
d="M559 671q0 -29 -21.5 -46.5t-57.5 -17.5q-17 0 -36 1.5t-28 1.5l-34 3q-41 -76 -73 -230.5t-37 -288.5l24 1q34 2 48 2q22 0 39 -3q27 -5 43.5 -20.5t16.5 -38.5q0 -13 -8 -31q-24 11 -50 15.5t-66 4.5q-31 0 -68 -4t-70 -9q-31 -5 -63 -8.5t-59 -3.5q-30 0 -48.5 13
t-18.5 34q0 17 13 34q38 -5 63 -5q41 0 95 9l24 3q8 122 43 275.5t79 251.5q-92 0 -130 -7q-4 -1 -12 -1q-28 0 -28 32q0 25 12.5 38.5t33.5 13.5q28 0 81 -5q76 -6 114 -6l63 -1q78 0 115 7q1 -5 1 -14zM220 790q0 37 27 60.5t64 23.5q24 0 43.5 -10t41.5 -27
q19 -14 28.5 -19.5t20.5 -5.5q26 0 39.5 17.5t14.5 46.5q31 -9 31 -44q0 -32 -16.5 -50t-37 -24.5t-34.5 -6.5q-22 0 -38 8t-37 24q-20 14 -31 20t-25 6q-20 0 -35 -16t-23 -45q-33 8 -33 42z" />
    <glyph glyph-name="itilde" unicode="&#x129;" horiz-adv-x="238" 
d="M25 59q0 34 38 196.5t52 197.5q7 18 20 28.5t29 10.5t22 -8t6 -23q0 -21 -6.5 -49t-19.5 -70q-14 -51 -22 -82.5t-11 -63.5q-7 -60 -9 -96l-4 -39q-2 -22 -17.5 -34t-41.5 -12q-36 0 -36 44zM22 631q0 37 27 60.5t64 23.5q24 0 43.5 -10t41.5 -27q19 -14 28.5 -19.5
t20.5 -5.5q26 0 39.5 17.5t14.5 46.5q31 -9 31 -44q0 -32 -16.5 -50t-37 -24.5t-34.5 -6.5q-22 0 -38 8t-37 24q-19 14 -30.5 20t-25.5 6q-20 0 -35 -16t-23 -45q-33 8 -33 42z" />
    <glyph glyph-name="Imacron" unicode="&#x12a;" horiz-adv-x="530" 
d="M559 671q0 -29 -21.5 -46.5t-57.5 -17.5q-17 0 -36 1.5t-28 1.5l-34 3q-41 -76 -73 -230.5t-37 -288.5l24 1q34 2 48 2q22 0 39 -3q27 -5 43.5 -20.5t16.5 -38.5q0 -13 -8 -31q-24 11 -50 15.5t-66 4.5q-31 0 -68 -4t-70 -9q-31 -5 -63 -8.5t-59 -3.5q-30 0 -48.5 13
t-18.5 34q0 17 13 34q38 -5 63 -5q41 0 95 9l24 3q8 122 43 275.5t79 251.5q-92 0 -130 -7q-4 -1 -12 -1q-28 0 -28 32q0 25 12.5 38.5t33.5 13.5q28 0 81 -5q76 -6 114 -6l63 -1q78 0 115 7q1 -5 1 -14zM232.5 780.5q-2.5 13.5 -1.5 22.5q1 21 42 31.5t100 10.5q17 0 47 -2
q79 -5 92 -18q4 -4 4 -16q0 -15 -7 -34q-48 2 -72 2q-105 0 -197 -17q-5 7 -7.5 20.5z" />
    <glyph glyph-name="imacron" unicode="&#x12b;" horiz-adv-x="238" 
d="M25 59q0 34 38 196.5t52 197.5q7 18 20 28.5t29 10.5t22 -8t6 -23q0 -21 -6.5 -49t-19.5 -70q-14 -51 -22 -82.5t-11 -63.5q-7 -60 -9 -96l-4 -39q-2 -22 -17.5 -34t-41.5 -12q-36 0 -36 44zM59.5 630.5q-2.5 13.5 -1.5 22.5q1 21 42 31.5t100 10.5q17 0 47 -2
q79 -5 92 -18q4 -4 4 -16q0 -15 -7 -34q-48 2 -72 2q-105 0 -197 -17q-5 7 -7.5 20.5z" />
    <glyph glyph-name="Ibreve" unicode="&#x12c;" horiz-adv-x="530" 
d="M559 671q0 -29 -21.5 -46.5t-57.5 -17.5q-17 0 -36 1.5t-28 1.5l-34 3q-41 -76 -73 -230.5t-37 -288.5l24 1q34 2 48 2q22 0 39 -3q27 -5 43.5 -20.5t16.5 -38.5q0 -13 -8 -31q-24 11 -50 15.5t-66 4.5q-31 0 -68 -4t-70 -9q-31 -5 -63 -8.5t-59 -3.5q-30 0 -48.5 13
t-18.5 34q0 17 13 34q38 -5 63 -5q41 0 95 9l24 3q8 122 43 275.5t79 251.5q-92 0 -130 -7q-4 -1 -12 -1q-28 0 -28 32q0 25 12.5 38.5t33.5 13.5q28 0 81 -5q76 -6 114 -6l63 -1q78 0 115 7q1 -5 1 -14zM279.5 780.5q-32.5 32.5 -28.5 85.5q3 24 20 24q11 0 16.5 -6t11 -16
t7.5 -14q12 -21 28 -32.5t45 -11.5q50 0 77 45q2 3 7.5 13t12 15.5t12.5 5.5q16 0 14 -20q-3 -51 -39 -86t-99 -35q-52 0 -84.5 32.5z" />
    <glyph glyph-name="ibreve" unicode="&#x12d;" horiz-adv-x="238" 
d="M25 59q0 34 38 196.5t52 197.5q7 18 20 28.5t29 10.5t22 -8t6 -23q0 -21 -6.5 -49t-19.5 -70q-14 -51 -22 -82.5t-11 -63.5q-7 -60 -9 -96l-4 -39q-2 -22 -17.5 -34t-41.5 -12q-36 0 -36 44zM128.5 600q-25.5 13 -41.5 38t-16 58q0 43 21 43q12 0 18 -8t16 -30
q12 -26 28.5 -39t46.5 -13q45 0 75 51q1 3 7 14t12.5 17.5t12.5 6.5q14 0 14 -16q0 -29 -19 -60.5t-52 -53t-71 -21.5q-26 0 -51.5 13z" />
    <glyph glyph-name="Iogonek" unicode="&#x12e;" horiz-adv-x="530" 
d="M559 671q0 -29 -21.5 -46.5t-57.5 -17.5q-17 0 -36 1.5t-28 1.5l-34 3q-41 -75 -73 -229.5t-36 -288.5q30 3 60 3q33 0 50 -4q24 -4 42 -14t18 -26q0 -14 -15 -30l-23 -23q-39 -35 -65.5 -67t-26.5 -60q0 -19 10 -25t21 -6q20 0 61 23q5 3 9 3q8 0 14.5 -7.5t6.5 -15.5
t-5 -13q-27 -25 -58.5 -38.5t-63.5 -13.5q-81 0 -81 58q0 44 44.5 96t98.5 87q-30 2 -51 2q-31 0 -68 -4t-70 -9q-31 -5 -63 -8.5t-59 -3.5q-30 0 -48.5 13t-18.5 34q0 17 13 34q31 -5 68 -5q35 0 70 5t44 6q7 122 42.5 275.5t79.5 252.5q-92 0 -130 -7q-4 -1 -12 -1
q-28 0 -28 32q0 25 12.5 38.5t33.5 13.5q28 0 81 -5q76 -6 114 -6l63 -1q78 0 115 7q1 -5 1 -14z" />
    <glyph glyph-name="iogonek" unicode="&#x12f;" horiz-adv-x="232" 
d="M254 726.5q10 -10.5 9 -26.5q0 -20 -9.5 -46t-26.5 -45t-39 -19q-12 0 -18.5 11t-6.5 30q0 57 15.5 81.5t47.5 24.5q18 0 28 -10.5zM198 484q6 -8 6 -23q0 -21 -6.5 -49t-19.5 -70q-14 -51 -22 -82.5t-11 -63.5q-6 -36 -12 -108l-5 -46q-56 -47 -97 -90t-41 -82
q0 -19 8.5 -26t17.5 -7q26 0 61 20q4 3 9 3q8 0 14.5 -7.5t6.5 -15.5t-5 -13q-52 -49 -122 -49q-76 0 -76 70q0 43 44.5 98t94.5 87q-6 11 -6 29q0 34 38 196.5t52 197.5q7 18 20 28.5t29 10.5t22 -8z" />
    <glyph glyph-name="Idotaccent" unicode="&#x130;" horiz-adv-x="530" 
d="M559 671q0 -29 -21.5 -46.5t-57.5 -17.5q-17 0 -36 1.5t-28 1.5l-34 3q-41 -76 -73 -230.5t-37 -288.5l24 1q34 2 48 2q22 0 39 -3q27 -5 43.5 -20.5t16.5 -38.5q0 -13 -8 -31q-24 11 -50 15.5t-66 4.5q-31 0 -68 -4t-70 -9q-31 -5 -63 -8.5t-59 -3.5q-30 0 -48.5 13
t-18.5 34q0 17 13 34q38 -5 63 -5q41 0 95 9l24 3q8 122 43 275.5t79 251.5q-92 0 -130 -7q-4 -1 -12 -1q-28 0 -28 32q0 25 12.5 38.5t33.5 13.5q28 0 81 -5q76 -6 114 -6l63 -1q78 0 115 7q1 -5 1 -14zM326.5 764.5q-9.5 12.5 -9.5 32.5q0 91 76 91q20 0 30.5 -15
t10.5 -35q0 -18 -10 -38t-29 -34t-44 -14q-15 0 -24.5 12.5z" />
    <glyph glyph-name="dotlessi" unicode="&#x131;" horiz-adv-x="238" 
d="M25 59q0 34 38 196.5t52 197.5q7 18 20 28.5t29 10.5t22 -8t6 -23q0 -21 -6.5 -49t-19.5 -70q-14 -51 -22 -82.5t-11 -63.5q-7 -60 -9 -96l-4 -39q-2 -22 -17.5 -34t-41.5 -12q-36 0 -36 44z" />
    <glyph glyph-name="IJ" unicode="&#x132;" horiz-adv-x="1062" 
d="M559 671q0 -29 -21.5 -46.5t-57.5 -17.5q-17 0 -36 1.5t-28 1.5l-34 3q-41 -76 -73 -230.5t-37 -288.5l24 1q34 2 48 2q22 0 39 -3q27 -5 43.5 -20.5t16.5 -38.5q0 -13 -8 -31q-24 11 -50 15.5t-66 4.5q-31 0 -68 -4t-70 -9q-31 -5 -63 -8.5t-59 -3.5q-30 0 -48.5 13
t-18.5 34q0 17 13 34q38 -5 63 -5q41 0 95 9l24 3q8 122 43 275.5t79 251.5q-92 0 -130 -7q-4 -1 -12 -1q-28 0 -28 32q0 25 12.5 38.5t33.5 13.5q28 0 81 -5q76 -6 114 -6l63 -1q78 0 115 7q1 -5 1 -14zM1007.5 681q40.5 -7 40.5 -30q0 -13 -5.5 -40.5t-10.5 -50.5t-8 -35
l-30 -132q-7 -35 -10 -47q-22 -110 -46.5 -185t-77 -130.5t-138.5 -55.5q-83 0 -129.5 46t-46.5 116q0 26 14 38t33 12q15 0 23.5 -12.5t20.5 -41.5q16 -42 35.5 -66t61.5 -24q47 0 80 33t57 105.5t45 196.5l41 239q-79 1 -172 -12q-51 -7 -78 -7q-16 0 -29 8t-13 29
t24 31.5t68 14.5q75 7 131 7q79 0 119.5 -7z" />
    <glyph glyph-name="ij" unicode="&#x133;" horiz-adv-x="491" 
d="M157.5 601q-6.5 11 -6.5 30q0 57 15.5 81.5t47.5 24.5q18 0 28 -10.5t9 -26.5q0 -20 -9.5 -46t-26.5 -45t-39 -19q-12 0 -18.5 11zM25 59q0 34 38 196.5t52 197.5q7 18 20 28.5t29 10.5t22 -8t6 -23q0 -21 -6.5 -49t-19.5 -70q-14 -51 -22 -82.5t-11 -63.5q-7 -60 -9 -96
l-4 -39q-2 -22 -17.5 -34t-41.5 -12q-36 0 -36 44zM380 613q-7 12 -8 33q0 38 17.5 72t46.5 34q19 1 30 -8t11 -25q0 -19 -13.5 -47t-32.5 -49t-32 -21q-12 -1 -19 11zM65.5 -207.5q-32.5 18.5 -33.5 51.5q0 19 8 30t22 12q8 0 14.5 -3.5t10.5 -6.5t6 -4q15 -12 28.5 -18
t35.5 -6q52 0 82.5 66.5t57.5 181.5q17 68 30.5 171t13.5 162q0 31 12 47t32 16q49 0 49 -58q0 -46 -31 -203l-4 -21q-22 -116 -46.5 -203t-77.5 -160t-136 -73q-41 0 -73.5 18.5z" />
    <glyph glyph-name="Jcircumflex" unicode="&#x134;" horiz-adv-x="532" 
d="M477.5 681q40.5 -7 40.5 -30q0 -13 -5.5 -40.5t-10.5 -50.5t-8 -35l-30 -132q-7 -35 -10 -47q-22 -110 -46.5 -185t-77 -130.5t-138.5 -55.5q-83 0 -129.5 46t-46.5 116q0 26 14 38t33 12q15 0 23.5 -12.5t20.5 -41.5q16 -42 35.5 -66t61.5 -24q47 0 80 33t57 105.5
t45 196.5l41 239q-79 1 -172 -12q-51 -7 -78 -7q-16 0 -29 8t-13 29t24 31.5t68 14.5q75 7 131 7q79 0 119.5 -7zM445.5 830q36.5 -44 69.5 -71q-11 -21 -31 -21q-28 -1 -60.5 25.5t-58.5 61.5q-24 -23 -56 -41.5t-64 -29.5q-25 -7 -39 -7q-11 0 -15 4q-9 8 -9 11t4.5 6.5
t8.5 6.5t6 4q45 24 91 60t70 65q6 8 16 8q9 0 14 -8q17 -30 53.5 -74z" />
    <glyph glyph-name="jcircumflex" unicode="&#x135;" horiz-adv-x="245" 
d="M-197.5 -203q-31.5 21 -31.5 61q0 19 8 30t22 11q7 0 12.5 -4t14.5 -13q17 -15 31 -23.5t37 -8.5q59 0 94 60.5t58 142.5q25 93 42.5 201t19.5 173q1 29 13 46t32 17q48 0 48 -59q0 -26 -7.5 -66.5t-23.5 -117.5q-2 -9 -3.5 -19t-4.5 -21q-24 -112 -52.5 -199.5
t-87 -159.5t-148.5 -72q-42 0 -73.5 21zM283 661.5q36 -47.5 61 -71.5q-11 -21 -31 -21q-28 -1 -59 28.5t-57 68.5q-27 -27 -58 -49t-59 -32q-28 -8 -40 -8q-9 0 -14 5q-9 6 -9 12q0 7 19 20q43 23 87.5 60.5t70.5 69.5q6 8 17 8q4 0 8 -2t5 -6q23 -35 59 -82.5z" />
    <glyph glyph-name="Kcommaaccent" unicode="&#x136;" horiz-adv-x="618" 
d="M633 673.5q10 -11.5 10 -24.5q0 -19 -8 -34.5t-30 -40.5q-40 -47 -112.5 -104t-161.5 -105q36 -92 66 -154.5t71.5 -112t88.5 -53.5q1 -4 1 -12q0 -24 -18.5 -38.5t-46.5 -14.5q-69 0 -131 110t-106 237l-41 -18l-1 -8q-20 -94 -64 -227l-9 -27q-10 -32 -28.5 -46.5
t-42.5 -14.5q-14 0 -22 9t-8 25q0 36 25 100q48 122 74 204t41 187q6 53 8 97q0 18 1 26q1 31 15.5 44.5t46.5 13.5q36 0 36 -40q0 -24 -17 -90q-24 -92 -44 -196q73 30 136.5 76.5t109 95t69.5 87.5q16 26 31.5 43t35.5 17q15 0 25 -11.5zM317 -20q13 -18 13 -47
q0 -35 -16.5 -65.5t-44.5 -49t-59 -18.5q-45 0 -44 32q33 1 55 18t24 36q2 30 -13 55q-3 4 -3 9l1 8q1 13 15.5 26.5t35.5 13.5q23 0 36 -18z" />
    <glyph glyph-name="kcommaaccent" unicode="&#x137;" horiz-adv-x="498" 
d="M494 501.5q6 -7.5 6 -21.5q-1 -54 -35 -73q-114 -62 -198 -128q32 -102 64 -153t76 -51q24 0 38 13q16 -14 16 -35q0 -25 -21.5 -39t-52.5 -14q-63 0 -111 68t-68 156q-54 -57 -100 -136q-4 -7 -15 -30t-25.5 -37t-33.5 -14q-37 0 -37 34q0 11 5 31q60 216 97 362l6 23
q19 77 28 124t14 111q2 22 7.5 34t22.5 12q26 0 38 -17.5t12 -42.5q0 -9 -1 -13q-11 -92 -43.5 -222t-80.5 -266q59 74 140.5 151.5t149 129t85.5 51.5q11 0 17 -7.5zM76 -208q33 1 55 18t24 36q2 30 -13 55q-3 4 -3 9l1 8q1 13 15.5 26.5t35.5 13.5q23 0 36 -18t13 -47
q0 -35 -16.5 -65.5t-44.5 -49t-59 -18.5q-45 0 -44 32z" />
    <glyph glyph-name="kgreenlandic" unicode="&#x138;" horiz-adv-x="547" 
d="M519.5 433q-9.5 -19 -25.5 -28q-74 -47 -121 -79.5t-82 -61.5q39 -93 81 -140.5t84 -48.5q24 0 38 13q16 -14 16 -35q0 -25 -23 -39t-51 -14q-43 0 -76.5 25t-58 62.5t-59.5 102.5l-11 20q-41 -43 -71 -91q-5 -8 -16 -32q-16 -37 -30 -58t-34 -21q-18 0 -29 8t-11 26
q0 13 6 31q52 142 71 209.5t35 181.5q3 24 8 35t22 11q26 0 38 -17t12 -41q0 -10 -1 -15q-11 -65 -23 -110.5t-30 -91.5q57 62 128 125t127.5 103.5t72.5 40.5q11 0 17 -7t6 -19q0 -26 -9.5 -45z" />
    <glyph glyph-name="Lacute" unicode="&#x139;" horiz-adv-x="500" 
d="M387 70.5q44 -5.5 55 -15.5q0 -28 -13 -47.5t-43 -19.5q-12 0 -27.5 1t-23.5 2q-38 4 -67 4q-50 0 -116 -8q-40 -5 -60 -5q-51 0 -51 52q0 51 145 631q6 26 17 40.5t25 14.5q16 0 33 -22t17 -41q0 -20 -9 -52.5t-30 -98.5q-30 -90 -43 -138l-12 -42q-23 -81 -36.5 -139.5
t-22.5 -123.5q101 13 170 13q48 0 92 -5.5zM213 768.5q-4 6.5 -2 14.5q62 18 101 45.5t81 74.5q22 -4 38 -17.5t16 -29.5q0 -4 -2 -10q-7 -24 -39.5 -44.5t-75 -32t-77.5 -11.5q-19 0 -27 2q-9 2 -13 8.5z" />
    <glyph glyph-name="lacute" unicode="&#x13a;" horiz-adv-x="272" 
d="M62.5 38.5q-22.5 31.5 -22.5 85.5q0 90 27 215t65 231q22 60 42.5 105.5t43.5 59.5q10 6 17.5 8t19.5 2q24 0 24 -22q0 -13 -11 -40t-32 -72q-20 -42 -23 -50q-35 -88 -62.5 -205t-27.5 -195q0 -25 7.5 -44.5t28.5 -19.5q10 0 23 5q3 1 10.5 3t13.5 2q13 0 13 -18
q0 -30 -26.5 -56t-64.5 -26q-43 0 -65.5 31.5zM210 820.5q-4 6.5 -2 14.5q62 18 101 45.5t81 74.5q22 -4 38 -17.5t16 -29.5q0 -4 -2 -10q-7 -24 -39.5 -44.5t-75 -32t-77.5 -11.5q-19 0 -27 2q-9 2 -13 8.5z" />
    <glyph glyph-name="Lcommaaccent" unicode="&#x13b;" horiz-adv-x="500" 
d="M387 70.5q44 -5.5 55 -15.5q0 -28 -13 -47.5t-43 -19.5q-12 0 -27.5 1t-23.5 2q-38 4 -67 4q-50 0 -116 -8q-40 -5 -60 -5q-51 0 -51 52q0 51 145 631q6 26 17 40.5t25 14.5q16 0 33 -22t17 -41q0 -20 -9 -52.5t-30 -98.5q-30 -90 -43 -138l-12 -42q-23 -81 -36.5 -139.5
t-22.5 -123.5q101 13 170 13q48 0 92 -5.5zM121 -218q33 1 55 18t24 36q2 30 -13 55q-3 4 -3 9l1 8q1 13 15.5 26.5t35.5 13.5q23 0 36 -18t13 -47q0 -35 -16.5 -65.5t-44.5 -49t-59 -18.5q-45 0 -44 32z" />
    <glyph glyph-name="lcommaaccent" unicode="&#x13c;" horiz-adv-x="272" 
d="M62.5 38.5q-22.5 31.5 -22.5 85.5q0 90 27 215t65 231q22 60 42.5 105.5t43.5 59.5q10 6 17.5 8t19.5 2q24 0 24 -22q0 -13 -11 -40t-32 -72q-20 -42 -23 -50q-35 -88 -62.5 -205t-27.5 -195q0 -25 7.5 -44.5t28.5 -19.5q10 0 23 5q3 1 10.5 3t13.5 2q13 0 13 -18
q0 -30 -26.5 -56t-64.5 -26q-43 0 -65.5 31.5zM-29 -208q33 1 55 18t24 36q2 30 -13 55q-3 4 -3 9l1 8q1 13 15.5 26.5t35.5 13.5q23 0 36 -18t13 -47q0 -35 -16.5 -65.5t-44.5 -49t-59 -18.5q-45 0 -44 32z" />
    <glyph glyph-name="Lcaron" unicode="&#x13d;" horiz-adv-x="487" 
d="M387 70.5q44 -5.5 55 -15.5q0 -28 -13 -47.5t-43 -19.5q-12 0 -27.5 1t-23.5 2q-38 4 -67 4q-50 0 -116 -8q-40 -5 -60 -5q-51 0 -51 52q0 51 145 631q6 26 17 40.5t25 14.5q16 0 33 -22t17 -41q0 -20 -9 -52.5t-30 -98.5q-30 -90 -43 -138l-12 -42q-23 -81 -36.5 -139.5
t-22.5 -123.5q101 13 170 13q48 0 92 -5.5zM315 546q33 1 55 18t24 36q2 30 -13 55q-3 4 -3 9l1 8q1 13 15.5 26.5t35.5 13.5q23 0 36 -18t13 -47q0 -35 -16.5 -65.5t-44.5 -49t-59 -18.5q-45 0 -44 32z" />
    <glyph glyph-name="lcaron" unicode="&#x13e;" horiz-adv-x="314" 
d="M62.5 38.5q-22.5 31.5 -22.5 85.5q0 90 27 215t65 231q22 60 42.5 105.5t43.5 59.5q10 6 17.5 8t19.5 2q24 0 24 -22q0 -13 -11 -40t-32 -72q-20 -42 -23 -50q-35 -88 -62.5 -205t-27.5 -195q0 -25 7.5 -44.5t28.5 -19.5q10 0 23 5q3 1 10.5 3t13.5 2q13 0 13 -18
q0 -30 -26.5 -56t-64.5 -26q-43 0 -65.5 31.5zM301 585q33 1 55 18t24 36q2 30 -13 55q-3 4 -3 9l1 8q1 13 15.5 26.5t35.5 13.5q23 0 36 -18t13 -47q0 -35 -16.5 -65.5t-44.5 -49t-59 -18.5q-45 0 -44 32z" />
    <glyph glyph-name="Ldot" unicode="&#x13f;" horiz-adv-x="500" 
d="M387 70.5q44 -5.5 55 -15.5q0 -28 -13 -47.5t-43 -19.5q-12 0 -27.5 1t-23.5 2q-38 4 -67 4q-50 0 -116 -8q-40 -5 -60 -5q-51 0 -51 52q0 51 145 631q6 26 17 40.5t25 14.5q16 0 33 -22t17 -41q0 -20 -9 -52.5t-30 -98.5q-30 -90 -43 -138l-12 -42q-23 -81 -36.5 -139.5
t-22.5 -123.5q101 13 170 13q48 0 92 -5.5zM290.5 337.5q-9.5 12.5 -9.5 32.5q0 91 76 91q20 0 30.5 -15t10.5 -35q0 -18 -10 -38t-29 -34t-44 -14q-15 0 -24.5 12.5z" />
    <glyph glyph-name="ldot" unicode="&#x140;" horiz-adv-x="369" 
d="M62.5 38.5q-22.5 31.5 -22.5 85.5q0 90 27 215t65 231q22 60 42.5 105.5t43.5 59.5q10 6 17.5 8t19.5 2q24 0 24 -22q0 -13 -11 -40t-32 -72q-20 -42 -23 -50q-35 -88 -62.5 -205t-27.5 -195q0 -25 7.5 -44.5t28.5 -19.5q10 0 23 5q3 1 10.5 3t13.5 2q13 0 13 -18
q0 -30 -26.5 -56t-64.5 -26q-43 0 -65.5 31.5zM247.5 291.5q-9.5 12.5 -9.5 32.5q0 91 76 91q20 0 30.5 -15t10.5 -35q0 -18 -10 -38t-29 -34t-44 -14q-15 0 -24.5 12.5z" />
    <glyph glyph-name="Lslash" unicode="&#x141;" horiz-adv-x="500" 
d="M387 70.5q44 -5.5 55 -15.5q0 -28 -13 -47.5t-43 -19.5q-12 0 -27.5 1t-23.5 2q-38 4 -67 4q-50 0 -116 -8q-40 -5 -60 -5q-51 0 -51 52q0 30 66 309l-44 -28q-52 -33 -64 -37q-8 -2 -11 -2q-9 0 -14 5t-11 14q-2 8 -2 11q0 29 40.5 56t107.5 59l19 10l58 234
q6 26 17 40.5t25 14.5q16 0 33 -22t17 -41q0 -21 -10.5 -57.5t-31.5 -99.5l-10 -31q50 15 79 15q24 0 35.5 -10.5t12.5 -31.5q-68 -12 -150 -49l-7 -25l-12 -42q-23 -81 -36.5 -139.5t-22.5 -123.5q101 13 170 13q48 0 92 -5.5z" />
    <glyph glyph-name="lslash" unicode="&#x142;" horiz-adv-x="344" 
d="M257 89q0 -30 -26.5 -56t-64.5 -26q-43 0 -65.5 31.5t-22.5 85.5q0 88 29 226q-62 -46 -76 -53q-5 -2 -13 -2q-14 0 -24 17q-2 4 -2 12q0 29 39.5 59.5t100.5 64.5q17 62 38 122q22 60 42.5 105.5t43.5 59.5q10 6 17.5 8t19.5 2q24 0 24 -22q0 -13 -11 -40t-32 -72
q-20 -42 -23 -50q-11 -27 -24 -65q66 28 102 28q41 0 44 -39q-80 -19 -171 -72q-19 -70 -30 -136.5t-11 -115.5q0 -25 7.5 -44.5t28.5 -19.5q10 0 23 5q3 1 10.5 3t13.5 2q13 0 13 -18z" />
    <glyph glyph-name="Nacute" unicode="&#x143;" horiz-adv-x="675" 
d="M648 671q0 -66 -16.5 -166t-39.5 -195t-42 -146q-58 -158 -141 -158q-22 0 -32 9q-27 201 -51 309t-75 236q-37 -159 -66 -260.5t-63 -201.5q-38 -113 -88 -113q-35 0 -35 35q0 11 9.5 34t22.5 49q21 39 38 81q60 140 92 293q16 76 26 116t27 73t39 33q31 0 68.5 -93
t71 -236t52.5 -283q30 53 49.5 118.5t39.5 165.5q11 53 16.5 98.5t14.5 139.5l7 75q11 11 26.5 18.5t26.5 7.5q23 0 23 -39zM356 768.5q-4 6.5 -2 14.5q62 18 101 45.5t81 74.5q22 -4 38 -17.5t16 -29.5q0 -4 -2 -10q-7 -24 -39.5 -44.5t-75 -32t-77.5 -11.5q-19 0 -27 2
q-9 2 -13 8.5z" />
    <glyph glyph-name="nacute" unicode="&#x144;" horiz-adv-x="561" 
d="M490 64q0 -19 -13 -37.5t-32 -28.5q-16 -7 -26 -7q-37 0 -54 31t-17 91q0 33 7 94q6 53 14 91.5t9 44.5q7 33 7 41q0 5 -1 7t-5 2q-22 0 -72.5 -48.5t-96.5 -112.5q-49 -69 -73.5 -117.5t-52.5 -119.5q-29 -2 -41.5 20t-12.5 71q0 47 11 130q8 52 27.5 118t51 116
t70.5 50q6 0 13 -2.5t9 -6.5q-38 -88 -57 -153t-32 -142q41 66 105 141t125 125.5t96 50.5q20 0 26.5 -14t6.5 -39q0 -19 -16 -95q-19 -98 -25 -141q-9 -61 -9 -97q0 -50 20 -50q4 0 10 1t14 1q14 0 14 -15zM251.5 590.5q-5.5 5.5 -5.5 13.5q57 31 89 65.5t64 89.5
q25 2 44 -10t19 -31q0 -29 -34.5 -60t-81.5 -52t-80 -21q-9 0 -14.5 5.5z" />
    <glyph glyph-name="Ncommaaccent" unicode="&#x145;" horiz-adv-x="675" 
d="M648 671q0 -66 -16.5 -166t-39.5 -195t-42 -146q-58 -158 -141 -158q-22 0 -32 9q-27 201 -51 309t-75 236q-37 -159 -66 -260.5t-63 -201.5q-38 -113 -88 -113q-35 0 -35 35q0 11 9.5 34t22.5 49q21 39 38 81q60 140 92 293q16 76 26 116t27 73t39 33q31 0 68.5 -93
t71 -236t52.5 -283q30 53 49.5 118.5t39.5 165.5q11 53 16.5 98.5t14.5 139.5l7 75q11 11 26.5 18.5t26.5 7.5q23 0 23 -39zM141 -178q33 1 55 18t24 36q2 30 -13 55q-3 4 -3 9l1 8q1 13 15.5 26.5t35.5 13.5q23 0 36 -18t13 -47q0 -35 -16.5 -65.5t-44.5 -49t-59 -18.5
q-45 0 -44 32z" />
    <glyph glyph-name="ncommaaccent" unicode="&#x146;" horiz-adv-x="561" 
d="M490 64q0 -19 -13 -37.5t-32 -28.5q-16 -7 -26 -7q-37 0 -54 31t-17 91q0 33 7 94q6 53 14 91.5t9 44.5q7 33 7 41q0 5 -1 7t-5 2q-22 0 -72.5 -48.5t-96.5 -112.5q-49 -69 -73.5 -117.5t-52.5 -119.5q-29 -2 -41.5 20t-12.5 71q0 47 11 130q8 52 27.5 118t51 116
t70.5 50q6 0 13 -2.5t9 -6.5q-38 -88 -57 -153t-32 -142q41 66 105 141t125 125.5t96 50.5q20 0 26.5 -14t6.5 -39q0 -19 -16 -95q-19 -98 -25 -141q-9 -61 -9 -97q0 -50 20 -50q4 0 10 1t14 1q14 0 14 -15zM109 -208q33 1 55 18t24 36q2 30 -13 55q-3 4 -3 9l1 8
q1 13 15.5 26.5t35.5 13.5q23 0 36 -18t13 -47q0 -35 -16.5 -65.5t-44.5 -49t-59 -18.5q-45 0 -44 32z" />
    <glyph glyph-name="Ncaron" unicode="&#x147;" horiz-adv-x="675" 
d="M648 671q0 -66 -16.5 -166t-39.5 -195t-42 -146q-58 -158 -141 -158q-22 0 -32 9q-27 201 -51 309t-75 236q-37 -159 -66 -260.5t-63 -201.5q-38 -113 -88 -113q-35 0 -35 35q0 11 9.5 34t22.5 49q21 39 38 81q60 140 92 293q16 76 26 116t27 73t39 33q31 0 68.5 -93
t71 -236t52.5 -283q30 53 49.5 118.5t39.5 165.5q11 53 16.5 98.5t14.5 139.5l7 75q11 11 26.5 18.5t26.5 7.5q23 0 23 -39zM630 877q0 -9 -20 -19q-87 -40 -149 -110q-6 -8 -20 -8q-12 0 -16 7q-19 29 -52.5 65t-63.5 59q8 18 32 18q23 0 54.5 -22t52.5 -49q24 21 57 39
t62 28q23 9 39 9q12 0 18 -6t6 -11z" />
    <glyph glyph-name="ncaron" unicode="&#x148;" horiz-adv-x="561" 
d="M490 64q0 -19 -13 -37.5t-32 -28.5q-16 -7 -26 -7q-37 0 -54 31t-17 91q0 33 7 94q6 53 14 91.5t9 44.5q7 33 7 41q0 5 -1 7t-5 2q-22 0 -72.5 -48.5t-96.5 -112.5q-49 -69 -73.5 -117.5t-52.5 -119.5q-29 -2 -41.5 20t-12.5 71q0 47 11 130q8 52 27.5 118t51 116
t70.5 50q6 0 13 -2.5t9 -6.5q-38 -88 -57 -153t-32 -142q41 66 105 141t125 125.5t96 50.5q20 0 26.5 -14t6.5 -39q0 -19 -16 -95q-19 -98 -25 -141q-9 -61 -9 -97q0 -50 20 -50q4 0 10 1t14 1q14 0 14 -15zM512 713q0 -4 -5.5 -9t-13.5 -10q-45 -25 -89 -59t-66 -60
q-6 -8 -16 -8q-9 0 -13 7q-17 26 -54 72t-63 72q9 21 32 21q26 0 56.5 -26.5t54.5 -61.5q25 23 56 42t59 28q19 9 39 9q10 0 14 -4q9 -7 9 -13z" />
    <glyph glyph-name="napostrophe" unicode="&#x149;" horiz-adv-x="561" 
d="M490 64q0 -19 -13 -37.5t-32 -28.5q-16 -7 -26 -7q-37 0 -54 31t-17 91q0 33 7 94q6 53 14 91.5t9 44.5q7 33 7 41q0 5 -1 7t-5 2q-22 0 -72.5 -48.5t-96.5 -112.5q-49 -69 -73.5 -117.5t-52.5 -119.5q-29 -2 -41.5 20t-12.5 71q0 47 11 130q8 52 27.5 118t51 116
t70.5 50q6 0 13 -2.5t9 -6.5q-38 -88 -57 -153t-32 -142q41 66 105 141t125 125.5t96 50.5q20 0 26.5 -14t6.5 -39q0 -19 -16 -95q-19 -98 -25 -141q-9 -61 -9 -97q0 -50 20 -50q4 0 10 1t14 1q14 0 14 -15zM20 584q33 1 55 18t24 36q2 30 -13 55q-3 4 -3 9l1 8
q1 13 15.5 26.5t35.5 13.5q23 0 36 -18t13 -47q0 -35 -16.5 -65.5t-44.5 -49t-59 -18.5q-45 0 -44 32z" />
    <glyph glyph-name="Eng" unicode="&#x14a;" horiz-adv-x="678" 
d="M648 671q0 -96 -23 -225.5t-49 -218.5q-33 -115 -66 -201t-91.5 -158t-139.5 -72q-42 0 -73.5 21t-31.5 61q0 19 8 30t22 11q7 0 12.5 -4t14.5 -13q17 -15 31 -23.5t37 -8.5q40 0 71 37.5t57 99.5q-49 188 -85.5 304t-90.5 249q-37 -159 -66 -260.5t-63 -201.5
q-38 -113 -88 -113q-35 0 -35 35q0 11 9.5 34t22.5 49q21 39 38 81q60 140 92 293q16 76 26 116t27 73t39 33q43 0 103 -169.5t116 -403.5q22 59 35.5 111.5t26.5 133.5q11 53 16.5 98.5t14.5 139.5l7 75q11 11 26.5 18.5t26.5 7.5q23 0 23 -39z" />
    <glyph glyph-name="eng" unicode="&#x14b;" horiz-adv-x="535" 
d="M475.5 499q6.5 -14 6.5 -39q0 -28 -12 -109.5t-28 -158.5q-25 -120 -50.5 -204t-81.5 -155.5t-146 -71.5q-42 0 -73.5 21t-31.5 61q0 19 8 30t22 11q7 0 12.5 -4t14.5 -13q17 -15 31 -23.5t37 -8.5q41 0 69.5 33t44 73t31.5 97q23 87 42 183t19 142q0 30 -10 30
q-21 0 -72.5 -48.5t-97.5 -112.5q-49 -69 -73.5 -117.5t-52.5 -119.5q-29 -2 -41.5 20t-12.5 71q0 47 11 130q8 52 27.5 118t51 116t70.5 50q6 0 13 -2.5t9 -6.5q-38 -88 -57 -153t-32 -142q41 66 105 141t125 125.5t96 50.5q20 0 26.5 -14z" />
    <glyph glyph-name="Omacron" unicode="&#x14c;" horiz-adv-x="601" 
d="M83 69.5q-39 68.5 -39 158.5q0 125 48 239t133.5 184.5t193.5 70.5q78 0 123.5 -62t45.5 -159q0 -105 -50.5 -222.5t-137.5 -197.5t-191 -80q-87 0 -126 68.5zM356.5 135.5q68.5 64.5 113 163.5t44.5 194q0 64 -26 104.5t-79 40.5q-83 0 -145.5 -65.5t-95.5 -162.5
t-33 -186q0 -78 21 -115.5t64 -37.5q68 0 136.5 64.5zM279.5 810.5q-2.5 13.5 -1.5 22.5q1 21 42 31.5t100 10.5q17 0 47 -2q79 -5 92 -18q4 -4 4 -16q0 -15 -7 -34q-48 2 -72 2q-105 0 -197 -17q-5 7 -7.5 20.5z" />
    <glyph glyph-name="omacron" unicode="&#x14d;" horiz-adv-x="487" 
d="M42.5 48.5q-36.5 40.5 -36.5 109.5q0 86 40.5 168t109 133t147.5 51q70 0 110.5 -43.5t40.5 -119.5q0 -80 -43 -159t-115 -129.5t-153 -50.5q-64 0 -100.5 40.5zM270 114.5q52 42.5 84 105t32 116.5q0 43 -21.5 71t-63.5 28q-62 0 -109 -45.5t-72.5 -110t-25.5 -117.5
q0 -90 67 -90q57 0 109 42.5zM188.5 630.5q-2.5 13.5 -1.5 22.5q1 21 42 31.5t100 10.5q17 0 47 -2q79 -5 92 -18q4 -4 4 -16q0 -15 -7 -34q-48 2 -72 2q-105 0 -197 -17q-5 7 -7.5 20.5z" />
    <glyph glyph-name="Obreve" unicode="&#x14e;" horiz-adv-x="601" 
d="M83 69.5q-39 68.5 -39 158.5q0 125 48 239t133.5 184.5t193.5 70.5q78 0 123.5 -62t45.5 -159q0 -105 -50.5 -222.5t-137.5 -197.5t-191 -80q-87 0 -126 68.5zM356.5 135.5q68.5 64.5 113 163.5t44.5 194q0 64 -26 104.5t-79 40.5q-83 0 -145.5 -65.5t-95.5 -162.5
t-33 -186q0 -78 21 -115.5t64 -37.5q68 0 136.5 64.5zM326.5 810.5q-32.5 32.5 -28.5 85.5q3 24 20 24q11 0 16.5 -6t11 -16t7.5 -14q12 -21 28 -32.5t45 -11.5q50 0 77 45q2 3 7.5 13t12 15.5t12.5 5.5q16 0 14 -20q-3 -51 -39 -86t-99 -35q-52 0 -84.5 32.5z" />
    <glyph glyph-name="obreve" unicode="&#x14f;" horiz-adv-x="487" 
d="M42.5 48.5q-36.5 40.5 -36.5 109.5q0 86 40.5 168t109 133t147.5 51q70 0 110.5 -43.5t40.5 -119.5q0 -80 -43 -159t-115 -129.5t-153 -50.5q-64 0 -100.5 40.5zM270 114.5q52 42.5 84 105t32 116.5q0 43 -21.5 71t-63.5 28q-62 0 -109 -45.5t-72.5 -110t-25.5 -117.5
q0 -90 67 -90q57 0 109 42.5zM257.5 600q-25.5 13 -41.5 38t-16 58q0 43 21 43q12 0 18 -8t16 -30q12 -26 28.5 -39t46.5 -13q45 0 75 51q1 3 7 14t12.5 17.5t12.5 6.5q14 0 14 -16q0 -29 -19 -60.5t-52 -53t-71 -21.5q-26 0 -51.5 13z" />
    <glyph glyph-name="Ohungarumlaut" unicode="&#x150;" horiz-adv-x="601" 
d="M83 69.5q-39 68.5 -39 158.5q0 125 48 239t133.5 184.5t193.5 70.5q78 0 123.5 -62t45.5 -159q0 -105 -50.5 -222.5t-137.5 -197.5t-191 -80q-87 0 -126 68.5zM356.5 135.5q68.5 64.5 113 163.5t44.5 194q0 64 -26 104.5t-79 40.5q-83 0 -145.5 -65.5t-95.5 -162.5
t-33 -186q0 -78 21 -115.5t64 -37.5q68 0 136.5 64.5zM262 787.5q-6 6.5 -5 15.5q61 51 130 148q22 -2 34.5 -13t12.5 -27q0 -7 -1 -11q-6 -27 -33.5 -55t-61.5 -46t-58 -18q-12 0 -18 6.5zM424 790q-6 8 -5 16q43 30 71 57.5t54 71.5q22 -2 35 -13.5t13 -28.5q0 -6 -1 -9
q-7 -28 -34.5 -53t-61.5 -39t-56 -11q-9 1 -15 9z" />
    <glyph glyph-name="ohungarumlaut" unicode="&#x151;" horiz-adv-x="487" 
d="M42.5 48.5q-36.5 40.5 -36.5 109.5q0 86 40.5 168t109 133t147.5 51q70 0 110.5 -43.5t40.5 -119.5q0 -80 -43 -159t-115 -129.5t-153 -50.5q-64 0 -100.5 40.5zM270 114.5q52 42.5 84 105t32 116.5q0 43 -21.5 71t-63.5 28q-62 0 -109 -45.5t-72.5 -110t-25.5 -117.5
q0 -90 67 -90q57 0 109 42.5zM201.5 590.5q-5.5 5.5 -5.5 13.5q53 58 108 165q24 1 38.5 -10t14.5 -29q0 -29 -25 -63t-59.5 -58t-56.5 -24q-9 0 -14.5 5.5zM346 592q-7 7 -7 15q39 37 62.5 68t43.5 77q24 1 38.5 -10t14.5 -29q0 -30 -24 -59.5t-56.5 -49t-55.5 -19.5
q-9 0 -16 7z" />
    <glyph glyph-name="OE" unicode="&#x152;" horiz-adv-x="941" 
d="M938 628q0 -16 -7 -29.5t-19 -21.5q-15 17 -45.5 26t-69.5 9q-73 0 -116 -23t-65.5 -66t-40.5 -118l-15 -57q20 2 60 4q75 5 123.5 11.5t95.5 22.5q9 -7 12.5 -14.5t2.5 -19.5q-1 -34 -48 -44t-137 -12q-89 -2 -125 -11l-16 -60q-16 -62 -16 -94q0 -37 19.5 -52.5
t64.5 -15.5q39 0 84.5 7t110.5 20q55 11 62 11q20 0 19 -29q-1 -27 -55 -46t-123.5 -28.5t-112.5 -9.5q-103 0 -140 36q-21 21 -19 79q-99 -102 -214 -102q-87 0 -126 68.5t-39 158.5q0 120 46.5 229.5t130 177t188.5 67.5q62 0 103 -30.5t59 -84.5q35 45 80 68
q36 20 86 29.5t75 9.5q127 0 127 -66zM353 136q66 65 108 165t42 197q0 57 -21 88.5t-74 31.5q-83 0 -145.5 -62.5t-95.5 -154.5t-33 -177q0 -78 21 -115.5t64 -37.5q68 0 134 65z" />
    <glyph glyph-name="oe" unicode="&#x153;" horiz-adv-x="808" 
d="M741.5 167q4.5 -8 2.5 -20q-6 -33 -40.5 -67.5t-90.5 -57t-122 -22.5q-46 0 -90 24t-62 78q-41 -44 -91.5 -69t-104.5 -25q-64 0 -100.5 40.5t-36.5 109.5q0 87 39 168.5t105.5 132.5t142.5 51q54 0 90.5 -25.5t51.5 -72.5q46 44 104 68.5t116 24.5q52 0 82.5 -27
t30.5 -69q0 -60 -45 -109t-118.5 -77.5t-153.5 -28.5q-19 0 -29 1v-18q0 -49 32.5 -78.5t75.5 -29.5q57 0 104 25.5t94 82.5q9 -2 13.5 -10zM546 420q-43 -26 -74.5 -72.5t-43.5 -106.5q69 -3 127.5 21.5t92.5 62.5t34 73q0 48 -47 48q-46 0 -89 -26zM274 123q54 51 82 122
q20 48 20 91t-21.5 71t-63.5 28q-59 0 -104 -45.5t-69 -110t-24 -117.5q0 -90 67 -90q59 0 113 51z" />
    <glyph glyph-name="Racute" unicode="&#x154;" horiz-adv-x="631" 
d="M518.5 336.5q-72.5 -55.5 -189.5 -79.5q36 -92 96 -159.5t126 -67.5q10 0 16 1q1 -5 1 -13q0 -27 -18.5 -44t-47.5 -17q-50 0 -108.5 54t-102 133.5t-50.5 148.5q124 14 199 60t75 126q0 70 -58 112t-145 44q-53 -141 -88.5 -268.5t-82.5 -350.5q-3 -18 -17 -27t-28 -9
q-17 0 -22 11t-5 33q0 66 26.5 181.5t65.5 233t71 186.5q-56 -13 -103 -44q-29 -20 -39 -20q-8 0 -12.5 6t-4.5 16q0 36 40 64.5t97.5 44t106.5 15.5q122 0 198 -54t76 -154q0 -107 -72.5 -162.5zM318 768.5q-4 6.5 -2 14.5q62 18 101 45.5t81 74.5q22 -4 38 -17.5t16 -29.5
q0 -4 -2 -10q-7 -24 -39.5 -44.5t-75 -32t-77.5 -11.5q-19 0 -27 2q-9 2 -13 8.5z" />
    <glyph glyph-name="racute" unicode="&#x155;" horiz-adv-x="346" 
d="M377 485q13 -13 13 -33q0 -21 -14 -36t-30 -15q-24 8 -43 8q-55 0 -98 -55q-36 -46 -60.5 -128.5t-43.5 -208.5l-11 -1q-29 0 -44 20t-15 53q0 52 28 175t59 228q12 3 21 3q36 0 36 -49q0 -32 -12 -79q34 60 82 95.5t92 35.5q27 0 40 -13zM188.5 590.5
q-5.5 5.5 -5.5 13.5q57 31 89 65.5t64 89.5q25 2 44 -10t19 -31q0 -29 -34.5 -60t-81.5 -52t-80 -21q-9 0 -14.5 5.5z" />
    <glyph glyph-name="Rcommaaccent" unicode="&#x156;" horiz-adv-x="631" 
d="M518.5 336.5q-72.5 -55.5 -189.5 -79.5q36 -92 96 -159.5t126 -67.5q10 0 16 1q1 -5 1 -13q0 -27 -18.5 -44t-47.5 -17q-50 0 -108.5 54t-102 133.5t-50.5 148.5q124 14 199 60t75 126q0 70 -58 112t-145 44q-53 -141 -88.5 -268.5t-82.5 -350.5q-3 -18 -17 -27t-28 -9
q-17 0 -22 11t-5 33q0 66 26.5 181.5t65.5 233t71 186.5q-56 -13 -103 -44q-29 -20 -39 -20q-8 0 -12.5 6t-4.5 16q0 36 40 64.5t97.5 44t106.5 15.5q122 0 198 -54t76 -154q0 -107 -72.5 -162.5zM156 -198q33 1 55 18t24 36q2 30 -13 55q-3 4 -3 9l1 8q1 13 15.5 26.5
t35.5 13.5q23 0 36 -18t13 -47q0 -35 -16.5 -65.5t-44.5 -49t-59 -18.5q-45 0 -44 32z" />
    <glyph glyph-name="rcommaaccent" unicode="&#x157;" horiz-adv-x="346" 
d="M377 485q13 -13 13 -33q0 -21 -14 -36t-30 -15q-24 8 -43 8q-55 0 -98 -55q-36 -46 -60.5 -128.5t-43.5 -208.5l-11 -1q-29 0 -44 20t-15 53q0 52 28 175t59 228q12 3 21 3q36 0 36 -49q0 -32 -12 -79q34 60 82 95.5t92 35.5q27 0 40 -13zM-54 -208q33 1 55 18t24 36
q2 30 -13 55q-3 4 -3 9l1 8q1 13 15.5 26.5t35.5 13.5q23 0 36 -18t13 -47q0 -35 -16.5 -65.5t-44.5 -49t-59 -18.5q-45 0 -44 32z" />
    <glyph glyph-name="Rcaron" unicode="&#x158;" horiz-adv-x="631" 
d="M518.5 336.5q-72.5 -55.5 -189.5 -79.5q36 -92 96 -159.5t126 -67.5q10 0 16 1q1 -5 1 -13q0 -27 -18.5 -44t-47.5 -17q-50 0 -108.5 54t-102 133.5t-50.5 148.5q124 14 199 60t75 126q0 70 -58 112t-145 44q-53 -141 -88.5 -268.5t-82.5 -350.5q-3 -18 -17 -27t-28 -9
q-17 0 -22 11t-5 33q0 66 26.5 181.5t65.5 233t71 186.5q-56 -13 -103 -44q-29 -20 -39 -20q-8 0 -12.5 6t-4.5 16q0 36 40 64.5t97.5 44t106.5 15.5q122 0 198 -54t76 -154q0 -107 -72.5 -162.5zM592 877q0 -9 -20 -19q-87 -40 -149 -110q-6 -8 -20 -8q-12 0 -16 7
q-19 29 -52.5 65t-63.5 59q8 18 32 18q23 0 54.5 -22t52.5 -49q24 21 57 39t62 28q23 9 39 9q12 0 18 -6t6 -11z" />
    <glyph glyph-name="rcaron" unicode="&#x159;" horiz-adv-x="346" 
d="M377 485q13 -13 13 -33q0 -21 -14 -36t-30 -15q-24 8 -43 8q-55 0 -98 -55q-36 -46 -60.5 -128.5t-43.5 -208.5l-11 -1q-29 0 -44 20t-15 53q0 52 28 175t59 228q12 3 21 3q36 0 36 -49q0 -32 -12 -79q34 60 82 95.5t92 35.5q27 0 40 -13zM449 713q0 -4 -5.5 -9
t-13.5 -10q-45 -25 -89 -59t-66 -60q-6 -8 -16 -8q-9 0 -13 7q-17 26 -54 72t-63 72q9 21 32 21q26 0 56.5 -26.5t54.5 -61.5q25 23 56 42t59 28q19 9 39 9q10 0 14 -4q9 -7 9 -13z" />
    <glyph glyph-name="Sacute" unicode="&#x15a;" horiz-adv-x="487" 
d="M50.5 15.5q-43.5 20.5 -50.5 71.5q-2 8 1 20t9 20q68 -47 142 -47q81 0 136 31.5t55 89.5q0 35 -16.5 59.5t-39.5 40.5t-66 39q-46 24 -74 43.5t-47.5 51t-19.5 77.5q0 57 32.5 99.5t86.5 65.5t119 23q81 0 136 -31.5t55 -85.5q0 -33 -36 -33q-9 0 -16.5 5t-18.5 15
q-26 23 -56 36.5t-84 13.5q-59 0 -99.5 -26.5t-40.5 -70.5q0 -33 25 -56t79 -55q50 -30 80.5 -53.5t52.5 -60t22 -86.5q0 -62 -34.5 -111.5t-96.5 -77.5t-142 -28q-50 0 -93.5 20.5zM247 768.5q-4 6.5 -2 14.5q62 18 101 45.5t81 74.5q22 -4 38 -17.5t16 -29.5q0 -4 -2 -10
q-7 -24 -39.5 -44.5t-75 -32t-77.5 -11.5q-19 0 -27 2q-9 2 -13 8.5z" />
    <glyph glyph-name="sacute" unicode="&#x15b;" horiz-adv-x="431" 
d="M51 39.5q-41 25.5 -41 62.5q0 15 5.5 26.5t14.5 14.5q66 -57 134 -57q45 0 75.5 17.5t30.5 52.5q0 26 -24 42t-72 34q-44 17 -71 31.5t-46 39t-19 61.5q0 65 52.5 101t134.5 36q50 0 94.5 -15t72 -42t27.5 -62q0 -22 -14 -35.5t-33 -13.5q-7 0 -10 1q-6 48 -46.5 74.5
t-96.5 26.5q-37 0 -62 -19.5t-25 -46.5q0 -29 24.5 -48.5t74.5 -42.5q39 -18 63 -32.5t41 -36.5t17 -53q0 -48 -29.5 -80t-73.5 -47t-88 -15q-69 0 -110 25.5zM179.5 590.5q-5.5 5.5 -5.5 13.5q57 31 89 65.5t64 89.5q25 2 44 -10t19 -31q0 -29 -34.5 -60t-81.5 -52t-80 -21
q-9 0 -14.5 5.5z" />
    <glyph glyph-name="Scircumflex" unicode="&#x15c;" horiz-adv-x="487" 
d="M50.5 15.5q-43.5 20.5 -50.5 71.5q-2 8 1 20t9 20q68 -47 142 -47q81 0 136 31.5t55 89.5q0 35 -16.5 59.5t-39.5 40.5t-66 39q-46 24 -74 43.5t-47.5 51t-19.5 77.5q0 57 32.5 99.5t86.5 65.5t119 23q81 0 136 -31.5t55 -85.5q0 -33 -36 -33q-9 0 -16.5 5t-18.5 15
q-26 23 -56 36.5t-84 13.5q-59 0 -99.5 -26.5t-40.5 -70.5q0 -33 25 -56t79 -55q50 -30 80.5 -53.5t52.5 -60t22 -86.5q0 -62 -34.5 -111.5t-96.5 -77.5t-142 -28q-50 0 -93.5 20.5zM429.5 830q36.5 -44 69.5 -71q-11 -21 -31 -21q-28 -1 -60.5 25.5t-58.5 61.5
q-24 -23 -56 -41.5t-64 -29.5q-25 -7 -39 -7q-11 0 -15 4q-9 8 -9 11t4.5 6.5t8.5 6.5t6 4q45 24 91 60t70 65q6 8 16 8q9 0 14 -8q17 -30 53.5 -74z" />
    <glyph glyph-name="scircumflex" unicode="&#x15d;" horiz-adv-x="431" 
d="M51 39.5q-41 25.5 -41 62.5q0 15 5.5 26.5t14.5 14.5q66 -57 134 -57q45 0 75.5 17.5t30.5 52.5q0 26 -24 42t-72 34q-44 17 -71 31.5t-46 39t-19 61.5q0 65 52.5 101t134.5 36q50 0 94.5 -15t72 -42t27.5 -62q0 -22 -14 -35.5t-33 -13.5q-7 0 -10 1q-6 48 -46.5 74.5
t-96.5 26.5q-37 0 -62 -19.5t-25 -46.5q0 -29 24.5 -48.5t74.5 -42.5q39 -18 63 -32.5t41 -36.5t17 -53q0 -48 -29.5 -80t-73.5 -47t-88 -15q-69 0 -110 25.5zM363 661.5q36 -47.5 61 -71.5q-11 -21 -31 -21q-28 -1 -59 28.5t-57 68.5q-27 -27 -58 -49t-59 -32
q-28 -8 -40 -8q-9 0 -14 5q-9 6 -9 12q0 7 19 20q43 23 87.5 60.5t70.5 69.5q6 8 17 8q4 0 8 -2t5 -6q23 -35 59 -82.5z" />
    <glyph glyph-name="Scedilla" unicode="&#x15e;" horiz-adv-x="487" 
d="M454 668.5q55 -31.5 55 -85.5q0 -33 -36 -33q-9 0 -16.5 5t-18.5 15q-26 23 -56 36.5t-84 13.5q-59 0 -99.5 -26.5t-40.5 -70.5q0 -33 25 -56t79 -55q50 -30 80.5 -53.5t52.5 -60t22 -86.5q0 -81 -57.5 -139t-154.5 -73l-23 -53q6 1 17 1q38 0 60 -20.5t22 -54.5
q0 -56 -44 -86.5t-110 -30.5q-22 0 -36.5 5t-14.5 13q0 7 3.5 16t11.5 14q8 -1 29 -1q42 0 71.5 12.5t29.5 43.5q0 14 -11.5 21.5t-31.5 7.5q-25 0 -52 -7q-9 -3 -13 2.5t-4 14.5q0 6 2 12l35 85h-2q-50 0 -93.5 20.5t-50.5 71.5q-2 8 1 20t9 20q68 -47 142 -47
q81 0 136 31.5t55 89.5q0 35 -16.5 59.5t-39.5 40.5t-66 39q-46 24 -74 43.5t-47.5 51t-19.5 77.5q0 57 32.5 99.5t86.5 65.5t119 23q81 0 136 -31.5z" />
    <glyph glyph-name="scedilla" unicode="&#x15f;" horiz-adv-x="431" 
d="M319.5 486q44.5 -15 72 -42t27.5 -62q0 -22 -14 -35.5t-33 -13.5q-7 0 -10 1q-6 48 -46.5 74.5t-96.5 26.5q-37 0 -62 -19.5t-25 -46.5q0 -29 24.5 -48.5t74.5 -42.5q39 -18 63 -32.5t41 -36.5t17 -53q0 -64 -50.5 -99.5t-117.5 -41.5l-30 -68q6 1 17 1q38 0 60 -20.5
t22 -54.5q0 -56 -44 -86.5t-110 -30.5q-22 0 -36.5 5t-14.5 13q0 7 3.5 16t11.5 14q8 -1 29 -1q42 0 71.5 12.5t29.5 43.5q0 14 -11.5 21.5t-31.5 7.5q-25 0 -52 -7q-9 -3 -13 2.5t-4 14.5q0 6 2 12l44 106q-54 6 -85.5 30t-31.5 56q0 15 5.5 26.5t14.5 14.5q66 -57 134 -57
q45 0 75.5 17.5t30.5 52.5q0 26 -24 42t-72 34q-44 17 -71 31.5t-46 39t-19 61.5q0 65 52.5 101t134.5 36q50 0 94.5 -15z" />
    <glyph glyph-name="Scaron" unicode="&#x160;" horiz-adv-x="487" 
d="M50.5 15.5q-43.5 20.5 -50.5 71.5q-2 8 1 20t9 20q68 -47 142 -47q81 0 136 31.5t55 89.5q0 35 -16.5 59.5t-39.5 40.5t-66 39q-46 24 -74 43.5t-47.5 51t-19.5 77.5q0 57 32.5 99.5t86.5 65.5t119 23q81 0 136 -31.5t55 -85.5q0 -33 -36 -33q-9 0 -16.5 5t-18.5 15
q-26 23 -56 36.5t-84 13.5q-59 0 -99.5 -26.5t-40.5 -70.5q0 -33 25 -56t79 -55q50 -30 80.5 -53.5t52.5 -60t22 -86.5q0 -62 -34.5 -111.5t-96.5 -77.5t-142 -28q-50 0 -93.5 20.5zM521 877q0 -9 -20 -19q-87 -40 -149 -110q-6 -8 -20 -8q-12 0 -16 7q-19 29 -52.5 65
t-63.5 59q8 18 32 18q23 0 54.5 -22t52.5 -49q24 21 57 39t62 28q23 9 39 9q12 0 18 -6t6 -11z" />
    <glyph glyph-name="scaron" unicode="&#x161;" horiz-adv-x="431" 
d="M51 39.5q-41 25.5 -41 62.5q0 15 5.5 26.5t14.5 14.5q66 -57 134 -57q45 0 75.5 17.5t30.5 52.5q0 26 -24 42t-72 34q-44 17 -71 31.5t-46 39t-19 61.5q0 65 52.5 101t134.5 36q50 0 94.5 -15t72 -42t27.5 -62q0 -22 -14 -35.5t-33 -13.5q-7 0 -10 1q-6 48 -46.5 74.5
t-96.5 26.5q-37 0 -62 -19.5t-25 -46.5q0 -29 24.5 -48.5t74.5 -42.5q39 -18 63 -32.5t41 -36.5t17 -53q0 -48 -29.5 -80t-73.5 -47t-88 -15q-69 0 -110 25.5zM440 713q0 -4 -5.5 -9t-13.5 -10q-45 -25 -89 -59t-66 -60q-6 -8 -16 -8q-9 0 -13 7q-17 26 -54 72t-63 72
q9 21 32 21q26 0 56.5 -26.5t54.5 -61.5q25 23 56 42t59 28q19 9 39 9q10 0 14 -4q9 -7 9 -13z" />
    <glyph glyph-name="uni0162" unicode="&#x162;" horiz-adv-x="504" 
d="M460 693q57 -1 103.5 -13.5t46.5 -34.5q0 -15 -8.5 -21t-28.5 -6q-13 0 -49 4q-63 7 -128 8l-30 -114q-4 -15 -28 -108.5t-42 -182.5q-25 -121 -30 -209q-1 -12 -13.5 -16.5t-40.5 -4.5q-38 0 -38 40q0 31 7.5 66.5t23.5 93.5l17 64l25 94q23 80 38 142.5t26 132.5
q-51 -4 -89.5 -13.5t-86.5 -24.5q-28 -11 -39 -11q-19 0 -26.5 9t-7.5 25q0 43 47 55q104 26 257 26h32q5 0 62 -1zM103 -208q33 1 55 18t24 36q2 30 -13 55q-3 4 -3 9l1 8q1 13 15.5 26.5t35.5 13.5q23 0 36 -18t13 -47q0 -35 -16.5 -65.5t-44.5 -49t-59 -18.5
q-45 0 -44 32z" />
    <glyph glyph-name="uni0163" unicode="&#x163;" horiz-adv-x="456" 
d="M349 441q-55 0 -115 -5q-54 -212 -54 -296q0 -33 10 -53t48 -20q62 0 142 77q13 -2 21.5 -9.5t8.5 -17.5q0 -5 -7 -16q-34 -52 -92 -80t-111 -28q-106 0 -106 128q0 68 54 304q-17 -3 -51 -11q-8 -2 -35.5 -8t-40.5 -6q-15 0 -20 10t-4 28q1 31 47.5 44.5t122.5 19.5
q38 153 62 211q4 3 14 3q29 0 39 -17t10 -35q0 -10 -6 -31.5t-7 -27.5q-7 -23 -8 -28l-19 -71q20 1 56 1q86 0 122 -11t36 -39q0 -9 -5 -24q-41 8 -112 8zM84 -208q33 1 55 18t24 36q2 30 -13 55q-3 4 -3 9l1 8q1 13 15.5 26.5t35.5 13.5q23 0 36 -18t13 -47
q0 -35 -16.5 -65.5t-44.5 -49t-59 -18.5q-45 0 -44 32z" />
    <glyph glyph-name="Tcaron" unicode="&#x164;" horiz-adv-x="504" 
d="M460 693q57 -1 103.5 -13.5t46.5 -34.5q0 -15 -8.5 -21t-28.5 -6q-13 0 -49 4q-63 7 -128 8l-30 -114q-4 -15 -28 -108.5t-42 -182.5q-25 -121 -30 -209q-1 -12 -13.5 -16.5t-40.5 -4.5q-38 0 -38 40q0 31 7.5 66.5t23.5 93.5l17 64l25 94q23 80 38 142.5t26 132.5
q-51 -4 -89.5 -13.5t-86.5 -24.5q-28 -11 -39 -11q-19 0 -26.5 9t-7.5 25q0 43 47 55q104 26 257 26h32q5 0 62 -1zM551 877q0 -9 -20 -19q-87 -40 -149 -110q-6 -8 -20 -8q-12 0 -16 7q-19 29 -52.5 65t-63.5 59q8 18 32 18q23 0 54.5 -22t52.5 -49q24 21 57 39t62 28
q23 9 39 9q12 0 18 -6t6 -11z" />
    <glyph glyph-name="tcaron" unicode="&#x165;" horiz-adv-x="487" 
d="M405 625q20 19 20 38q0 30 -20 55q-5 5 -5 17q-1 14 14 30.5t38 16.5q24 0 38.5 -21.5t14.5 -55.5t-16 -64.5t-42.5 -49t-58.5 -18.5q-31 0 -34 27q31 6 51 25zM308 507q86 0 122 -11t36 -39q0 -9 -5 -24q-41 8 -112 8q-55 0 -115 -5q-54 -212 -54 -296q0 -33 10 -53
t48 -20q62 0 142 77q13 -2 21.5 -9.5t8.5 -17.5q0 -5 -7 -16q-34 -52 -92 -80t-111 -28q-106 0 -106 128q0 68 54 304q-17 -3 -51 -11q-8 -2 -35.5 -8t-40.5 -6q-15 0 -20 10t-4 28q1 31 47.5 44.5t122.5 19.5q38 153 62 211q4 3 14 3q29 0 39 -17t10 -35q0 -10 -6 -31.5
t-7 -27.5q-7 -23 -8 -28l-19 -71q20 1 56 1z" />
    <glyph glyph-name="Tbar" unicode="&#x166;" horiz-adv-x="543" 
d="M460 693q57 -1 103.5 -13.5t46.5 -34.5q0 -15 -8.5 -21t-28.5 -6q-13 0 -49 4q-63 7 -128 8q-14 -58 -38 -145l-23 -88h34q85 0 121.5 -11.5t36.5 -38.5q0 -9 -5 -24q-43 8 -110 8q-34 0 -94 -4l-10 -46l-12 -56q-25 -121 -30 -209q-1 -12 -13.5 -16.5t-40.5 -4.5
q-38 0 -38 40q0 31 7.5 66.5t23.5 93.5l17 64l15 57q-7 -1 -50 -12q-6 -1 -33.5 -7.5t-41.5 -6.5q-15 0 -20 10t-4 28q1 32 48 45.5t123 19.5q38 138 52 235q-51 -4 -89.5 -13.5t-86.5 -24.5q-28 -11 -39 -11q-19 0 -26.5 9t-7.5 25q0 43 47 55q104 26 257 26h32q5 0 62 -1z
" />
    <glyph glyph-name="tbar" unicode="&#x167;" horiz-adv-x="487" 
d="M372 441q-55 0 -115 -5l-23 -112q50 2 66 2q62 0 89.5 -11t27.5 -37q0 -6 -4 -22q-29 5 -76 5q-52 0 -115 -7q-11 -69 -11 -114q0 -33 10 -53t48 -20q58 0 132 77q13 -2 21.5 -9.5t8.5 -17.5q0 -5 -7 -16q-32 -52 -87.5 -80t-105.5 -28q-106 0 -106 128q0 39 14 118
q-23 -5 -55 -14q-50 -15 -67 -16q-15 0 -20.5 10t-4.5 28q-1 31 44.5 45.5t115.5 23.5q16 82 22 110l-54 -12q-8 -2 -36.5 -8t-41.5 -6q-15 0 -20 10t-4 28q1 32 49 45.5t124 18.5q38 161 59 211q4 3 14 3q29 0 39 -17t10 -35q0 -10 -6 -31.5t-7 -27.5q-7 -23 -8 -28
l-18 -71q20 1 55 1q86 0 122 -11t36 -39q0 -9 -5 -24q-40 8 -110 8z" />
    <glyph glyph-name="Utilde" unicode="&#x168;" horiz-adv-x="620" 
d="M114 39.5q-45 54.5 -45 158.5q0 62 18 154t47 182t60 146q11 5 24 5q38 0 38 -51q1 -17 -4.5 -37t-19.5 -61l-17 -51q-19 -52 -36 -131t-17 -139q0 -71 25 -110t73 -39q80 0 131.5 73t81 184.5t57.5 279.5q2 10 7.5 47.5t20 49t42.5 12.5q17 0 25 -8
q-34 -232 -76.5 -384.5t-116 -243.5t-188.5 -91q-85 0 -130 54.5zM257 790q0 37 27 60.5t64 23.5q24 0 43.5 -10t41.5 -27q19 -14 28.5 -19.5t20.5 -5.5q26 0 39.5 17.5t14.5 46.5q31 -9 31 -44q0 -32 -16.5 -50t-37 -24.5t-34.5 -6.5q-22 0 -38 8t-37 24q-20 14 -31 20
t-25 6q-20 0 -35 -16t-23 -45q-33 8 -33 42z" />
    <glyph glyph-name="utilde" unicode="&#x169;" horiz-adv-x="548" 
d="M484 415q-19 -55 -31 -107.5t-15 -130.5q-1 -41 6 -71t26 -59q-7 -13 -21 -23t-28 -10q-34 0 -52.5 30t-18.5 89q0 52 17 134q-125 -256 -254 -256q-39 0 -60 29.5t-21 86.5t19 132t45.5 143.5t47.5 104.5q55 -3 55 -46q0 -17 -24 -77q-26 -68 -40.5 -119t-14.5 -101
q0 -32 8 -51.5t24 -19.5q55 0 116 100.5t123 237.5l16 34q8 17 21 30.5t28 12.5q9 0 19 -9.5t16.5 -22t5.5 -18.5q-2 -12 -13 -43zM163 631q0 37 27 60.5t64 23.5q24 0 43.5 -10t41.5 -27q19 -14 28.5 -19.5t20.5 -5.5q26 0 39.5 17.5t14.5 46.5q31 -9 31 -44
q0 -32 -16.5 -50t-37 -24.5t-34.5 -6.5q-22 0 -38 8t-37 24q-19 14 -30.5 20t-25.5 6q-20 0 -35 -16t-23 -45q-33 8 -33 42z" />
    <glyph glyph-name="Umacron" unicode="&#x16a;" horiz-adv-x="620" 
d="M114 39.5q-45 54.5 -45 158.5q0 62 18 154t47 182t60 146q11 5 24 5q38 0 38 -51q1 -17 -4.5 -37t-19.5 -61l-17 -51q-19 -52 -36 -131t-17 -139q0 -71 25 -110t73 -39q80 0 131.5 73t81 184.5t57.5 279.5q2 10 7.5 47.5t20 49t42.5 12.5q17 0 25 -8
q-34 -232 -76.5 -384.5t-116 -243.5t-188.5 -91q-85 0 -130 54.5zM269.5 780.5q-2.5 13.5 -1.5 22.5q1 21 42 31.5t100 10.5q17 0 47 -2q79 -5 92 -18q4 -4 4 -16q0 -15 -7 -34q-48 2 -72 2q-105 0 -197 -17q-5 7 -7.5 20.5z" />
    <glyph glyph-name="umacron" unicode="&#x16b;" horiz-adv-x="548" 
d="M484 415q-19 -55 -31 -107.5t-15 -130.5q-1 -41 6 -71t26 -59q-7 -13 -21 -23t-28 -10q-34 0 -52.5 30t-18.5 89q0 52 17 134q-125 -256 -254 -256q-39 0 -60 29.5t-21 86.5t19 132t45.5 143.5t47.5 104.5q55 -3 55 -46q0 -17 -24 -77q-26 -68 -40.5 -119t-14.5 -101
q0 -32 8 -51.5t24 -19.5q55 0 116 100.5t123 237.5l16 34q8 17 21 30.5t28 12.5q9 0 19 -9.5t16.5 -22t5.5 -18.5q-2 -12 -13 -43zM200.5 630.5q-2.5 13.5 -1.5 22.5q1 21 42 31.5t100 10.5q17 0 47 -2q79 -5 92 -18q4 -4 4 -16q0 -15 -7 -34q-48 2 -72 2q-105 0 -197 -17
q-5 7 -7.5 20.5z" />
    <glyph glyph-name="Ubreve" unicode="&#x16c;" horiz-adv-x="620" 
d="M114 39.5q-45 54.5 -45 158.5q0 62 18 154t47 182t60 146q11 5 24 5q38 0 38 -51q1 -17 -4.5 -37t-19.5 -61l-17 -51q-19 -52 -36 -131t-17 -139q0 -71 25 -110t73 -39q80 0 131.5 73t81 184.5t57.5 279.5q2 10 7.5 47.5t20 49t42.5 12.5q17 0 25 -8
q-34 -232 -76.5 -384.5t-116 -243.5t-188.5 -91q-85 0 -130 54.5zM316.5 780.5q-32.5 32.5 -28.5 85.5q3 24 20 24q11 0 16.5 -6t11 -16t7.5 -14q12 -21 28 -32.5t45 -11.5q50 0 77 45q2 3 7.5 13t12 15.5t12.5 5.5q16 0 14 -20q-3 -51 -39 -86t-99 -35q-52 0 -84.5 32.5z
" />
    <glyph glyph-name="ubreve" unicode="&#x16d;" horiz-adv-x="548" 
d="M484 415q-19 -55 -31 -107.5t-15 -130.5q-1 -41 6 -71t26 -59q-7 -13 -21 -23t-28 -10q-34 0 -52.5 30t-18.5 89q0 52 17 134q-125 -256 -254 -256q-39 0 -60 29.5t-21 86.5t19 132t45.5 143.5t47.5 104.5q55 -3 55 -46q0 -17 -24 -77q-26 -68 -40.5 -119t-14.5 -101
q0 -32 8 -51.5t24 -19.5q55 0 116 100.5t123 237.5l16 34q8 17 21 30.5t28 12.5q9 0 19 -9.5t16.5 -22t5.5 -18.5q-2 -12 -13 -43zM269.5 600q-25.5 13 -41.5 38t-16 58q0 43 21 43q12 0 18 -8t16 -30q12 -26 28.5 -39t46.5 -13q45 0 75 51q1 3 7 14t12.5 17.5t12.5 6.5
q14 0 14 -16q0 -29 -19 -60.5t-52 -53t-71 -21.5q-26 0 -51.5 13z" />
    <glyph glyph-name="Uring" unicode="&#x16e;" horiz-adv-x="620" 
d="M114 39.5q-45 54.5 -45 158.5q0 62 18 154t47 182t60 146q11 5 24 5q38 0 38 -51q1 -17 -4.5 -37t-19.5 -61l-17 -51q-19 -52 -36 -131t-17 -139q0 -71 25 -110t73 -39q80 0 131.5 73t81 184.5t57.5 279.5q2 10 7.5 47.5t20 49t42.5 12.5q17 0 25 -8
q-34 -232 -76.5 -384.5t-116 -243.5t-188.5 -91q-85 0 -130 54.5zM337.5 769q-19.5 18 -19.5 53q0 37 22 71.5t60 56t84 21.5q33 0 54 -18.5t21 -50.5q0 -38 -25.5 -73t-65.5 -56.5t-82 -21.5q-29 0 -48.5 18zM456.5 814q21.5 14 34.5 34t13 38q0 19 -11 28t-25 9
q-40 0 -67 -26.5t-27 -59.5q0 -16 10 -26.5t26 -10.5q25 0 46.5 14z" />
    <glyph glyph-name="uring" unicode="&#x16f;" horiz-adv-x="548" 
d="M484 415q-19 -55 -31 -107.5t-15 -130.5q-1 -41 6 -71t26 -59q-7 -13 -21 -23t-28 -10q-34 0 -52.5 30t-18.5 89q0 52 17 134q-125 -256 -254 -256q-39 0 -60 29.5t-21 86.5t19 132t45.5 143.5t47.5 104.5q55 -3 55 -46q0 -17 -24 -77q-26 -68 -40.5 -119t-14.5 -101
q0 -32 8 -51.5t24 -19.5q55 0 116 100.5t123 237.5l16 34q8 17 21 30.5t28 12.5q9 0 19 -9.5t16.5 -22t5.5 -18.5q-2 -12 -13 -43zM237.5 589q-19.5 18 -19.5 53q0 37 22 71.5t60 56t84 21.5q33 0 54 -18.5t21 -50.5q0 -38 -25.5 -73t-65.5 -56.5t-82 -21.5q-29 0 -48.5 18z
M356.5 634q21.5 14 34.5 34t13 38q0 19 -11 28t-25 9q-40 0 -67 -26.5t-27 -59.5q0 -16 10 -26.5t26 -10.5q25 0 46.5 14z" />
    <glyph glyph-name="Uhungarumlaut" unicode="&#x170;" horiz-adv-x="620" 
d="M114 39.5q-45 54.5 -45 158.5q0 62 18 154t47 182t60 146q11 5 24 5q38 0 38 -51q1 -17 -4.5 -37t-19.5 -61l-17 -51q-19 -52 -36 -131t-17 -139q0 -71 25 -110t73 -39q80 0 131.5 73t81 184.5t57.5 279.5q2 10 7.5 47.5t20 49t42.5 12.5q17 0 25 -8
q-34 -232 -76.5 -384.5t-116 -243.5t-188.5 -91q-85 0 -130 54.5zM252 757.5q-6 6.5 -5 15.5q61 51 130 148q22 -2 34.5 -13t12.5 -27q0 -7 -1 -11q-6 -27 -33.5 -55t-61.5 -46t-58 -18q-12 0 -18 6.5zM414 760q-6 8 -5 16q43 30 71 57.5t54 71.5q22 -2 35 -13.5t13 -28.5
q0 -6 -1 -9q-7 -28 -34.5 -53t-61.5 -39t-56 -11q-9 1 -15 9z" />
    <glyph glyph-name="uhungarumlaut" unicode="&#x171;" horiz-adv-x="548" 
d="M484 415q-19 -55 -31 -107.5t-15 -130.5q-1 -41 6 -71t26 -59q-7 -13 -21 -23t-28 -10q-34 0 -52.5 30t-18.5 89q0 52 17 134q-125 -256 -254 -256q-39 0 -60 29.5t-21 86.5t19 132t45.5 143.5t47.5 104.5q55 -3 55 -46q0 -17 -24 -77q-26 -68 -40.5 -119t-14.5 -101
q0 -32 8 -51.5t24 -19.5q55 0 116 100.5t123 237.5l16 34q8 17 21 30.5t28 12.5q9 0 19 -9.5t16.5 -22t5.5 -18.5q-2 -12 -13 -43zM213.5 590.5q-5.5 5.5 -5.5 13.5q53 58 108 165q24 1 38.5 -10t14.5 -29q0 -29 -25 -63t-59.5 -58t-56.5 -24q-9 0 -14.5 5.5zM358 592
q-7 7 -7 15q39 37 62.5 68t43.5 77q24 1 38.5 -10t14.5 -29q0 -30 -24 -59.5t-56.5 -49t-55.5 -19.5q-9 0 -16 7z" />
    <glyph glyph-name="Uogonek" unicode="&#x172;" horiz-adv-x="621" 
d="M620 704q-39 -261 -89 -423.5t-136 -237.5q-57 -46 -100.5 -91t-43.5 -84q0 -19 10 -25t21 -6q26 0 61 20q4 3 9 3q8 0 14.5 -7.5t6.5 -15.5t-5 -13q-52 -49 -122 -49q-81 0 -81 68q0 33 27.5 74t68.5 77q-7 -1 -22 -1q-86 0 -130.5 51t-44.5 154q0 62 18 154t47 182
t60 146q11 5 24 5q38 0 38 -51q1 -17 -4.5 -37t-19.5 -61l-17 -51q-19 -52 -36 -131t-17 -139q0 -71 25 -110t73 -39q80 0 131.5 73t81 184.5t57.5 279.5q2 10 7.5 47.5t20 49t42.5 12.5q17 0 25 -8z" />
    <glyph glyph-name="uogonek" unicode="&#x173;" horiz-adv-x="548" 
d="M484 415q-19 -55 -31 -107.5t-15 -130.5q-1 -41 6 -71t26 -59q-61 -49 -106 -94.5t-45 -84.5q0 -19 10 -25t21 -6q26 0 61 20q5 3 9 3q8 0 14.5 -7.5t6.5 -15.5t-5 -13q-52 -49 -122 -49q-81 0 -81 68q0 44 47.5 99.5t100.5 86.5q-30 28 -30 105q0 56 16 133
q-125 -256 -254 -256q-39 0 -60 29.5t-21 86.5t19 132t45.5 143.5t47.5 104.5q55 -3 55 -46q0 -17 -24 -77q-26 -68 -40.5 -119t-14.5 -101q0 -32 8 -51.5t24 -19.5q55 0 116 100.5t123 237.5l16 34q8 17 21 30.5t28 12.5q9 0 19 -9.5t16.5 -22t5.5 -18.5q-2 -12 -13 -43z
" />
    <glyph glyph-name="Wcircumflex" unicode="&#x174;" horiz-adv-x="851" 
d="M857 683q0 -55 -16 -142t-37 -166q-35 -130 -96.5 -246.5t-153.5 -116.5q-68 0 -95.5 62.5t-27.5 147.5q0 18 2 44q-27 -68 -74.5 -130.5t-101.5 -101t-99 -38.5q-116 0 -116 162q0 69 24.5 168.5t66 201.5t88.5 177q11 15 20.5 24.5t21.5 9.5t24 -19t12 -35
q0 -12 -9 -32t-34 -68q-45 -83 -65 -136q-24 -66 -42.5 -136t-18.5 -121q0 -55 9 -86.5t44 -31.5q50 0 115.5 88.5t140.5 269.5l15 38q21 52 35.5 74t38.5 22q9 0 12.5 -4.5t3.5 -14.5q0 -14 -10 -57l-13 -65q-13 -70 -13 -141q0 -76 15 -127.5t44 -51.5q40 0 83 60t73 164
q15 52 23 99.5t19 134.5l10 78q3 24 7.5 35.5t17.5 25.5q7 6 20.5 11t20.5 5q16 0 16 -35zM652.5 830q36.5 -44 69.5 -71q-11 -21 -31 -21q-28 -1 -60.5 25.5t-58.5 61.5q-24 -23 -56 -41.5t-64 -29.5q-25 -7 -39 -7q-11 0 -15 4q-9 8 -9 11t4.5 6.5t8.5 6.5t6 4
q45 24 91 60t70 65q6 8 16 8q9 0 14 -8q17 -30 53.5 -74z" />
    <glyph glyph-name="wcircumflex" unicode="&#x175;" horiz-adv-x="682" 
d="M650 497q10 -7 10 -31q0 -36 -11 -96.5t-33 -120.5q-35 -98 -94.5 -167.5t-115.5 -69.5q-19 0 -37 17t-29.5 50t-11.5 78q0 29 3 60q-39 -90 -100.5 -158t-118.5 -68q-35 0 -59 34t-24 111q0 68 24 157.5t62.5 153t80.5 63.5q14 0 22.5 -5t8.5 -15q0 -7 -5 -16.5
t-11.5 -18.5t-11.5 -18q-40 -62 -63 -135.5t-23 -146.5q0 -45 8 -64t23 -19q36 0 90 83.5t101 201.5q11 26 14 39q11 31 18.5 40.5t24.5 9.5q32 0 32 -30q0 -4 -3 -25q-1 -8 -12 -75t-11 -125q0 -96 43 -96q28 0 60 50t52 116q20 64 25.5 105t5.5 100q0 19 11.5 28.5
t30.5 9.5q14 0 24 -7zM524 661.5q36 -47.5 61 -71.5q-11 -21 -31 -21q-28 -1 -59 28.5t-57 68.5q-27 -27 -58 -49t-59 -32q-28 -8 -40 -8q-9 0 -14 5q-9 6 -9 12q0 7 19 20q43 23 87.5 60.5t70.5 69.5q6 8 17 8q4 0 8 -2t5 -6q23 -35 59 -82.5z" />
    <glyph glyph-name="Ycircumflex" unicode="&#x176;" horiz-adv-x="585" 
d="M592 703.5q12 -12.5 8 -30.5l-62 -277q-30 -134 -62.5 -219.5t-95.5 -141t-168 -55.5q-40 0 -78.5 12.5t-63 33t-24.5 42.5q0 23 12.5 34t32.5 11q11 0 21 -6t24 -18q24 -20 47 -31t60 -11q65 0 112 64.5t76.5 157.5t55.5 216q-65 -135 -125.5 -184.5t-121.5 -49.5
t-97 50.5t-36 139.5q0 61 15.5 123.5t39.5 110.5q16 33 36.5 47t38.5 14q26 0 37 -17q-39 -56 -58 -129t-19 -136q0 -136 63 -136q46 0 94 54.5t87.5 129t62.5 138.5l17 48q5 14 15.5 21t23.5 7q20 0 32 -12.5zM520.5 870q36.5 -44 69.5 -71q-11 -21 -31 -21
q-28 -1 -60.5 25.5t-58.5 61.5q-24 -23 -56 -41.5t-64 -29.5q-25 -7 -39 -7q-11 0 -15 4q-9 8 -9 11t4.5 6.5t8.5 6.5t6 4q45 24 91 60t70 65q6 8 16 8q9 0 14 -8q17 -30 53.5 -74z" />
    <glyph glyph-name="ycircumflex" unicode="&#x177;" horiz-adv-x="568" 
d="M494 473q11 -24 11 -47q0 -36 -12.5 -113.5t-35.5 -176.5q-26 -114 -60.5 -191.5t-97 -125.5t-161.5 -48q-41 0 -86 11.5t-75.5 31.5t-30.5 45q0 14 9 24t23 10q13 0 27.5 -5t37.5 -16q30 -14 55 -22.5t51 -8.5q74 0 122 50t75.5 130t49.5 197q-33 -59 -80 -110
t-95.5 -81t-87.5 -30q-43 0 -64.5 41t-21.5 109q0 69 20 155.5t52 146.5t66 60q38 0 36 -32q-1 -13 -12 -38q-34 -77 -58 -165.5t-24 -153.5q0 -50 24 -50q46 0 103.5 57.5t108.5 151t80 195.5q6 23 24 23q16 0 27 -24zM454 661.5q36 -47.5 61 -71.5q-11 -21 -31 -21
q-28 -1 -59 28.5t-57 68.5q-27 -27 -58 -49t-59 -32q-28 -8 -40 -8q-9 0 -14 5q-9 6 -9 12q0 7 19 20q43 23 87.5 60.5t70.5 69.5q6 8 17 8q4 0 8 -2t5 -6q23 -35 59 -82.5z" />
    <glyph glyph-name="Ydieresis" unicode="&#x178;" horiz-adv-x="585" 
d="M592 703.5q12 -12.5 8 -30.5l-62 -277q-30 -134 -62.5 -219.5t-95.5 -141t-168 -55.5q-40 0 -78.5 12.5t-63 33t-24.5 42.5q0 23 12.5 34t32.5 11q11 0 21 -6t24 -18q24 -20 47 -31t60 -11q65 0 112 64.5t76.5 157.5t55.5 216q-65 -135 -125.5 -184.5t-121.5 -49.5
t-97 50.5t-36 139.5q0 61 15.5 123.5t39.5 110.5q16 33 36.5 47t38.5 14q26 0 37 -17q-39 -56 -58 -129t-19 -136q0 -136 63 -136q46 0 94 54.5t87.5 129t62.5 138.5l17 48q5 14 15.5 21t23.5 7q20 0 32 -12.5zM472.5 812.5q-10.5 12.5 -10.5 31.5q0 43 21.5 62t51.5 19
q20 0 30 -14t10 -32q0 -27 -21 -53t-56 -26q-15 0 -25.5 12.5zM282.5 804q-10.5 14 -10.5 39q0 44 20.5 59t51.5 15q22 0 31.5 -13t9.5 -32q0 -17 -9.5 -36t-26 -32.5t-35.5 -13.5q-21 0 -31.5 14z" />
    <glyph glyph-name="Zacute" unicode="&#x179;" horiz-adv-x="607" 
d="M127 90q87 -7 125 -7l38 1q70 3 107.5 9t70.5 15q28 7 43 7q17 0 24.5 -9t7.5 -22q0 -43 -88 -63t-191 -20q-100 0 -169 15.5t-69 53.5q0 52 178 222.5t342 307.5q-44 12 -84 16t-98 4q-70 0 -125 -18t-85 -57q-19 3 -29.5 14.5t-10.5 25.5q0 51 76 78t175 27
q253 0 253 -82q0 -30 -38 -70t-126 -116q-89 -78 -108 -96q-157 -144 -219 -236zM318 768.5q-4 6.5 -2 14.5q62 18 101 45.5t81 74.5q22 -4 38 -17.5t16 -29.5q0 -4 -2 -10q-7 -24 -39.5 -44.5t-75 -32t-77.5 -11.5q-19 0 -27 2q-9 2 -13 8.5z" />
    <glyph glyph-name="zacute" unicode="&#x17a;" horiz-adv-x="502" 
d="M432 143q21 0 21 -25q0 -12 -4 -28q-8 -32 -115 -47t-204 -15q-124 0 -124 46q0 21 28.5 48.5t108.5 91.5l60 49q64 53 100 85.5t76 74.5q-44 9 -92 9q-90 0 -177 -32q-20 4 -32 20.5t-12 36.5q0 28 55.5 38t114.5 10q110 0 164 -17.5t54 -43.5q0 -43 -98 -134t-246 -202
q19 -2 51 -2h32q72 0 201 30q26 7 38 7zM216.5 590.5q-5.5 5.5 -5.5 13.5q57 31 89 65.5t64 89.5q25 2 44 -10t19 -31q0 -29 -34.5 -60t-81.5 -52t-80 -21q-9 0 -14.5 5.5z" />
    <glyph glyph-name="Zdotaccent" unicode="&#x17b;" horiz-adv-x="607" 
d="M127 90q87 -7 125 -7l38 1q70 3 107.5 9t70.5 15q28 7 43 7q17 0 24.5 -9t7.5 -22q0 -43 -88 -63t-191 -20q-100 0 -169 15.5t-69 53.5q0 52 178 222.5t342 307.5q-44 12 -84 16t-98 4q-70 0 -125 -18t-85 -57q-19 3 -29.5 14.5t-10.5 25.5q0 51 76 78t175 27
q253 0 253 -82q0 -30 -38 -70t-126 -116q-89 -78 -108 -96q-157 -144 -219 -236zM353.5 764.5q-9.5 12.5 -9.5 32.5q0 91 76 91q20 0 30.5 -15t10.5 -35q0 -18 -10 -38t-29 -34t-44 -14q-15 0 -24.5 12.5z" />
    <glyph glyph-name="zdotaccent" unicode="&#x17c;" horiz-adv-x="502" 
d="M432 143q21 0 21 -25q0 -12 -4 -28q-8 -32 -115 -47t-204 -15q-124 0 -124 46q0 21 28.5 48.5t108.5 91.5l60 49q64 53 100 85.5t76 74.5q-44 9 -92 9q-90 0 -177 -32q-20 4 -32 20.5t-12 36.5q0 28 55.5 38t114.5 10q110 0 164 -17.5t54 -43.5q0 -43 -98 -134t-246 -202
q19 -2 51 -2h32q72 0 201 30q26 7 38 7zM255.5 597.5q-9.5 12.5 -9.5 32.5q0 91 76 91q20 0 30.5 -15t10.5 -35q0 -18 -10 -38t-29 -34t-44 -14q-15 0 -24.5 12.5z" />
    <glyph glyph-name="Zcaron" unicode="&#x17d;" horiz-adv-x="607" 
d="M127 90q87 -7 125 -7l38 1q70 3 107.5 9t70.5 15q28 7 43 7q17 0 24.5 -9t7.5 -22q0 -43 -88 -63t-191 -20q-100 0 -169 15.5t-69 53.5q0 52 178 222.5t342 307.5q-44 12 -84 16t-98 4q-70 0 -125 -18t-85 -57q-19 3 -29.5 14.5t-10.5 25.5q0 51 76 78t175 27
q253 0 253 -82q0 -30 -38 -70t-126 -116q-89 -78 -108 -96q-157 -144 -219 -236zM592 877q0 -9 -20 -19q-87 -40 -149 -110q-6 -8 -20 -8q-12 0 -16 7q-19 29 -52.5 65t-63.5 59q8 18 32 18q23 0 54.5 -22t52.5 -49q24 21 57 39t62 28q23 9 39 9q12 0 18 -6t6 -11z" />
    <glyph glyph-name="zcaron" unicode="&#x17e;" horiz-adv-x="502" 
d="M432 143q21 0 21 -25q0 -12 -4 -28q-8 -32 -115 -47t-204 -15q-124 0 -124 46q0 21 28.5 48.5t108.5 91.5l60 49q64 53 100 85.5t76 74.5q-44 9 -92 9q-90 0 -177 -32q-20 4 -32 20.5t-12 36.5q0 28 55.5 38t114.5 10q110 0 164 -17.5t54 -43.5q0 -43 -98 -134t-246 -202
q19 -2 51 -2h32q72 0 201 30q26 7 38 7zM477 713q0 -4 -5.5 -9t-13.5 -10q-45 -25 -89 -59t-66 -60q-6 -8 -16 -8q-9 0 -13 7q-17 26 -54 72t-63 72q9 21 32 21q26 0 56.5 -26.5t54.5 -61.5q25 23 56 42t59 28q19 9 39 9q10 0 14 -4q9 -7 9 -13z" />
    <glyph glyph-name="longs" unicode="&#x17f;" horiz-adv-x="360" 
d="M486.5 727.5q34.5 -17.5 34.5 -48.5q0 -16 -10.5 -26t-24.5 -10q-7 0 -17.5 7.5t-15.5 10.5q-12 8 -29 14.5t-34 6.5q-42 0 -68.5 -26.5t-47 -88t-43.5 -178.5l-51 -258q-11 -56 -24.5 -89.5t-41.5 -33.5q-17 0 -28.5 9t-11.5 31q0 9 3 22l64 297l9 39q-43 -8 -63 -13
q-32 -7 -43 -7q-25 0 -25 29l1 10q3 21 44.5 33t102.5 19q27 96 59 154t76 86t107 28q43 0 77.5 -17.5z" />
    <glyph glyph-name="florin" unicode="&#x192;" horiz-adv-x="484" 
d="M519.5 682.5q28.5 -17.5 28.5 -48.5q0 -16 -10.5 -26t-24.5 -10q-10 0 -17 4.5t-14 12.5q-10 11 -19.5 16.5t-25.5 5.5q-36 0 -60.5 -19.5t-43.5 -65t-39 -129.5q57 5 87 5q49 0 72 -10t23 -33q0 -9 -5 -24q-25 4 -59 4q-30 0 -64.5 -3.5t-45.5 -4.5l-23 -3l-6 -28
l-24 -128q-24 -112 -52.5 -180t-73 -101.5t-112.5 -33.5q-36 0 -69 17.5t-33 48.5q0 16 10.5 26t24.5 10q11 0 20.5 -5t23.5 -15q13 -10 22.5 -14.5t19.5 -4.5q39 0 61 22t36.5 69t30.5 139l30 146l5 23q-34 -5 -68 -13q-6 -1 -20 -3.5t-23 -2.5q-25 0 -25 29l1 10
q6 37 151 50q26 102 58.5 164t78 91.5t110.5 29.5q35 0 63.5 -17.5z" />
    <glyph glyph-name="uni01CD" unicode="&#x1cd;" horiz-adv-x="592" 
d="M537 293.5q8 -9.5 8 -23.5q0 -10 -9.5 -12.5t-28.5 -2.5q-36 0 -54 -1q1 -53 5 -97t14 -108q-9 -19 -31 -34t-39 -15q-10 0 -16 10t-9 35q-4 36 -7.5 94t-2.5 108q-126 -15 -236 -65q-51 -106 -89 -212q-36 -1 -45 11.5t-9 35.5q0 47 100 223.5t212.5 331.5t147.5 155
q17 0 27 -9q-14 -102 -18 -195.5t-4 -213.5q26 0 50 -3q26 -3 34 -12.5zM171 262q94 32 198 43q7 189 15 285q-108 -129 -213 -328zM650 887q0 -9 -20 -19q-87 -40 -149 -110q-6 -8 -20 -8q-12 0 -16 7q-19 29 -52.5 65t-63.5 59q8 18 32 18q23 0 54.5 -22t52.5 -49
q24 21 57 39t62 28q23 9 39 9q12 0 18 -6t6 -11z" />
    <glyph glyph-name="uni01CE" unicode="&#x1ce;" horiz-adv-x="552" 
d="M433.5 270q-24.5 -86 -24.5 -135q-2 -44 21 -44q9 0 23 7t19 7q12 0 12 -22q0 -18 -13.5 -36t-35.5 -29.5t-47 -11.5q-29 0 -45 22t-16 67q0 20 7 64q-41 -71 -100.5 -114t-128.5 -43q-48 0 -77 30.5t-29 77.5q0 92 52 183t129.5 149t147.5 58q59 0 53 -54q-17 3 -29 3
q-11 0 -31 -4q-59 -12 -111.5 -61.5t-84 -114.5t-31.5 -120q0 -78 48 -78q71 0 135 90.5t107 202.5q22 56 39.5 89.5t37.5 33.5q15 0 25 -10.5t10 -25.5q0 -11 -4 -19q-34 -76 -58.5 -162zM544 713q0 -4 -5.5 -9t-13.5 -10q-45 -25 -89 -59t-66 -60q-6 -8 -16 -8q-9 0 -13 7
q-17 26 -54 72t-63 72q9 21 32 21q26 0 56.5 -26.5t54.5 -61.5q25 23 56 42t59 28q19 9 39 9q10 0 14 -4q9 -7 9 -13z" />
    <glyph glyph-name="Aringacute" unicode="&#x1fa;" horiz-adv-x="582" 
d="M537 293.5q8 -9.5 8 -23.5q0 -10 -9.5 -12.5t-28.5 -2.5q-36 0 -54 -1q1 -53 5 -97t14 -108q-9 -19 -31 -34t-39 -15q-10 0 -16 10t-9 35q-4 36 -7.5 94t-2.5 108q-126 -15 -236 -65q-51 -106 -89 -212q-36 -1 -45 11.5t-9 35.5q0 47 100 223.5t212.5 331.5t147.5 155
q17 0 27 -9q-14 -102 -18 -195.5t-4 -213.5q26 0 50 -3q26 -3 34 -12.5zM171 262q94 32 198 43q7 189 15 285q-108 -129 -213 -328zM385.5 779q-19.5 18 -19.5 53q0 37 22 71.5t60 56t84 21.5q33 0 54 -18.5t21 -50.5q0 -38 -25.5 -73t-65.5 -56.5t-82 -21.5q-29 0 -48.5 18
zM504.5 824q21.5 14 34.5 34t13 38q0 19 -11 28t-25 9q-40 0 -67 -26.5t-27 -59.5q0 -16 10 -26.5t26 -10.5q25 0 46.5 14zM428 1019.5q-4 6.5 -2 14.5q62 18 101 45.5t81 74.5q22 -4 38 -17.5t16 -29.5q0 -4 -2 -10q-7 -24 -39.5 -44.5t-75 -32t-77.5 -11.5q-19 0 -27 2
q-9 2 -13 8.5z" />
    <glyph glyph-name="aringacute" unicode="&#x1fb;" horiz-adv-x="554" 
d="M433.5 270q-24.5 -86 -24.5 -135q-2 -44 21 -44q9 0 23 7t19 7q12 0 12 -22q0 -18 -13.5 -36t-35.5 -29.5t-47 -11.5q-29 0 -45 22t-16 67q0 20 7 64q-41 -71 -100.5 -114t-128.5 -43q-48 0 -77 30.5t-29 77.5q0 92 52 183t129.5 149t147.5 58q59 0 53 -54q-17 3 -29 3
q-11 0 -31 -4q-59 -12 -111.5 -61.5t-84 -114.5t-31.5 -120q0 -78 48 -78q71 0 135 90.5t107 202.5q22 56 39.5 89.5t37.5 33.5q15 0 25 -10.5t10 -25.5q0 -11 -4 -19q-34 -76 -58.5 -162zM265.5 589q-19.5 18 -19.5 53q0 37 22 71.5t60 56t84 21.5q33 0 54 -18.5t21 -50.5
q0 -38 -25.5 -73t-65.5 -56.5t-82 -21.5q-29 0 -48.5 18zM384.5 634q21.5 14 34.5 34t13 38q0 19 -11 28t-25 9q-40 0 -67 -26.5t-27 -59.5q0 -16 10 -26.5t26 -10.5q25 0 46.5 14zM352.5 821.5q-5.5 5.5 -5.5 13.5q57 31 89 65.5t64 89.5q25 2 44 -10t19 -31
q0 -29 -34.5 -60t-81.5 -52t-80 -21q-9 0 -14.5 5.5z" />
    <glyph glyph-name="AEacute" unicode="&#x1fc;" horiz-adv-x="892" 
d="M858.5 658q30.5 -14 30.5 -36q0 -16 -7 -29t-19 -21q-14 16 -42 23.5t-73 11.5q-46 4 -59 4q-36 0 -73 -10q-18 -24 -36 -77.5t-34 -118.5l-12 -46q97 15 192 17q37 0 37 -25q0 -7 -1 -10q-3 -18 -41 -24l-63 -8q-101 -13 -142 -19l-17 -65q-16 -62 -16 -94
q0 -37 19.5 -52.5t64.5 -15.5q69 0 183 28q43 10 54 10q20 0 19 -29q-1 -27 -50.5 -46t-113.5 -28.5t-107 -9.5q-102 0 -140 46q-26 25 -26 81t29 156q-136 -29 -249 -84q-75 -116 -119 -217q-31 -1 -45.5 11t-14.5 29q0 25 40.5 100t101.5 160q109 153 228 262t231 138
q40 10 113 10q32 0 41 -1q86 -7 116.5 -21zM437 340l18 57q21 61 41 108.5t47 89.5q-28 -6 -75.5 -42t-104 -97.5t-108.5 -138.5l-30 -43q94 40 212 66zM569 768.5q-4 6.5 -2 14.5q62 18 101 45.5t81 74.5q22 -4 38 -17.5t16 -29.5q0 -4 -2 -10q-7 -24 -39.5 -44.5t-75 -32
t-77.5 -11.5q-19 0 -27 2q-9 2 -13 8.5z" />
    <glyph glyph-name="aeacute" unicode="&#x1fd;" horiz-adv-x="811" 
d="M744.5 167q4.5 -8 2.5 -20q-6 -33 -40.5 -67.5t-90.5 -57t-122 -22.5q-34 0 -69.5 15t-60.5 52t-25 99v2q-41 -73 -104.5 -119.5t-129.5 -46.5q-48 0 -77 30.5t-29 77.5q0 92 52 183t129.5 149t147.5 58q59 0 53 -54q-17 3 -29 3q-11 0 -31 -4q-59 -12 -111.5 -61.5
t-84 -114.5t-31.5 -120q0 -40 13 -59t35 -19q65 0 132.5 92.5t114.5 200.5q12 28 16 41q20 51 35.5 79t30.5 28q14 0 22.5 -9t8.5 -26q0 -10 -3 -22q77 50 159 50q52 0 82.5 -27t30.5 -69q0 -60 -45 -109t-118.5 -77.5t-153.5 -28.5q-19 0 -29 1v-18q0 -49 32.5 -78.5
t75.5 -29.5q57 0 104 25.5t94 82.5q9 -2 13.5 -10zM549 420q-43 -26 -74.5 -72.5t-43.5 -106.5q69 -3 127.5 21.5t92.5 62.5t34 73q0 48 -47 48q-46 0 -89 -26zM410.5 590.5q-5.5 5.5 -5.5 13.5q57 31 89 65.5t64 89.5q25 2 44 -10t19 -31q0 -29 -34.5 -60t-81.5 -52
t-80 -21q-9 0 -14.5 5.5z" />
    <glyph glyph-name="Oslashacute" unicode="&#x1fe;" horiz-adv-x="578" 
d="M551 628q24 -49 24 -117q0 -107 -50.5 -227t-137.5 -201.5t-191 -81.5q-63 0 -103 40q-18 -23 -49 -68l-29 -39q-7 -10 -24 -10q-10 0 -17.5 4.5t-7.5 12.5q0 5 2 8q16 30 92 138q-29 59 -29 141q0 125 48 239t133.5 184.5t193.5 70.5q69 0 115 -49q57 65 85 85
q13 3 27.5 -7t16.5 -24q-46 -40 -99 -99zM121 170q84 113 178.5 234t169.5 210q-28 34 -73 34q-84 0 -147.5 -62.5t-97.5 -161t-34 -200.5q0 -33 4 -54zM494 563q-139 -162 -354 -456q24 -38 67 -38q68 0 136.5 66.5t113 168t44.5 199.5q0 33 -7 60zM360 768.5
q-4 6.5 -2 14.5q62 18 101 45.5t81 74.5q22 -4 38 -17.5t16 -29.5q0 -4 -2 -10q-7 -24 -39.5 -44.5t-75 -32t-77.5 -11.5q-19 0 -27 2q-9 2 -13 8.5z" />
    <glyph glyph-name="oslashacute" unicode="&#x1ff;" horiz-adv-x="474" 
d="M434 446q25 -41 25 -99q0 -80 -43 -159t-115 -129.5t-153 -50.5q-37 0 -66 15l-62 -85q-7 -10 -21 -10q-9 0 -15 4t-6 11q0 4 3 10q17 32 64 98q-34 40 -34 107q0 86 40.5 168t109 133t147.5 51q53 0 90 -26q51 56 85 81q13 3 27.5 -7t16.5 -24q-39 -34 -93 -88zM95 118
q124 165 256 315q-18 12 -45 12q-65 0 -114.5 -45.5t-76 -112t-26.5 -125.5q0 -24 6 -44zM384 393q-115 -125 -261 -315q19 -11 43 -11q58 0 110.5 43t85 107t32.5 119q0 33 -10 57zM243.5 590.5q-5.5 5.5 -5.5 13.5q57 31 89 65.5t64 89.5q25 2 44 -10t19 -31
q0 -29 -34.5 -60t-81.5 -52t-80 -21q-9 0 -14.5 5.5z" />
    <glyph glyph-name="Scommaaccent" unicode="&#x218;" horiz-adv-x="487" 
d="M50.5 15.5q-43.5 20.5 -50.5 71.5q-2 8 1 20t9 20q68 -47 142 -47q81 0 136 31.5t55 89.5q0 35 -16.5 59.5t-39.5 40.5t-66 39q-46 24 -74 43.5t-47.5 51t-19.5 77.5q0 57 32.5 99.5t86.5 65.5t119 23q81 0 136 -31.5t55 -85.5q0 -33 -36 -33q-9 0 -16.5 5t-18.5 15
q-26 23 -56 36.5t-84 13.5q-59 0 -99.5 -26.5t-40.5 -70.5q0 -33 25 -56t79 -55q50 -30 80.5 -53.5t52.5 -60t22 -86.5q0 -62 -34.5 -111.5t-96.5 -77.5t-142 -28q-50 0 -93.5 20.5zM65 -208q33 1 55 18t24 36q2 30 -13 55q-3 4 -3 9l1 8q1 13 15.5 26.5t35.5 13.5
q23 0 36 -18t13 -47q0 -35 -16.5 -65.5t-44.5 -49t-59 -18.5q-45 0 -44 32z" />
    <glyph glyph-name="scommaaccent" unicode="&#x219;" horiz-adv-x="431" 
d="M51 39.5q-41 25.5 -41 62.5q0 15 5.5 26.5t14.5 14.5q66 -57 134 -57q45 0 75.5 17.5t30.5 52.5q0 26 -24 42t-72 34q-44 17 -71 31.5t-46 39t-19 61.5q0 65 52.5 101t134.5 36q50 0 94.5 -15t72 -42t27.5 -62q0 -22 -14 -35.5t-33 -13.5q-7 0 -10 1q-6 48 -46.5 74.5
t-96.5 26.5q-37 0 -62 -19.5t-25 -46.5q0 -29 24.5 -48.5t74.5 -42.5q39 -18 63 -32.5t41 -36.5t17 -53q0 -48 -29.5 -80t-73.5 -47t-88 -15q-69 0 -110 25.5zM37 -208q33 1 55 18t24 36q2 30 -13 55q-3 4 -3 9l1 8q1 13 15.5 26.5t35.5 13.5q23 0 36 -18t13 -47
q0 -35 -16.5 -65.5t-44.5 -49t-59 -18.5q-45 0 -44 32z" />
    <glyph glyph-name="uni021A" unicode="&#x21a;" horiz-adv-x="504" 
d="M460 693q57 -1 103.5 -13.5t46.5 -34.5q0 -15 -8.5 -21t-28.5 -6q-13 0 -49 4q-63 7 -128 8l-30 -114q-4 -15 -28 -108.5t-42 -182.5q-25 -121 -30 -209q-1 -12 -13.5 -16.5t-40.5 -4.5q-38 0 -38 40q0 31 7.5 66.5t23.5 93.5l17 64l25 94q23 80 38 142.5t26 132.5
q-51 -4 -89.5 -13.5t-86.5 -24.5q-28 -11 -39 -11q-19 0 -26.5 9t-7.5 25q0 43 47 55q104 26 257 26h32q5 0 62 -1zM103 -208q33 1 55 18t24 36q2 30 -13 55q-3 4 -3 9l1 8q1 13 15.5 26.5t35.5 13.5q23 0 36 -18t13 -47q0 -35 -16.5 -65.5t-44.5 -49t-59 -18.5
q-45 0 -44 32z" />
    <glyph glyph-name="uni021B" unicode="&#x21b;" horiz-adv-x="456" 
d="M349 441q-55 0 -115 -5q-54 -212 -54 -296q0 -33 10 -53t48 -20q62 0 142 77q13 -2 21.5 -9.5t8.5 -17.5q0 -5 -7 -16q-34 -52 -92 -80t-111 -28q-106 0 -106 128q0 68 54 304q-17 -3 -51 -11q-8 -2 -35.5 -8t-40.5 -6q-15 0 -20 10t-4 28q1 31 47.5 44.5t122.5 19.5
q38 153 62 211q4 3 14 3q29 0 39 -17t10 -35q0 -10 -6 -31.5t-7 -27.5q-7 -23 -8 -28l-19 -71q20 1 56 1q86 0 122 -11t36 -39q0 -9 -5 -24q-41 8 -112 8zM84 -208q33 1 55 18t24 36q2 30 -13 55q-3 4 -3 9l1 8q1 13 15.5 26.5t35.5 13.5q23 0 36 -18t13 -47
q0 -35 -16.5 -65.5t-44.5 -49t-59 -18.5q-45 0 -44 32z" />
    <glyph glyph-name="uni0237" unicode="&#x237;" horiz-adv-x="245" 
d="M-197.5 -203q-31.5 21 -31.5 61q0 19 8 30t22 11q7 0 12.5 -4t14.5 -13q17 -15 31 -23.5t37 -8.5q59 0 94 60.5t58 142.5q25 93 42.5 201t19.5 173q1 29 13 46t32 17q48 0 48 -59q0 -26 -7.5 -66.5t-23.5 -117.5q-2 -9 -3.5 -19t-4.5 -21q-24 -112 -52.5 -199.5
t-87 -159.5t-148.5 -72q-42 0 -73.5 21z" />
    <glyph glyph-name="circumflex" unicode="&#x2c6;" 
d="M333 661.5q36 -47.5 61 -71.5q-11 -21 -31 -21q-28 -1 -59 28.5t-57 68.5q-27 -27 -58 -49t-59 -32q-28 -8 -40 -8q-9 0 -14 5q-9 6 -9 12q0 7 19 20q43 23 87.5 60.5t70.5 69.5q6 8 17 8q4 0 8 -2t5 -6q23 -35 59 -82.5z" />
    <glyph glyph-name="caron" unicode="&#x2c7;" 
d="M462 713q0 -4 -5.5 -9t-13.5 -10q-45 -25 -89 -59t-66 -60q-6 -8 -16 -8q-9 0 -13 7q-17 26 -54 72t-63 72q9 21 32 21q26 0 56.5 -26.5t54.5 -61.5q25 23 56 42t59 28q19 9 39 9q10 0 14 -4q9 -7 9 -13z" />
    <glyph glyph-name="breve" unicode="&#x2d8;" 
d="M230.5 600q-25.5 13 -41.5 38t-16 58q0 43 21 43q12 0 18 -8t16 -30q12 -26 28.5 -39t46.5 -13q45 0 75 51q1 3 7 14t12.5 17.5t12.5 6.5q14 0 14 -16q0 -29 -19 -60.5t-52 -53t-71 -21.5q-26 0 -51.5 13z" />
    <glyph glyph-name="dotaccent" unicode="&#x2d9;" 
d="M150.5 597.5q-9.5 12.5 -9.5 32.5q0 91 76 91q20 0 30.5 -15t10.5 -35q0 -18 -10 -38t-29 -34t-44 -14q-15 0 -24.5 12.5z" />
    <glyph glyph-name="ring" unicode="&#x2da;" 
d="M162.5 589q-19.5 18 -19.5 53q0 37 22 71.5t60 56t84 21.5q33 0 54 -18.5t21 -50.5q0 -38 -25.5 -73t-65.5 -56.5t-82 -21.5q-29 0 -48.5 18zM281.5 634q21.5 14 34.5 34t13 38q0 19 -11 28t-25 9q-40 0 -67 -26.5t-27 -59.5q0 -16 10 -26.5t26 -10.5q25 0 46.5 14z" />
    <glyph glyph-name="ogonek" unicode="&#x2db;" 
d="M145 -157q0 33 27.5 74t67 75.5t71.5 49.5h63q-57 -46 -100 -90.5t-43 -83.5q0 -19 10 -25t21 -6q26 0 61 20q4 3 9 3q8 0 14.5 -7.5t6.5 -15.5t-5 -13q-52 -49 -122 -49q-81 0 -81 68z" />
    <glyph glyph-name="tilde" unicode="&#x2dc;" 
d="M101 631q0 37 27 60.5t64 23.5q24 0 43.5 -10t41.5 -27q19 -14 28.5 -19.5t20.5 -5.5q26 0 39.5 17.5t14.5 46.5q31 -9 31 -44q0 -32 -16.5 -50t-37 -24.5t-34.5 -6.5q-22 0 -38 8t-37 24q-19 14 -30.5 20t-25.5 6q-20 0 -35 -16t-23 -45q-33 8 -33 42z" />
    <glyph glyph-name="hungarumlaut" unicode="&#x2dd;" 
d="M100.5 590.5q-5.5 5.5 -5.5 13.5q53 58 108 165q24 1 38.5 -10t14.5 -29q0 -29 -25 -63t-59.5 -58t-56.5 -24q-9 0 -14.5 5.5zM245 592q-7 7 -7 15q39 37 62.5 68t43.5 77q24 1 38.5 -10t14.5 -29q0 -30 -24 -59.5t-56.5 -49t-55.5 -19.5q-9 0 -16 7z" />
    <glyph glyph-name="gravecomb" unicode="&#x300;" horiz-adv-x="0" 
d="M-158.5 605.5q-42.5 20.5 -73.5 50.5t-31 59q0 20 18.5 33t44.5 11q22 -52 58 -88.5t95 -61.5q0 -9 -11 -16.5t-29 -7.5q-29 0 -71.5 20.5z" />
    <glyph glyph-name="acutecomb" unicode="&#x301;" horiz-adv-x="0" 
d="M-237.5 590.5q-5.5 5.5 -5.5 13.5q57 31 89 65.5t64 89.5q25 2 44 -10t19 -31q0 -29 -34.5 -60t-81.5 -52t-80 -21q-9 0 -14.5 5.5z" />
    <glyph glyph-name="uni0302" unicode="&#x302;" horiz-adv-x="0" 
d="M-219 661.5q36 -47.5 61 -71.5q-11 -21 -31 -21q-28 -1 -59 28.5t-57 68.5q-27 -27 -58 -49t-59 -32q-28 -8 -40 -8q-9 0 -14 5q-9 6 -9 12q0 7 19 20q43 23 87.5 60.5t70.5 69.5q6 8 17 8q4 0 8 -2t5 -6q23 -35 59 -82.5z" />
    <glyph glyph-name="tildecomb" unicode="&#x303;" horiz-adv-x="0" 
d="M-343 631q0 37 27 60.5t64 23.5q24 0 43.5 -10t41.5 -27q19 -14 28.5 -19.5t20.5 -5.5q26 0 39.5 17.5t14.5 46.5q31 -9 31 -44q0 -32 -16.5 -50t-37 -24.5t-34.5 -6.5q-22 0 -38 8t-37 24q-19 14 -30.5 20t-25.5 6q-20 0 -35 -16t-23 -45q-33 8 -33 42z" />
    <glyph glyph-name="uni0304" unicode="&#x304;" horiz-adv-x="0" 
d="M-267.5 630.5q-2.5 13.5 -1.5 22.5q1 21 42 31.5t100 10.5q17 0 47 -2q79 -5 92 -18q4 -4 4 -16q0 -15 -7 -34q-48 2 -72 2q-105 0 -197 -17q-5 7 -7.5 20.5z" />
    <glyph glyph-name="uni0306" unicode="&#x306;" horiz-adv-x="0" 
d="M-232.5 600q-25.5 13 -41.5 38t-16 58q0 43 21 43q12 0 18 -8t16 -30q12 -26 28.5 -39t46.5 -13q45 0 75 51q1 3 7 14t12.5 17.5t12.5 6.5q14 0 14 -16q0 -29 -19 -60.5t-52 -53t-71 -21.5q-26 0 -51.5 13z" />
    <glyph glyph-name="uni0307" unicode="&#x307;" horiz-adv-x="0" 
d="M-214.5 597.5q-9.5 12.5 -9.5 32.5q0 91 76 91q20 0 30.5 -15t10.5 -35q0 -18 -10 -38t-29 -34t-44 -14q-15 0 -24.5 12.5z" />
    <glyph glyph-name="uni0308" unicode="&#x308;" horiz-adv-x="0" 
d="M-141.5 607.5q-10.5 12.5 -10.5 31.5q0 43 21.5 62t51.5 19q20 0 30 -14t10 -32q0 -27 -21 -53t-56 -26q-15 0 -25.5 12.5zM-331.5 599q-10.5 14 -10.5 39q0 44 20.5 59t51.5 15q22 0 31.5 -13t9.5 -32q0 -17 -9.5 -36t-26 -32.5t-35.5 -13.5q-21 0 -31.5 14z" />
    <glyph glyph-name="uni030A" unicode="&#x30a;" horiz-adv-x="0" 
d="M-251.5 589q-19.5 18 -19.5 53q0 37 22 71.5t60 56t84 21.5q33 0 54 -18.5t21 -50.5q0 -38 -25.5 -73t-65.5 -56.5t-82 -21.5q-29 0 -48.5 18zM-132.5 634q21.5 14 34.5 34t13 38q0 19 -11 28t-25 9q-40 0 -67 -26.5t-27 -59.5q0 -16 10 -26.5t26 -10.5q25 0 46.5 14z
" />
    <glyph glyph-name="uni030B" unicode="&#x30b;" horiz-adv-x="0" 
d="M-335.5 590.5q-5.5 5.5 -5.5 13.5q53 58 108 165q24 1 38.5 -10t14.5 -29q0 -29 -25 -63t-59.5 -58t-56.5 -24q-9 0 -14.5 5.5zM-191 592q-7 7 -7 15q39 37 62.5 68t43.5 77q24 1 38.5 -10t14.5 -29q0 -30 -24 -59.5t-56.5 -49t-55.5 -19.5q-9 0 -16 7z" />
    <glyph glyph-name="uni030C" unicode="&#x30c;" horiz-adv-x="0" 
d="M-90 713q0 -4 -5.5 -9t-13.5 -10q-45 -25 -89 -59t-66 -60q-6 -8 -16 -8q-9 0 -13 7q-17 26 -54 72t-63 72q9 21 32 21q26 0 56.5 -26.5t54.5 -61.5q25 23 56 42t59 28q19 9 39 9q10 0 14 -4q9 -7 9 -13z" />
    <glyph glyph-name="uni0326" unicode="&#x326;" horiz-adv-x="0" 
d="M-262 -208q33 1 55 18t24 36q2 30 -13 55q-3 4 -3 9l1 8q1 13 15.5 26.5t35.5 13.5q23 0 36 -18t13 -47q0 -35 -16.5 -65.5t-44.5 -49t-59 -18.5q-45 0 -44 32z" />
    <glyph glyph-name="uni0327" unicode="&#x327;" horiz-adv-x="0" 
d="M-63 -72.5q22 -20.5 22 -54.5q0 -56 -44 -86.5t-110 -30.5q-22 0 -36.5 5t-14.5 13q0 7 3.5 16t11.5 14q8 -1 29 -1q42 0 71.5 12.5t29.5 43.5q0 14 -11.5 21.5t-31.5 7.5q-25 0 -52 -7q-9 -3 -13 2.5t-4 14.5q0 6 2 12l53 127l56 -3l-38 -87q6 1 17 1q38 0 60 -20.5z
" />
    <glyph glyph-name="uni0328" unicode="&#x328;" horiz-adv-x="0" 
d="M-297 -157q0 33 27.5 74t67 75.5t71.5 49.5h63q-57 -46 -100 -90.5t-43 -83.5q0 -19 10 -25t21 -6q26 0 61 20q4 3 9 3q8 0 14.5 -7.5t6.5 -15.5t-5 -13q-52 -49 -122 -49q-81 0 -81 68z" />
    <glyph glyph-name="uni0394" unicode="&#x394;" horiz-adv-x="571" 
d="M468 167q4 -50 15 -118q-3 -23 -54 -23h-53q-111 0 -194 -8t-159 -31q-13 -4 -24 -4q-20 0 -25 12t-5 29q0 44 104.5 211.5t221.5 314.5t154 147q17 0 27 -9q-8 -109 -10 -197.5t-2 -205.5q0 -68 4 -118zM217 81.5q91 7.5 167 6.5q-5 75 -5 155v32q2 115 4 178l3 110
q-88 -92 -177.5 -225t-153.5 -276q71 12 162 19.5z" />
    <glyph glyph-name="uni03A9" unicode="&#x3a9;" horiz-adv-x="673" 
d="M580 51q0 -12 -4.5 -25t-11.5 -22l-79 -4q-15 0 -49 -2l-45 -1q-35 0 -53.5 8.5t-18.5 31.5q0 9 7.5 18.5t23.5 25.5l35 34q92 89 140 169t48 169q0 64 -34.5 104.5t-107.5 40.5q-80 0 -139.5 -50t-90.5 -123.5t-31 -140.5q0 -132 63 -231q14 -16 10 -29
q-4 -11 -18.5 -16t-55.5 -3l-191 -12q-7 20 -7 44q0 17 10 23t31 6q10 0 42 -2l93 -5q-27 42 -42.5 106.5t-15.5 112.5q0 102 47 195.5t131.5 151t192.5 57.5q58 0 101 -28.5t66 -78.5t23 -114q0 -103 -60 -206t-178 -191q87 7 148 10q20 0 20 -23z" />
    <glyph glyph-name="uni03BC" unicode="&#x3bc;" horiz-adv-x="539" 
d="M495 415q-19 -55 -31 -107.5t-15 -130.5q-1 -41 6 -71t26 -59q-7 -13 -21 -23t-28 -10q-34 0 -52 29.5t-18 88.5q0 60 17 136q-121 -243 -255 -243q-34 0 -49 33l-16 -147q-7 -67 -11 -94t-11 -40q-8 -9 -22 -13t-27 -4q-20 0 -20 30q0 14 6 52q4 23 5 31q23 170 54 312
q19 87 47.5 181.5t54.5 140.5q55 -3 55 -46q0 -16 -21 -77q-23 -69 -35.5 -119.5t-12.5 -100.5q0 -30 12.5 -50.5t29.5 -20.5q55 0 116 100.5t123 237.5l16 34q8 17 21 30.5t28 12.5q9 0 19 -9.5t16.5 -22t5.5 -18.5q-2 -12 -13 -43z" />
    <glyph glyph-name="pi" unicode="&#x3c0;" horiz-adv-x="540" 
d="M451.5 399.5q-8.5 -38.5 -15.5 -96.5t-10 -126q-1 -41 6 -71t26 -59q-7 -13 -21 -23t-28 -10q-65 0 -65 118q0 83 33 231l18 82l-69 -1q-37 0 -103 -4q-24 -127 -42.5 -202.5t-38.5 -129.5q-18 -49 -39 -78.5t-50 -29.5q-35 0 -35 35q0 11 10 33t23 48q24 48 38 78l12 27
q31 67 44 115l25 99q-66 -6 -87 -13q-25 -7 -23 34q3 27 78 38.5t202 15.5q112 2 161 -9t49 -40q0 -10 -6 -24q-34 7 -82 9q-2 -8 -10.5 -46.5z" />
    <glyph glyph-name="Wgrave" unicode="&#x1e80;" horiz-adv-x="851" 
d="M857 683q0 -55 -16 -142t-37 -166q-35 -130 -96.5 -246.5t-153.5 -116.5q-68 0 -95.5 62.5t-27.5 147.5q0 18 2 44q-27 -68 -74.5 -130.5t-101.5 -101t-99 -38.5q-116 0 -116 162q0 69 24.5 168.5t66 201.5t88.5 177q11 15 20.5 24.5t21.5 9.5t24 -19t12 -35
q0 -12 -9 -32t-34 -68q-45 -83 -65 -136q-24 -66 -42.5 -136t-18.5 -121q0 -55 9 -86.5t44 -31.5q50 0 115.5 88.5t140.5 269.5l15 38q21 52 35.5 74t38.5 22q9 0 12.5 -4.5t3.5 -14.5q0 -14 -10 -57l-13 -65q-13 -70 -13 -141q0 -76 15 -127.5t44 -51.5q40 0 83 60t73 164
q15 52 23 99.5t19 134.5l10 78q3 24 7.5 35.5t17.5 25.5q7 6 20.5 11t20.5 5q16 0 16 -35zM507.5 771q-43.5 16 -74 41.5t-30.5 52.5q0 19 16 32.5t40 15.5q29 -48 70 -79.5t103 -47.5q1 -11 -12.5 -21t-36.5 -10q-32 0 -75.5 16z" />
    <glyph glyph-name="wgrave" unicode="&#x1e81;" horiz-adv-x="682" 
d="M650 497q10 -7 10 -31q0 -36 -11 -96.5t-33 -120.5q-35 -98 -94.5 -167.5t-115.5 -69.5q-19 0 -37 17t-29.5 50t-11.5 78q0 29 3 60q-39 -90 -100.5 -158t-118.5 -68q-35 0 -59 34t-24 111q0 68 24 157.5t62.5 153t80.5 63.5q14 0 22.5 -5t8.5 -15q0 -7 -5 -16.5
t-11.5 -18.5t-11.5 -18q-40 -62 -63 -135.5t-23 -146.5q0 -45 8 -64t23 -19q36 0 90 83.5t101 201.5q11 26 14 39q11 31 18.5 40.5t24.5 9.5q32 0 32 -30q0 -4 -3 -25q-1 -8 -12 -75t-11 -125q0 -96 43 -96q28 0 60 50t52 116q20 64 25.5 105t5.5 100q0 19 11.5 28.5
t30.5 9.5q14 0 24 -7zM361.5 605.5q-42.5 20.5 -73.5 50.5t-31 59q0 20 18.5 33t44.5 11q22 -52 58 -88.5t95 -61.5q0 -9 -11 -16.5t-29 -7.5q-29 0 -71.5 20.5z" />
    <glyph glyph-name="Wacute" unicode="&#x1e82;" horiz-adv-x="851" 
d="M857 683q0 -55 -16 -142t-37 -166q-35 -130 -96.5 -246.5t-153.5 -116.5q-68 0 -95.5 62.5t-27.5 147.5q0 18 2 44q-27 -68 -74.5 -130.5t-101.5 -101t-99 -38.5q-116 0 -116 162q0 69 24.5 168.5t66 201.5t88.5 177q11 15 20.5 24.5t21.5 9.5t24 -19t12 -35
q0 -12 -9 -32t-34 -68q-45 -83 -65 -136q-24 -66 -42.5 -136t-18.5 -121q0 -55 9 -86.5t44 -31.5q50 0 115.5 88.5t140.5 269.5l15 38q21 52 35.5 74t38.5 22q9 0 12.5 -4.5t3.5 -14.5q0 -14 -10 -57l-13 -65q-13 -70 -13 -141q0 -76 15 -127.5t44 -51.5q40 0 83 60t73 164
q15 52 23 99.5t19 134.5l10 78q3 24 7.5 35.5t17.5 25.5q7 6 20.5 11t20.5 5q16 0 16 -35zM470 768.5q-4 6.5 -2 14.5q62 18 101 45.5t81 74.5q22 -4 38 -17.5t16 -29.5q0 -4 -2 -10q-7 -24 -39.5 -44.5t-75 -32t-77.5 -11.5q-19 0 -27 2q-9 2 -13 8.5z" />
    </font>
</defs>
</svg>
